<?xml version="1.0" encoding="utf-8"?>
<!-- Generator: Adobe Illustrator 16.0.0, SVG Export Plug-In . SVG Version: 6.00 Build 0)  -->
<!DOCTYPE svg PUBLIC "-//W3C//DTD SVG 1.1//EN" "http://www.w3.org/Graphics/SVG/1.1/DTD/svg11.dtd">
<svg version="1.1" id="Layer_1" xmlns="http://www.w3.org/2000/svg" xmlns:xlink="http://www.w3.org/1999/xlink" x="0px" y="0px"
	 width="200px" height="82.055px" viewBox="380 234.689 200 82.055" enable-background="new 380 234.689 200 82.055"
	 xml:space="preserve">
<g>
	
		<linearGradient id="SVGID_1_" gradientUnits="userSpaceOnUse" x1="332.8008" y1="-20.8374" x2="332.8008" y2="-93.6401" gradientTransform="matrix(0.56 0 0 -0.56 284.22 288.3805)">
		<stop  offset="0" style="stop-color:#C3922E"/>
		<stop  offset="0.0723" style="stop-color:#D19C2E"/>
		<stop  offset="0.1844" style="stop-color:#E2A72E"/>
		<stop  offset="0.3198" style="stop-color:#EDAF2E"/>
		<stop  offset="0.5401" style="stop-color:#F1B22E"/>
		<stop  offset="0.7161" style="stop-color:#E8AB2B"/>
		<stop  offset="0.9944" style="stop-color:#DA9F25"/>
	</linearGradient>
	<path fill="url(#SVGID_1_)" d="M451.499,257.996c0.074-0.027,0.142-0.024,0.152,0.004c0.011,0.029,0.087,0.025,0.164-0.009
		c0.182-0.079,0.708-0.09,0.921-0.02c0.089,0.029,0.345,0.081,0.567,0.112c0.221,0.031,0.632,0.092,0.91,0.134
		c0.277,0.041,0.602,0.083,0.721,0.094c0.119,0.009,0.677,0.069,1.244,0.132c0.999,0.11,1.167,0.121,2.171,0.132
		c1.387,0.013,2.227-0.094,3.327-0.428c1.94-0.589,4.199-2.117,5.05-3.417c0.529-0.809,1.036-2.113,1.02-2.628
		c-0.005-0.166,0.004-0.318,0.02-0.338c0.025-0.032,0.446,0.009,2.7,0.258c0.766,0.085,1.355,0.174,1.474,0.224
		c0.047,0.021,0.411,0.123,0.8,0.229c0.695,0.186,2.163,0.647,2.635,0.827c0.341,0.13,0.269,0.218-0.162,0.2
		c-1.158-0.047-2.355,0.538-3.164,1.548c-0.251,0.313-0.562,1.559-0.621,2.482c-0.018,0.287-0.051,0.721-0.074,0.968
		s-0.032,0.478-0.018,0.511c0.029,0.074,1.074,0.192,1.683,0.192c0.574,0,1.448-0.132,1.86-0.282
		c0.412-0.148,0.952-0.498,1.49-0.961c0.731-0.632,0.993-0.959,1.503-1.871c0.375-0.67,0.473-0.876,0.498-1.06
		c0.021-0.139,0.061-0.195,0.177-0.238c0.121-0.042,0.258,0.002,0.683,0.227c0.289,0.152,0.647,0.363,0.787,0.459
		c0.262,0.184,0.589,0.392,1.357,0.869c0.898,0.556,2.761,1.981,3.368,2.575c0.313,0.307,1.284,1.42,1.456,1.671
		c0.034,0.047,0.067,0.092,0.099,0.132h2.162c-0.062-0.092-0.22-0.338-0.352-0.551c-0.135-0.215-0.273-0.406-0.307-0.423
		c-0.036-0.021-0.092-0.114-0.128-0.215c-0.036-0.101-0.123-0.242-0.199-0.321c-0.074-0.078-0.204-0.247-0.292-0.383
		c-0.087-0.136-0.192-0.262-0.237-0.289c-0.047-0.025-0.074-0.065-0.062-0.092c0.012-0.025-0.04-0.101-0.112-0.166
		c-0.177-0.164-0.19-0.224-0.059-0.271c0.126-0.045,1.078-0.744,1.34-0.981c0.097-0.087,0.259-0.278,0.356-0.419
		c0.1-0.141,0.24-0.321,0.308-0.395c0.181-0.195,0.883-1.801,0.898-2.057c0.007-0.116,0.026-0.313,0.042-0.432
		s0.045-0.365,0.063-0.54c0.018-0.175,0.054-0.345,0.078-0.374c0.022-0.029,0.026-0.099,0.009-0.152
		c-0.02-0.056-0.024-0.177-0.009-0.278c0.014-0.101,0.011-0.215-0.005-0.262c-0.018-0.047-0.018-0.112-0.002-0.152
		c0.033-0.087-0.016-0.695-0.08-1c-0.029-0.132-0.048-0.291-0.041-0.347s-0.026-0.305-0.078-0.549
		c-0.05-0.244-0.105-0.562-0.121-0.704c-0.043-0.379-0.488-1.815-0.578-1.873c-0.043-0.027-0.062-0.079-0.052-0.125
		c0.036-0.13-0.636-1.774-0.847-2.075c-0.065-0.092-0.147-0.251-0.187-0.359c-0.104-0.291-0.396-0.544-0.625-0.542
		c-0.19,0.002-0.201,0.011-0.343,0.343c-0.104,0.249-0.215,0.399-0.4,0.544c-0.359,0.282-0.628,0.584-0.775,0.867
		c-0.067,0.127-0.182,0.298-0.249,0.372c-0.154,0.17-0.802,1.555-0.89,1.902c-0.033,0.139-0.096,0.334-0.135,0.426
		c-0.123,0.292-0.342,1.241-0.428,1.853c-0.085,0.605-0.111,1.194-0.073,1.719c0.058,0.842,0.526,2.622,0.885,3.358
		c0.09,0.184,0.227,0.466,0.309,0.637l0.148,0.304l-0.159-0.219c-0.09-0.124-0.251-0.278-0.365-0.352
		c-0.114-0.074-0.217-0.162-0.23-0.2c-0.014-0.036-0.104-0.121-0.202-0.188c-0.213-0.146-0.349-0.255-0.473-0.38
		c-0.049-0.05-0.172-0.124-0.277-0.168s-0.337-0.202-0.516-0.352c-0.325-0.271-0.699-0.504-1.132-0.706
		c-0.127-0.06-0.312-0.168-0.416-0.244c-0.348-0.251-1.5-0.824-1.593-0.791c-0.027,0.009-0.058-0.009-0.07-0.047
		c-0.013-0.036-0.215-0.152-0.452-0.26c-0.235-0.108-0.438-0.217-0.446-0.244s0.079-0.222,0.195-0.433
		c0.117-0.21,0.258-0.549,0.314-0.75c0.056-0.2,0.13-0.446,0.161-0.542c0.056-0.166,0.107-0.564,0.121-0.952
		c0.002-0.085,0.009-0.231,0.016-0.334c0.009-0.184-0.006-0.398-0.074-0.948c-0.047-0.383-0.298-1.25-0.578-1.999
		c-0.22-0.587-0.282-0.724-0.666-1.454c-0.123-0.237-0.247-0.473-0.275-0.529c-0.072-0.144-0.31-0.45-0.462-0.598
		c-0.071-0.07-0.15-0.179-0.172-0.242c-0.022-0.062-0.094-0.152-0.157-0.197c-0.064-0.044-0.186-0.188-0.273-0.318
		s-0.21-0.275-0.276-0.325c-0.067-0.049-0.166-0.186-0.224-0.307c-0.059-0.124-0.132-0.235-0.168-0.258
		c-0.033-0.02-0.125-0.123-0.204-0.226c-0.079-0.104-0.199-0.222-0.271-0.262c-0.071-0.041-0.221-0.159-0.338-0.267
		c-0.116-0.108-0.253-0.217-0.304-0.249c-0.054-0.031-0.175-0.125-0.278-0.215c-0.103-0.09-0.262-0.229-0.362-0.316
		c-0.388-0.338-0.52-0.428-0.59-0.403c-0.038,0.014-0.105-0.029-0.145-0.092c-0.043-0.063-0.202-0.19-0.35-0.28
		c-0.515-0.312-0.58-0.35-0.968-0.567c-0.722-0.403-1.331-0.692-1.618-0.764c-0.255-0.065-0.296-0.059-0.421,0.058
		c-0.143,0.134-0.195,0.421-0.114,0.643c0.029,0.083-0.022,0.222-0.164,0.441c-0.257,0.394-0.395,0.777-0.475,1.313
		c-0.157,1.06,0.02,2.234,0.578,3.798c0.448,1.257,0.742,1.896,1.134,2.462c0.099,0.143,0.227,0.329,0.28,0.408
		c0.099,0.143,0.175,0.242,0.327,0.421c0.042,0.051,0.166,0.204,0.273,0.345c0.229,0.296,0.886,0.955,1.327,1.335
		c0.173,0.148,0.441,0.385,0.607,0.536c0.167,0.15,0.411,0.349,0.549,0.448c0.141,0.099,0.242,0.2,0.231,0.224
		c-0.014,0.029-0.045,0.031-0.079,0.007c-0.085-0.058-0.773-0.224-0.838-0.202c-0.031,0.011-0.199-0.038-0.367-0.107
		s-0.347-0.114-0.394-0.099c-0.047,0.016-0.227-0.027-0.395-0.099c-0.168-0.069-0.374-0.123-0.45-0.116
		c-0.076,0.006-0.204-0.014-0.273-0.043c-0.072-0.031-0.332-0.081-0.583-0.114s-0.605-0.081-0.798-0.105
		c-0.787-0.108-1.123-0.125-1.212-0.063c-0.059,0.041-0.184,0.038-0.325-0.007c-0.127-0.04-0.28-0.054-0.343-0.031
		s-0.26,0.029-0.437,0.014c-0.179-0.016-0.428-0.022-0.558-0.014c-0.13,0.007-0.318,0.007-0.419-0.002
		c-0.105-0.009-0.253-0.016-0.34-0.016c-0.117,0-0.195-0.058-0.316-0.23c-0.213-0.305-0.466-0.473-1.4-0.926
		c-0.433-0.208-0.836-0.432-0.907-0.501c-0.072-0.069-0.17-0.13-0.227-0.137c-0.054-0.007-0.381-0.139-0.737-0.296
		c-0.356-0.157-0.666-0.275-0.699-0.262c-0.034,0.011-0.105-0.027-0.166-0.089c-0.06-0.063-0.141-0.099-0.181-0.083
		c-0.041,0.016-0.162-0.045-0.269-0.13c-0.235-0.19-0.923-0.502-1.094-0.495c-0.069,0.002-0.26-0.045-0.432-0.105
		c-0.446-0.159-1.708-0.269-1.797-0.157c-0.016,0.02-0.155,0.045-0.312,0.054c-0.157,0.011-0.45,0.072-0.659,0.139
		c-0.536,0.172-0.636,0.197-0.764,0.188c-0.061-0.004-0.309,0.083-0.556,0.195c-0.247,0.114-0.583,0.264-0.753,0.341
		c-0.36,0.159-0.947,0.625-1.026,0.817c-0.029,0.07-0.094,0.148-0.139,0.166c-0.047,0.018-0.154,0.137-0.24,0.264
		c-0.085,0.128-0.219,0.321-0.298,0.428s-0.287,0.491-0.466,0.856c-0.179,0.365-0.349,0.667-0.38,0.679
		c-0.032,0.009-0.164,0.018-0.29,0.018c-0.275,0-0.417,0.105-0.453,0.336c-0.02,0.125-0.004,0.175,0.061,0.206
		c0.047,0.022,0.125,0.146,0.173,0.28c0.081,0.226,0.074,0.262-0.164,0.75c-0.146,0.298-0.325,0.827-0.433,1.264
		c-0.199,0.818-0.322,1.414-0.307,1.461c0.006,0.018-0.012,0.112-0.041,0.213c-0.029,0.099-0.076,0.39-0.105,0.645
		c-0.029,0.256-0.107,0.677-0.17,0.939c-0.065,0.262-0.105,0.529-0.089,0.599c0.018,0.087-0.021,0.159-0.13,0.237
		C451.307,257.973,451.313,258.063,451.499,257.996z M484.887,251.281c0.02-0.108,0.028-0.323,0.02-0.468
		c-0.009-0.146,0.019-0.376,0.059-0.502c0.04-0.128,0.067-0.253,0.061-0.276c-0.009-0.022,0.016-0.143,0.054-0.264
		s0.064-0.235,0.061-0.249c-0.029-0.081,0.345-1.136,0.549-1.548c0.128-0.258,0.296-0.614,0.367-0.78
		c0.131-0.298,0.628-1.015,0.731-1.053c0.028-0.011,0.068-0.079,0.089-0.157c0.034-0.13,0.047-0.117,0.202,0.21
		c0.092,0.195,0.234,0.473,0.32,0.623c0.307,0.54,1.021,2.939,1.149,3.863c0.246,1.783,0.246,1.896,0.038,3.312
		c-0.104,0.701-0.154,0.869-0.422,1.407c-0.284,0.573-0.336,0.641-0.824,1.078c-0.592,0.531-0.827,0.686-1.001,0.659
		c-0.117-0.018-0.15-0.083-0.453-0.905C485.128,254.153,484.726,252.154,484.887,251.281z M476.86,256.344
		c-0.195,0.258-0.531,0.614-0.607,0.643c-0.029,0.011-0.15,0.125-0.267,0.251c-0.116,0.125-0.278,0.282-0.359,0.343
		c-0.253,0.193-0.724,0.478-0.771,0.466c-0.025-0.004-0.271,0.061-0.547,0.144c-0.398,0.121-0.591,0.15-0.947,0.135
		c-0.242-0.011-0.479-0.007-0.521,0.006c-0.042,0.016-0.08,0.009-0.089-0.016c-0.018-0.047-0.528-0.121-0.619-0.089
		c-0.089,0.031-0.159-0.052-0.141-0.17c0.009-0.063,0.022-0.182,0.029-0.267c0.04-0.475,0.202-1.096,0.439-1.701
		c0.101-0.255,0.385-0.587,0.733-0.854c0.255-0.195,1.104-0.551,1.46-0.612c0.777-0.132,1.443-0.17,2.272-0.132
		c0.596,0.027,0.652,0.047,0.659,0.224C477.596,254.89,477.067,256.071,476.86,256.344z M472.292,240.871
		c0.322,0.177,1.329,0.881,1.712,1.197c0.726,0.601,1.855,1.673,2.122,2.019c0.141,0.184,0.283,0.343,0.318,0.361
		s0.083,0.081,0.103,0.139c0.02,0.059,0.226,0.375,0.457,0.704c0.67,0.955,0.842,1.244,1.102,1.853
		c0.668,1.56,0.886,2.722,0.706,3.753c-0.058,0.332-0.313,1.04-0.385,1.066c-0.085,0.032-0.237-0.195-0.316-0.473
		c-0.045-0.152-0.166-0.405-0.269-0.556c-0.103-0.148-0.23-0.395-0.284-0.54c-0.054-0.148-0.157-0.352-0.231-0.459
		c-0.074-0.105-0.177-0.271-0.229-0.368c-0.052-0.096-0.125-0.195-0.166-0.22c-0.041-0.022-0.135-0.188-0.211-0.363
		s-0.255-0.526-0.392-0.777c-0.139-0.249-0.309-0.558-0.375-0.681c-0.125-0.235-0.464-0.76-0.562-0.874
		c-0.034-0.038-0.085-0.125-0.119-0.197c-0.114-0.239-0.406-0.735-0.554-0.943c-0.19-0.262-0.159-0.217-0.35-0.526
		c-0.092-0.148-0.325-0.601-0.522-1.008s-0.47-0.91-0.611-1.12c-0.139-0.206-0.276-0.435-0.301-0.502
		c-0.024-0.069-0.071-0.128-0.107-0.134c-0.036-0.007-0.094-0.099-0.132-0.204c-0.039-0.105-0.146-0.327-0.242-0.498
		c-0.096-0.168-0.197-0.398-0.229-0.513C472.171,240.815,472.173,240.806,472.292,240.871z M475.039,249.811
		c-0.052-0.009-0.099-0.051-0.117-0.098c-0.016-0.045-0.148-0.195-0.289-0.33c-0.553-0.531-0.746-0.735-0.845-0.898
		c-0.094-0.155-0.271-0.368-0.464-0.558c-0.036-0.036-0.114-0.141-0.172-0.233c-0.058-0.092-0.161-0.229-0.231-0.302
		c-0.164-0.175-0.399-0.52-0.508-0.744c-0.15-0.305-0.395-0.694-0.475-0.757c-0.083-0.062-0.795-2.167-0.912-2.691
		c-0.057-0.255-0.117-0.69-0.133-0.966c-0.016-0.275-0.038-0.605-0.049-0.733c-0.027-0.289,0-0.58,0.083-0.945
		c0.034-0.15,0.072-0.278,0.083-0.282c0.044-0.016,0.15,0.15,0.224,0.356c0.045,0.123,0.155,0.356,0.247,0.522
		c0.092,0.164,0.325,0.623,0.515,1.019c0.19,0.397,0.473,0.915,0.625,1.15c0.152,0.237,0.36,0.56,0.466,0.721
		c0.103,0.159,0.332,0.562,0.504,0.894c0.174,0.332,0.349,0.625,0.392,0.647c0.045,0.027,0.07,0.074,0.061,0.117
		c-0.013,0.058,0.083,0.208,0.309,0.486c0.032,0.038,0.081,0.114,0.11,0.17c0.072,0.135,0.733,1.201,0.984,1.589
		c0.383,0.591,0.645,1.053,0.975,1.712c0.182,0.365,0.365,0.73,0.412,0.818c0.047,0.087,0.155,0.316,0.244,0.511l0.16,0.352
		l-0.191-0.11c-0.408-0.235-1.463-0.983-1.736-1.23C475.211,249.905,475.086,249.82,475.039,249.811z M466.883,251.785
		c0.129,0.052,0.17,0.264,0.123,0.639c-0.054,0.428-0.592,1.537-0.986,2.037c-0.119,0.15-0.569,0.551-0.652,0.58
		c-0.053,0.021-0.109,0.065-0.129,0.105c-0.056,0.117-0.802,0.715-1.018,0.815c-0.114,0.054-0.312,0.164-0.448,0.251
		c-0.137,0.085-0.341,0.213-0.464,0.292c-0.295,0.186-1.001,0.457-1.628,0.627c-0.283,0.076-0.737,0.206-1.004,0.284
		c-0.307,0.092-0.575,0.137-0.732,0.121c-0.538-0.051-0.836-0.065-0.9-0.042c-0.038,0.013-0.264,0.002-0.502-0.022
		c-0.238-0.027-0.567-0.045-0.728-0.04c-0.166,0.004-0.393-0.004-0.516-0.022c-0.296-0.041-0.84-0.061-0.914-0.034
		c-0.031,0.011-0.26,0-0.509-0.027s-0.481-0.036-0.52-0.022c-0.139,0.049-0.974-0.11-1.236-0.237c-0.413-0.2-0.52-0.433-0.309-0.67
		c0.044-0.052,0.136-0.17,0.208-0.271c0.072-0.101,0.148-0.188,0.177-0.197c0.027-0.009,0.067-0.065,0.085-0.121
		c0.02-0.059,0.081-0.119,0.139-0.139c0.056-0.02,0.2-0.139,0.316-0.262c0.116-0.125,0.249-0.24,0.293-0.255
		s0.168-0.114,0.269-0.213c0.105-0.103,0.435-0.312,0.744-0.47c0.307-0.159,0.598-0.314,0.652-0.348s0.159-0.062,0.238-0.062
		c0.089,0,0.159-0.031,0.192-0.087c0.029-0.049,0.072-0.079,0.099-0.065c0.024,0.011,0.069-0.016,0.097-0.059
		c0.033-0.056,0.087-0.076,0.174-0.062c0.101,0.014,0.132-0.009,0.162-0.112c0.029-0.112,0.062-0.132,0.26-0.148
		c0.164-0.014,0.226-0.038,0.224-0.083c-0.002-0.092,0.146-0.13,0.177-0.045c0.054,0.148,0.413,0.02,0.484-0.175
		c0.036-0.096,0.235-0.195,0.314-0.154c0.024,0.011,0.15,0.002,0.285-0.018c0.249-0.041,0.405-0.083,1.983-0.54
		c0.508-0.148,1.062-0.293,1.228-0.325c0.166-0.031,0.47-0.09,0.676-0.128C464.389,251.865,466.63,251.686,466.883,251.785z
		 M458.297,248.085c0.022-0.004,0.192-0.038,0.376-0.079c0.37-0.081,1.053-0.096,1.535-0.038c0.41,0.049,0.724,0.15,1.427,0.459
		c0.312,0.137,0.925,0.39,1.364,0.56c0.439,0.173,0.993,0.406,1.23,0.52c0.959,0.461,1.611,0.885,1.333,0.862
		c-0.034-0.002-0.148,0.022-0.249,0.054c-0.103,0.032-0.229,0.059-0.278,0.059c-0.166,0-0.991,0.139-1.696,0.287l-0.701,0.148
		l-0.168-0.155c-0.28-0.257-1.62-0.972-1.741-0.93c-0.029,0.011-0.054-0.002-0.065-0.031c-0.009-0.027-0.121-0.101-0.253-0.166
		c-0.365-0.182-0.504-0.274-1.104-0.729c-0.312-0.235-0.667-0.5-0.795-0.589c-0.13-0.092-0.238-0.179-0.244-0.197
		C458.259,248.104,458.271,248.088,458.297,248.085z M454.645,250.698c0.471-0.937,0.874-1.414,1.512-1.795
		c0.271-0.161,0.598-0.332,0.726-0.376c0.224-0.081,0.244-0.076,0.54,0.141c0.621,0.453,1.488,1.024,1.819,1.199
		c0.186,0.099,0.636,0.334,1.001,0.524s0.854,0.412,1.089,0.493c0.23,0.079,0.437,0.175,0.448,0.208
		c0.018,0.047-0.062,0.083-0.322,0.144c-0.191,0.045-0.552,0.137-0.807,0.208c-1.754,0.493-2.18,0.584-2.413,0.522
		c-0.11-0.029-0.39-0.137-0.624-0.238c-0.41-0.177-0.531-0.195-1.81-0.291c-0.681-0.052-1.086-0.103-1.255-0.162l-0.17-0.058
		L454.645,250.698z M453.605,252.981c0.172-0.385,0.34-0.708,0.372-0.719c0.031-0.011,0.152,0.002,0.264,0.027
		c0.114,0.026,0.497,0.047,0.863,0.044c0.704-0.004,1.945,0.061,2.055,0.11c0.038,0.016,0.056,0.042,0.047,0.063
		c-0.009,0.02-0.356,0.213-0.769,0.43c-0.412,0.215-0.782,0.428-0.818,0.468c-0.036,0.04-0.134,0.085-0.213,0.099
		c-0.224,0.036-0.965,0.558-1.279,0.9c-0.468,0.511-0.737,0.827-0.898,1.046c-0.193,0.265-0.293,0.233-0.318-0.099
		C452.882,255.016,453.243,253.786,453.605,252.981z"/>
	<g>
		<g>
			
				<linearGradient id="SVGID_2_" gradientUnits="userSpaceOnUse" x1="217.6426" y1="-20.8374" x2="217.6426" y2="-93.6401" gradientTransform="matrix(0.56 0 0 -0.56 284.22 288.3805)">
				<stop  offset="0" style="stop-color:#C3922E"/>
				<stop  offset="0.0723" style="stop-color:#D19C2E"/>
				<stop  offset="0.1844" style="stop-color:#E2A72E"/>
				<stop  offset="0.3198" style="stop-color:#EDAF2E"/>
				<stop  offset="0.5401" style="stop-color:#F1B22E"/>
				<stop  offset="0.7161" style="stop-color:#E8AB2B"/>
				<stop  offset="0.9944" style="stop-color:#DA9F25"/>
			</linearGradient>
			<path fill="url(#SVGID_2_)" d="M392.09,258.011c0.062-0.771,0.544-2.07,1.082-2.928c0.154-0.247,0.607-0.847,0.829-1.1
				c0.473-0.542,1.497-1.526,2.003-1.927c0.777-0.611,1.526-1.104,2.106-1.387c0.28-0.135,0.553-0.276,0.614-0.314
				c0.058-0.036,0.13-0.067,0.155-0.069c0.027,0,0.114-0.031,0.199-0.072c0.179-0.083,1.086-0.378,1.362-0.443
				c0.533-0.128,2.039-0.3,2.722-0.31c0.585-0.009,0.836-0.016,1.042-0.031c0.11-0.007,0.376-0.004,0.587,0.007
				c0.309,0.016,0.401,0.036,0.455,0.101c0.049,0.061,0.054,0.108,0.02,0.191c-0.047,0.11-0.061,0.255-0.076,0.752
				c-0.02,0.674,0.018,0.946,0.213,1.537c0.144,0.437,0.327,0.809,0.506,1.028c0.179,0.22,0.621,0.583,0.939,0.773
				c0.338,0.202,0.957,0.484,0.997,0.452c0.018-0.016,0.089-0.146,0.159-0.289c0.07-0.146,0.195-0.397,0.28-0.562
				c0.273-0.531,0.516-1.327,0.479-1.582c-0.114-0.829-0.583-1.548-1.241-1.907c-0.244-0.132-0.255-0.206-0.022-0.164
				c0.32,0.058,1.289,0.289,1.736,0.417c0.251,0.072,0.486,0.135,0.52,0.139c0.083,0.011,0.439,0.157,0.892,0.365
				c1.333,0.609,1.58,0.728,1.582,0.753c0.002,0.016-0.045,0.103-0.101,0.195c-0.18,0.28-0.332,1.172-0.307,1.795
				c0.04,1.004,0.786,2.599,1.667,3.569c0.5,0.549,0.93,0.888,1.703,1.34c0.561,0.327,0.657,0.376,1.248,0.647
				c0.336,0.152,0.663,0.305,0.733,0.338c0.069,0.034,0.262,0.119,0.43,0.188s0.415,0.172,0.549,0.229
				c0.132,0.056,0.292,0.112,0.352,0.125c0.142,0.031,0.428,0.213,0.504,0.316c0.031,0.045,0.072,0.072,0.087,0.061
				c0.016-0.014,0.054,0.009,0.085,0.047c0.081,0.099,0.114,0.052,0.059-0.081c-0.034-0.081-0.032-0.132,0.007-0.174
				c0.031-0.034,0.096-0.195,0.147-0.361c0.052-0.166,0.148-0.425,0.215-0.576c0.069-0.152,0.139-0.329,0.154-0.392
				c0.018-0.065,0.038-0.123,0.047-0.13c0.024-0.02,0.152-0.392,0.316-0.912c0.087-0.278,0.161-0.632,0.179-0.845
				c0.029-0.349,0.038-0.372,0.157-0.47c0.069-0.059,0.155-0.101,0.188-0.099c0.047,0.004,0.072-0.018,0.101-0.094
				c0.056-0.139,0.013-0.244-0.139-0.336c-0.07-0.042-0.142-0.09-0.155-0.105c-0.014-0.016-0.009-0.24,0.013-0.502
				c0.022-0.262,0.034-0.544,0.025-0.629c-0.009-0.085-0.018-0.238-0.025-0.336c-0.004-0.099-0.024-0.202-0.044-0.227
				c-0.018-0.024-0.029-0.089-0.022-0.139c0.02-0.132-0.15-0.587-0.298-0.793c-0.07-0.099-0.207-0.293-0.305-0.439
				s-0.206-0.276-0.242-0.293c-0.074-0.036-0.121-0.083-0.361-0.356c-0.094-0.107-0.235-0.237-0.318-0.296
				c-0.085-0.058-0.152-0.116-0.154-0.134c-0.014-0.092-0.749-0.448-1.049-0.509c-0.114-0.022-0.237-0.061-0.275-0.085
				c-0.092-0.061-0.576-0.117-0.771-0.087c-0.087,0.014-0.175,0.004-0.192-0.016c-0.018-0.022-0.074-0.029-0.13-0.014
				c-0.054,0.014-0.108,0.011-0.124-0.007c-0.014-0.018-0.224-0.056-0.475-0.085c-0.249-0.031-0.475-0.065-0.509-0.081
				c-0.033-0.013-0.107-0.013-0.17,0.002s-0.361,0.004-0.67-0.022c-0.668-0.059-0.865-0.049-1.084,0.049
				c-0.123,0.056-0.186,0.06-0.251,0.022c-0.049-0.029-0.132-0.074-0.193-0.105c-0.058-0.029-0.163-0.092-0.233-0.139
				c-0.069-0.047-0.21-0.125-0.314-0.177c-0.103-0.052-0.21-0.119-0.237-0.152s-0.116-0.076-0.202-0.097
				c-0.094-0.022-0.164-0.062-0.184-0.103c-0.029-0.065-0.222-0.166-0.694-0.368c-0.115-0.049-0.328-0.141-0.478-0.206
				c-0.15-0.065-0.309-0.124-0.361-0.13c-0.047-0.007-0.125-0.038-0.166-0.067c-0.041-0.029-0.172-0.067-0.289-0.085
				s-0.231-0.052-0.251-0.076c-0.02-0.025-0.134-0.059-0.251-0.076c-0.117-0.018-0.227-0.045-0.24-0.063
				c-0.027-0.034-0.464-0.17-0.531-0.166c-0.027,0.002-0.042-0.011-0.04-0.029c0.002-0.018,0.092-0.041,0.202-0.049
				s0.312-0.038,0.453-0.065c0.141-0.029,0.37-0.072,0.513-0.096c0.372-0.063,0.954-0.213,1.178-0.3
				c0.107-0.043,0.224-0.085,0.267-0.101c0.144-0.049,0.22-0.079,0.32-0.123c0.056-0.025,0.188-0.085,0.292-0.132
				c0.406-0.184,0.78-0.441,1.445-0.99c0.827-0.681,1.317-1.275,1.582-1.916c0.134-0.325,0.184-0.583,0.172-0.888
				c-0.007-0.168,0.011-0.262,0.056-0.298c0.119-0.097,0.186-0.273,0.15-0.395c-0.031-0.107-0.052-0.123-0.215-0.172
				c-0.184-0.056-0.616-0.096-1.149-0.112c-0.287-0.009-0.336-0.009-0.726-0.007c-0.112,0-0.242,0.018-0.287,0.041
				c-0.045,0.02-0.094,0.022-0.112,0.002c-0.032-0.038-0.135-0.031-0.462,0.029c-0.085,0.016-0.219,0.04-0.304,0.054
				c-0.085,0.013-0.186,0.027-0.224,0.027c-0.041,0-0.152,0.016-0.251,0.038c-0.101,0.02-0.224,0.036-0.276,0.036
				c-0.051,0-0.159,0.025-0.237,0.056c-0.079,0.031-0.162,0.058-0.188,0.058s-0.105,0.038-0.177,0.087
				c-0.074,0.049-0.173,0.092-0.227,0.097c-0.051,0.004-0.17,0.044-0.26,0.089c-0.092,0.042-0.206,0.083-0.258,0.085
				c-0.049,0.005-0.119,0.029-0.152,0.059c-0.034,0.027-0.114,0.062-0.177,0.076c-0.134,0.031-0.368,0.123-0.455,0.179
				c-0.033,0.022-0.181,0.112-0.327,0.202c-0.455,0.278-0.533,0.332-0.851,0.584c-0.403,0.323-0.832,0.72-0.984,0.917
				c-0.22,0.282-0.3,0.396-0.356,0.502c-0.032,0.058-0.076,0.141-0.104,0.19c-0.121,0.22-0.226,0.458-0.249,0.567
				c-0.014,0.065-0.056,0.227-0.09,0.354c-0.036,0.13-0.069,0.365-0.074,0.52c-0.004,0.154-0.022,0.293-0.036,0.305
				c-0.013,0.011-0.161,0.004-0.327-0.014c-0.166-0.018-0.318-0.022-0.336-0.006c-0.021,0.016-0.043,0.018-0.054,0.002
				c-0.04-0.049-0.869-0.114-1.145-0.089c-0.083,0.006-0.222,0.006-0.312-0.004c-0.307-0.032-0.592-0.027-0.863,0.016
				c-0.15,0.024-0.33,0.033-0.403,0.024c-0.074-0.011-0.168-0.009-0.21,0.002c-0.11,0.029-0.222,0.044-0.388,0.054
				c-0.076,0.004-0.155,0.022-0.175,0.038s-0.105,0.031-0.193,0.034c-0.087,0.002-0.229,0.036-0.32,0.074l-0.161,0.069l0.184-0.121
				c0.101-0.067,0.273-0.18,0.383-0.251c0.443-0.291,1.292-1.12,1.604-1.57c0.195-0.28,0.376-0.614,0.529-0.979
				c0.155-0.368,0.348-0.966,0.376-1.17c0.009-0.062,0.041-0.192,0.067-0.28c0.067-0.222,0.168-1.206,0.139-1.351
				c-0.013-0.063-0.02-0.195-0.013-0.289c0.011-0.207-0.038-0.461-0.144-0.74c-0.054-0.144-0.065-0.262-0.042-0.435
				c0.031-0.231,0.029-0.24-0.076-0.305c-0.128-0.076-0.372-0.034-0.527,0.094c-0.056,0.047-0.154,0.107-0.222,0.137
				c-0.217,0.096-1.134,0.787-1.158,0.869c-0.009,0.029-0.038,0.052-0.069,0.052c-0.07,0.002-0.793,0.65-0.943,0.847
				c-0.056,0.074-0.191,0.231-0.3,0.35c-0.11,0.119-0.211,0.244-0.227,0.278s-0.076,0.117-0.136,0.179
				c-0.139,0.148-0.368,0.466-0.377,0.527c-0.004,0.027-0.027,0.062-0.051,0.083c-0.025,0.021-0.063,0.083-0.09,0.144
				s-0.069,0.128-0.098,0.15c-0.029,0.022-0.05,0.062-0.047,0.087c0.002,0.025-0.034,0.13-0.081,0.233s-0.114,0.249-0.144,0.32
				c-0.031,0.072-0.085,0.188-0.121,0.253c-0.077,0.147-0.22,1.27-0.184,1.438c0.014,0.062,0.031,0.208,0.041,0.32
				c0.009,0.112,0.036,0.271,0.058,0.352c0.065,0.22,0.363,0.923,0.417,0.988c0.058,0.069,0.029,0.099-0.124,0.132
				c-0.061,0.014-0.114,0.038-0.116,0.056c-0.002,0.018-0.032,0.031-0.065,0.029c-0.033-0.002-0.134,0.034-0.229,0.081
				c-0.094,0.047-0.219,0.099-0.289,0.117c-0.067,0.018-0.164,0.067-0.218,0.112c-0.054,0.045-0.116,0.079-0.141,0.076
				c-0.024,0-0.166,0.058-0.311,0.132c-0.146,0.074-0.318,0.159-0.381,0.19c-0.067,0.031-0.125,0.083-0.143,0.121
				c-0.018,0.047-0.049,0.062-0.097,0.051c-0.042-0.009-0.087,0.014-0.121,0.058c-0.029,0.038-0.085,0.072-0.124,0.072
				c-0.079,0-0.609,0.334-1.257,0.789c-0.202,0.143-1.271,1.053-1.284,1.095c-0.006,0.021-0.123,0.137-0.26,0.258
				c-0.318,0.285-0.374,0.34-0.392,0.388c-0.009,0.022-0.074,0.083-0.148,0.137c-0.074,0.054-0.137,0.116-0.143,0.141
				c-0.007,0.025-0.029,0.061-0.052,0.081c-0.022,0.021-0.085,0.097-0.141,0.172c-0.056,0.076-0.139,0.177-0.188,0.229
				c-0.049,0.05-0.136,0.142-0.195,0.202c-0.058,0.061-0.119,0.142-0.134,0.175c-0.014,0.033-0.052,0.076-0.081,0.089
				c-0.029,0.014-0.087,0.09-0.125,0.168c-0.041,0.079-0.101,0.17-0.134,0.204c-0.034,0.034-0.074,0.087-0.09,0.119
				s-0.067,0.114-0.112,0.184c-0.047,0.069-0.114,0.179-0.155,0.242c-0.318,0.529-0.399,0.681-0.406,0.782
				c-0.004,0.065-0.022,0.132-0.038,0.146c-0.027,0.022-0.065,0.105-0.208,0.475c-0.079,0.202-0.197,0.708-0.177,0.762
				c0.009,0.029,0.004,0.063-0.013,0.076c-0.09,0.074-0.164,0.93-0.121,1.378c0.038,0.383,0.134,0.851,0.208,1.04 M419.555,256.21
				c0.07,0.022,0.142,0.056,0.155,0.072c0.014,0.018,0,0.25-0.034,0.522c-0.067,0.567-0.273,1.369-0.398,1.543
				c-0.125,0.175-0.191,0.159-0.208-0.051c-0.016-0.175-0.061-0.439-0.15-0.878c-0.061-0.293-0.298-0.831-0.41-0.923
				c-0.041-0.034-0.079-0.092-0.085-0.125c-0.007-0.034-0.141-0.273-0.298-0.531c-0.157-0.255-0.287-0.479-0.285-0.493
				c0.002-0.016,0.021-0.022,0.047-0.02c0.076,0.009,0.787,0.385,1.176,0.621C419.262,256.071,419.481,256.188,419.555,256.21z
				 M418.99,253.145c0.235-0.022,0.249-0.018,0.348,0.101c0.056,0.067,0.181,0.271,0.277,0.45c0.229,0.424,0.294,0.822,0.245,1.497
				l-0.027,0.375l-0.114-0.025c-0.112-0.022-0.354-0.13-0.748-0.327c-0.742-0.37-0.816-0.401-1.1-0.439
				c-0.164-0.022-0.354-0.056-0.424-0.076c-0.152-0.042-0.356-0.235-1.165-1.089c-0.119-0.125-0.287-0.296-0.378-0.383
				c-0.124-0.119-0.157-0.166-0.132-0.186c0.018-0.016,0.164,0,0.318,0.034c0.157,0.034,0.502,0.072,0.769,0.087
				s0.594,0.034,0.73,0.041C417.825,253.219,418.498,253.189,418.99,253.145z M414.937,251.354c0.17,0.016,0.556,0.069,0.854,0.119
				c0.3,0.049,0.724,0.114,0.943,0.141c0.491,0.063,0.699,0.11,0.943,0.22c0.287,0.127,0.661,0.365,0.838,0.531
				c0.087,0.083,0.17,0.159,0.181,0.168c0.013,0.011,0.016,0.022,0.004,0.031c-0.009,0.007-0.099,0.02-0.199,0.027
				c-0.101,0.007-0.386,0.036-0.636,0.062c-0.484,0.054-0.589,0.059-0.854,0.036c-0.096-0.007-0.181-0.004-0.195,0.007
				c-0.016,0.013-0.034,0.011-0.047-0.005c-0.051-0.065-1.033-0.112-1.272-0.062l-0.146,0.029l-0.34-0.314
				c-0.343-0.316-0.753-0.667-0.845-0.722c-0.027-0.016-0.09-0.074-0.135-0.125c-0.047-0.052-0.101-0.103-0.121-0.112
				C413.752,251.312,414.254,251.294,414.937,251.354z M412.71,251.738c0.175,0.029,1.355,0.872,1.9,1.353
				c0.101,0.09,0.251,0.224,0.334,0.296c0.081,0.072,0.34,0.338,0.573,0.587c0.724,0.775,0.796,0.852,0.921,0.957
				c0.067,0.058,0.134,0.103,0.152,0.105c0.058,0.004,0.134,0.125,0.123,0.19c-0.024,0.13,0.132,0.32,0.21,0.256
				c0.045-0.036,0.115,0.033,0.083,0.083c-0.016,0.025,0.011,0.061,0.096,0.121c0.104,0.074,0.117,0.096,0.097,0.168
				c-0.018,0.067-0.009,0.09,0.051,0.114c0.054,0.022,0.076,0.049,0.076,0.092c0,0.034,0.016,0.063,0.034,0.065
				c0.018,0.002,0.034,0.032,0.034,0.07c0,0.042,0.029,0.083,0.079,0.112c0.042,0.024,0.094,0.076,0.112,0.112
				c0.018,0.036,0.128,0.219,0.247,0.41s0.233,0.417,0.255,0.506c0.022,0.09,0.061,0.184,0.079,0.208
				c0.02,0.024,0.056,0.132,0.078,0.24c0.025,0.108,0.063,0.22,0.087,0.251s0.038,0.085,0.031,0.123
				c-0.007,0.036-0.004,0.081,0.007,0.094c0.014,0.016,0.027,0.09,0.031,0.168c0.007,0.081,0.018,0.175,0.025,0.22
				c0.038,0.202-0.099,0.296-0.392,0.269c-0.188-0.016-0.704-0.207-0.764-0.28c-0.016-0.02-0.148-0.092-0.296-0.159
				c-0.146-0.067-0.278-0.137-0.291-0.154c-0.034-0.041-0.341-0.208-0.52-0.285c-0.074-0.031-0.204-0.101-0.293-0.159
				c-0.087-0.056-0.278-0.155-0.417-0.219c-0.139-0.065-0.269-0.135-0.287-0.155c-0.027-0.034-0.197-0.125-0.513-0.275
				c-0.092-0.045-0.226-0.157-0.367-0.312c-0.121-0.132-0.33-0.354-0.462-0.49c-0.291-0.303-0.591-0.688-0.694-0.888
				c-0.042-0.083-0.114-0.222-0.161-0.316c-0.047-0.092-0.121-0.219-0.166-0.287c-0.085-0.128-0.3-0.708-0.293-0.789
				c0.002-0.029-0.014-0.074-0.036-0.101c-0.036-0.045-0.152-0.415-0.17-0.538c-0.054-0.408,0.016-1.201,0.127-1.456
				C412.528,251.827,412.62,251.722,412.71,251.738z M407.456,250.734c0.177,0.15,0.531,0.632,0.607,0.825
				c0.105,0.262,0.152,0.54,0.123,0.714c-0.069,0.415-0.186,0.813-0.32,1.089c-0.025,0.049-0.056,0.122-0.072,0.159
				c-0.031,0.072-0.096,0.094-0.134,0.047c-0.038-0.047-0.347-0.177-0.372-0.157c-0.013,0.011-0.036,0.002-0.054-0.02
				s-0.148-0.103-0.287-0.177c-0.202-0.11-0.3-0.188-0.482-0.39c-0.125-0.137-0.24-0.255-0.255-0.26
				c-0.029-0.011-0.197-0.323-0.273-0.516c-0.024-0.06-0.062-0.199-0.085-0.309c-0.022-0.107-0.052-0.213-0.065-0.226
				c-0.033-0.041-0.101-0.35-0.123-0.558c-0.022-0.219,0.074-1.051,0.135-1.143c0.062-0.097,0.101-0.09,0.439,0.094
				C406.714,250.163,407.068,250.404,407.456,250.734z M411.834,245.383c0.112-0.054,0.334-0.164,0.497-0.244
				c0.164-0.081,0.491-0.273,0.729-0.43c0.237-0.157,0.518-0.334,0.625-0.395c0.105-0.061,0.244-0.154,0.309-0.206
				c0.11-0.09,0.222-0.148,0.242-0.124c0.004,0.007-0.016,0.09-0.047,0.184c-0.074,0.23-0.157,0.401-0.266,0.551
				c-0.05,0.067-0.17,0.242-0.271,0.39c-0.101,0.148-0.278,0.37-0.395,0.493c-0.24,0.253-1.331,1.183-1.398,1.189
				c-0.065,0.007-0.329,0.144-0.513,0.262c-0.134,0.087-0.381,0.202-0.529,0.244c-0.062,0.018-0.166,0.061-0.229,0.092
				c-0.062,0.031-0.141,0.064-0.172,0.071c-0.168,0.041-0.338,0.101-0.441,0.155c-0.11,0.058-0.285,0.107-0.766,0.217
				c-0.124,0.029-0.247,0.067-0.269,0.087c-0.024,0.02-0.065,0.027-0.096,0.016c-0.029-0.011-0.125-0.004-0.215,0.014
				c-0.233,0.047-1.066,0.109-1.371,0.105l-0.144-0.002l0.206-0.144c0.114-0.079,0.249-0.168,0.305-0.202
				c0.054-0.034,0.277-0.175,0.5-0.316c0.401-0.258,0.699-0.426,1.109-0.627c0.269-0.132,0.988-0.504,1.073-0.556
				c0.034-0.02,0.087-0.047,0.117-0.058c0.217-0.079,0.32-0.13,0.333-0.168c0.009-0.027,0.038-0.045,0.072-0.045
				c0.032,0,0.227-0.103,0.433-0.231C411.464,245.585,411.724,245.437,411.834,245.383z M406.389,247.286
				c0.242-0.632,0.749-1.203,1.636-1.849c0.345-0.251,0.538-0.354,1.226-0.661c0.237-0.105,0.455-0.213,0.486-0.238
				c0.031-0.024,0.078-0.045,0.103-0.042c0.027,0.002,0.157-0.041,0.295-0.094c0.26-0.103,1.244-0.325,1.847-0.417
				c0.318-0.049,1.106-0.105,1.346-0.096c0.088,0.002,0.088,0.009-0.006,0.099c-0.056,0.054-0.188,0.146-0.298,0.208
				c-0.109,0.062-0.242,0.15-0.298,0.195c-0.056,0.047-0.119,0.076-0.141,0.07c-0.022-0.009-0.067,0.009-0.105,0.038
				c-0.036,0.029-0.186,0.109-0.333,0.179c-0.148,0.07-0.466,0.258-0.71,0.419c-0.244,0.161-0.524,0.333-0.623,0.385
				c-0.208,0.107-0.177,0.092-0.37,0.175c-0.152,0.065-0.477,0.244-0.621,0.338c-0.042,0.029-0.101,0.058-0.132,0.069
				c-0.094,0.031-0.455,0.208-0.603,0.298c-0.078,0.047-0.273,0.161-0.435,0.253c-0.159,0.092-0.374,0.229-0.475,0.3
				c-0.101,0.071-0.208,0.132-0.238,0.132c-0.029,0-0.105,0.029-0.163,0.067c-0.061,0.036-0.173,0.094-0.249,0.128
				c-0.076,0.033-0.202,0.112-0.28,0.177c-0.076,0.063-0.23,0.157-0.336,0.206c-0.105,0.049-0.257,0.148-0.333,0.22
				c-0.137,0.128-0.296,0.202-0.332,0.157C406.219,247.967,406.311,247.489,406.389,247.286z M402.979,242.177
				c0.099-0.056,0.269-0.161,0.385-0.239c0.195-0.13,0.206-0.135,0.182-0.052c-0.016,0.052-0.016,0.101-0.002,0.116
				c0.045,0.054,0.083,0.619,0.056,0.827c-0.016,0.116-0.041,0.37-0.054,0.556c-0.022,0.296-0.166,1.006-0.208,1.04
				c-0.006,0.007-0.029,0.078-0.049,0.157c-0.02,0.081-0.045,0.155-0.058,0.166s-0.038,0.087-0.058,0.172
				c-0.021,0.083-0.081,0.22-0.135,0.298c-0.054,0.079-0.119,0.2-0.144,0.267c-0.199,0.54-1.086,1.512-2.198,2.413
				c-0.441,0.356-0.479,0.383-0.551,0.352c-0.105-0.042-0.184-0.206-0.336-0.697c-0.125-0.406-0.132-0.457-0.099-0.872
				c0.031-0.388,0.058-0.498,0.233-0.921c0.354-0.854,0.392-0.917,1.118-1.824C401.438,243.47,402.629,242.374,402.979,242.177z"/>
		</g>
		
			<linearGradient id="SVGID_3_" gradientUnits="userSpaceOnUse" x1="196.9209" y1="-20.8379" x2="196.9209" y2="-93.6405" gradientTransform="matrix(0.56 0 0 -0.56 284.22 288.3805)">
			<stop  offset="0" style="stop-color:#C3922E"/>
			<stop  offset="0.0723" style="stop-color:#D19C2E"/>
			<stop  offset="0.1844" style="stop-color:#E2A72E"/>
			<stop  offset="0.3198" style="stop-color:#EDAF2E"/>
			<stop  offset="0.5401" style="stop-color:#F1B22E"/>
			<stop  offset="0.7161" style="stop-color:#E8AB2B"/>
			<stop  offset="0.9944" style="stop-color:#DA9F25"/>
		</linearGradient>
		<path fill="url(#SVGID_3_)" d="M396.257,268.054c-3.173-3.507-4.849-8.927-4.302-14.107c0.502-4.75,2.723-8.566,6.251-10.746
			l-0.562-0.909c-3.818,2.357-6.215,6.457-6.753,11.543c-0.619,5.853,1.461,12.01,5.299,15.687c0.022,0.02,0.045,0.04,0.065,0.061
			v-1.528H396.257z"/>
		<g>
			<g>
				
					<linearGradient id="SVGID_4_" gradientUnits="userSpaceOnUse" x1="205.7681" y1="-20.8369" x2="205.7681" y2="-93.6385" gradientTransform="matrix(0.56 0 0 -0.56 284.22 288.3805)">
					<stop  offset="0" style="stop-color:#C3922E"/>
					<stop  offset="0.0723" style="stop-color:#D19C2E"/>
					<stop  offset="0.1844" style="stop-color:#E2A72E"/>
					<stop  offset="0.3198" style="stop-color:#EDAF2E"/>
					<stop  offset="0.5401" style="stop-color:#F1B22E"/>
					<stop  offset="0.7161" style="stop-color:#E8AB2B"/>
					<stop  offset="0.9944" style="stop-color:#DA9F25"/>
				</linearGradient>
				<path fill="url(#SVGID_4_)" d="M401.583,234.853c-0.036-0.107-0.132-0.175-0.226-0.161c-0.119,0.018-2.951,0.455-4.06,2.758
					c-1.107,2.301-0.027,5.503,0.02,5.64c0.036,0.107,0.132,0.175,0.227,0.162c0.016-0.002,0.083-0.012,0.188-0.034
					c0.67-0.136,2.915-0.734,3.872-2.724C402.71,238.191,401.628,234.987,401.583,234.853z M401.652,238.662l-2.684,1.194
					c0.287-0.603,0.592-1.201,0.89-1.761l1.815-0.547C401.693,237.909,401.688,238.285,401.652,238.662z M399.681,237.492
					l-0.9-1.166c0.753-0.596,1.615-0.903,2.146-1.048C400.642,235.762,400.185,236.555,399.681,237.492z M401.632,237.06
					l-1.457,0.439c0.482-0.887,0.91-1.625,1.159-2.045C401.435,235.827,401.563,236.398,401.632,237.06z M397.655,237.703
					c0.208-0.435,0.493-0.795,0.809-1.098l1.002,1.295c-0.336,0.638-0.681,1.324-1.002,2.012l-1.093-1.389
					C397.438,238.24,397.527,237.964,397.655,237.703z M397.266,239.074l0.999,1.268c-0.298,0.666-0.562,1.32-0.759,1.922
					C397.326,241.525,397.109,240.281,397.266,239.074z M401.243,240.239c-0.798,1.661-2.662,2.276-3.433,2.465
					c0.204-0.666,0.506-1.42,0.854-2.189l2.908-1.295C401.502,239.571,401.397,239.916,401.243,240.239z"/>
			</g>
		</g>
	</g>
	<g>
		<g>
			
				<linearGradient id="SVGID_5_" gradientUnits="userSpaceOnUse" x1="514.9961" y1="-20.8364" x2="514.9961" y2="-93.6387" gradientTransform="matrix(0.56 0 0 -0.56 284.22 288.3805)">
				<stop  offset="0" style="stop-color:#C3922E"/>
				<stop  offset="0.0723" style="stop-color:#D19C2E"/>
				<stop  offset="0.1844" style="stop-color:#E2A72E"/>
				<stop  offset="0.3198" style="stop-color:#EDAF2E"/>
				<stop  offset="0.5401" style="stop-color:#F1B22E"/>
				<stop  offset="0.7161" style="stop-color:#E8AB2B"/>
				<stop  offset="0.9944" style="stop-color:#DA9F25"/>
			</linearGradient>
			<path fill="url(#SVGID_5_)" d="M579.96,276.893c-0.065-0.11-0.24-0.182-0.391-0.164c-0.056,0.007-0.137-0.044-0.255-0.166
				c-0.213-0.217-0.435-0.358-0.762-0.484c-0.648-0.249-1.414-0.3-2.479-0.166c-0.855,0.108-1.3,0.204-1.712,0.372
				c-0.104,0.042-0.239,0.096-0.296,0.121c-0.103,0.042-0.177,0.076-0.312,0.148c-0.037,0.02-0.152,0.076-0.255,0.125
				c-0.22,0.103-0.727,0.425-1.028,0.649c-0.117,0.087-0.306,0.224-0.424,0.307s-0.277,0.21-0.358,0.285
				c-0.083,0.074-0.159,0.125-0.175,0.114s-0.014-0.034,0.007-0.052c0.049-0.044,0.249-0.457,0.244-0.5
				c-0.002-0.022,0.052-0.121,0.119-0.217c0.066-0.096,0.121-0.204,0.116-0.235s0.049-0.139,0.116-0.235
				c0.067-0.096,0.13-0.22,0.137-0.269c0.007-0.049,0.036-0.125,0.065-0.166s0.096-0.197,0.152-0.352
				c0.056-0.155,0.134-0.37,0.179-0.489c0.178-0.481,0.235-0.69,0.209-0.757c-0.018-0.042,0.002-0.121,0.049-0.204
				c0.043-0.076,0.074-0.168,0.067-0.213c-0.005-0.043,0.018-0.168,0.052-0.278c0.033-0.11,0.074-0.267,0.087-0.35
				c0.014-0.083,0.04-0.202,0.061-0.265c0.021-0.065,0.045-0.157,0.059-0.212c0.016-0.074,0.064-0.114,0.19-0.168
				c0.222-0.092,0.362-0.229,0.779-0.755c0.193-0.244,0.391-0.466,0.443-0.502c0.055-0.036,0.105-0.089,0.119-0.123
				c0.012-0.034,0.142-0.222,0.291-0.424c0.15-0.202,0.267-0.381,0.265-0.403s0.031-0.062,0.081-0.092
				c0.047-0.029,0.083-0.076,0.078-0.103s0.05-0.096,0.121-0.15c0.152-0.121,0.445-0.511,0.464-0.621
				c0.007-0.045,0.065-0.159,0.128-0.258c0.163-0.26,0.407-1.04,0.35-1.111c-0.012-0.013-0.008-0.103,0.009-0.204
				c0.016-0.101,0.018-0.293,0.004-0.435c-0.033-0.363-0.036-0.428-0.011-0.509c0.011-0.038-0.009-0.206-0.045-0.376
				c-0.038-0.17-0.085-0.403-0.109-0.522c-0.05-0.251-0.263-0.686-0.372-0.762c-0.04-0.027-0.081-0.081-0.085-0.11
				c-0.005-0.031-0.065-0.116-0.135-0.188s-0.17-0.184-0.229-0.249c-0.056-0.065-0.269-0.249-0.476-0.415
				c-0.206-0.164-0.372-0.314-0.374-0.336c-0.002-0.021,0.012-0.105,0.029-0.186c0.038-0.173-0.009-0.278-0.147-0.332
				c-0.076-0.029-0.11-0.027-0.14,0.009c-0.02,0.027-0.109,0.058-0.199,0.069c-0.154,0.02-0.177,0.009-0.45-0.208
				c-0.168-0.134-0.475-0.32-0.737-0.45c-0.488-0.24-0.847-0.401-0.878-0.399c-0.012,0.002-0.069-0.022-0.128-0.056
				c-0.059-0.031-0.235-0.103-0.393-0.157c-0.156-0.054-0.412-0.161-0.566-0.24c-0.157-0.079-0.318-0.141-0.365-0.141
				c-0.059,0-0.099-0.036-0.133-0.114c-0.056-0.132-0.113-0.139-0.098-0.014c0.006,0.052-0.005,0.092-0.025,0.094
				c-0.02,0.002-0.026,0.052-0.016,0.105c0.025,0.125-0.042,0.459-0.116,0.583c-0.031,0.052-0.099,0.206-0.149,0.343
				c-0.052,0.137-0.146,0.385-0.211,0.556c-0.065,0.17-0.137,0.368-0.159,0.441c-0.022,0.074-0.139,0.417-0.258,0.767
				c-0.211,0.616-0.24,0.719-0.386,1.351c-0.203,0.874-0.253,1.418-0.194,2.157c0.101,1.306,0.748,2.944,1.449,3.664
				c0.438,0.446,1.188,0.948,1.515,1.011c0.105,0.02,0.199,0.047,0.211,0.061c0.016,0.02-0.067,0.28-0.54,1.667
				c-0.161,0.471-0.3,0.832-0.347,0.898c-0.019,0.027-0.136,0.24-0.256,0.473c-0.216,0.412-0.711,1.275-0.89,1.546
				c-0.13,0.197-0.175,0.139-0.104-0.13c0.19-0.724-0.011-1.56-0.535-2.211c-0.164-0.202-0.905-0.574-1.479-0.74
				c-0.18-0.051-0.448-0.134-0.601-0.184s-0.296-0.087-0.32-0.083c-0.052,0.007-0.271,0.65-0.356,1.035
				c-0.081,0.363-0.119,0.932-0.083,1.212c0.036,0.28,0.18,0.67,0.398,1.075c0.296,0.549,0.467,0.762,0.971,1.21
				c0.369,0.329,0.486,0.421,0.598,0.461c0.086,0.031,0.115,0.067,0.126,0.143c0.011,0.083-0.038,0.164-0.239,0.399
				c-0.137,0.162-0.318,0.359-0.399,0.432c-0.152,0.14-0.329,0.316-0.737,0.735c-0.477,0.488-1.636,1.466-2.095,1.766
				c-0.016,0.011-0.033,0.022-0.054,0.033v1.396c0.018-0.017,0.038-0.022,0.052-0.017c0.014,0.01,0.069-0.011,0.121-0.047
				c0.128-0.089,0.168-0.087,0.179,0c0.012,0.086,0.318,0.784,0.433,0.982c0.042,0.071,0.139,0.201,0.215,0.284
				s0.171,0.194,0.206,0.248c0.099,0.142,1.013,0.81,1.172,0.854c0.072,0.02,0.195,0.061,0.267,0.087
				c0.074,0.027,0.225,0.079,0.332,0.114c0.107,0.036,0.21,0.083,0.227,0.102c0.016,0.018,0.058,0.031,0.094,0.026
				c0.038-0.005,0.114,0.009,0.177,0.031s0.135,0.038,0.166,0.034c0.031-0.005,0.071,0.004,0.096,0.02
				c0.052,0.033,0.439,0.088,0.642,0.088c0.087,0,0.19,0.011,0.224,0.022c0.036,0.013,0.195,0.024,0.356,0.026
				s0.37,0.014,0.462,0.022c0.244,0.024,1.212-0.054,1.261-0.103c0.022-0.023,0.059-0.029,0.085-0.016
				c0.076,0.04,1.208-0.155,1.428-0.245c0.067-0.026,0.18-0.058,0.251-0.067c0.199-0.023,0.399-0.175,0.431-0.317
				c0.026-0.121,0.02-0.128-0.169-0.265c-0.143-0.101-0.221-0.193-0.286-0.33c-0.128-0.266-0.28-0.477-0.439-0.611
				c-0.071-0.061-0.163-0.156-0.199-0.208c-0.085-0.121-0.869-0.724-1.075-0.827c-0.083-0.04-0.197-0.107-0.249-0.143
				c-0.168-0.119-0.735-0.391-1.109-0.529c-0.369-0.139-0.736-0.237-1.073-0.286c-0.54-0.081-1.728-0.034-2.242,0.087
				c-0.128,0.031-0.327,0.078-0.444,0.104l-0.213,0.052l0.161-0.069c0.091-0.037,0.211-0.118,0.274-0.182
				c0.062-0.06,0.132-0.113,0.156-0.116c0.024-0.002,0.092-0.049,0.146-0.101c0.121-0.114,0.208-0.184,0.308-0.244
				c0.037-0.024,0.103-0.092,0.145-0.152c0.043-0.061,0.176-0.184,0.294-0.275c0.218-0.168,0.417-0.37,0.605-0.616
				c0.056-0.072,0.149-0.175,0.213-0.229c0.208-0.184,0.73-0.832,0.721-0.895c-0.002-0.018,0.014-0.036,0.038-0.038
				c0.025-0.002,0.126-0.114,0.227-0.249c0.102-0.134,0.197-0.244,0.215-0.247c0.019-0.002,0.128,0.081,0.244,0.184
				c0.117,0.103,0.312,0.24,0.431,0.302s0.265,0.144,0.32,0.177c0.097,0.059,0.341,0.146,0.585,0.209
				c0.054,0.013,0.144,0.038,0.208,0.056c0.114,0.031,0.253,0.052,0.609,0.085c0.249,0.024,0.832-0.014,1.343-0.085
				c0.4-0.056,0.495-0.076,1.01-0.217c0.166-0.046,0.335-0.09,0.372-0.1c0.102-0.024,0.327-0.132,0.444-0.208
				c0.054-0.035,0.134-0.069,0.177-0.076c0.042-0.004,0.109-0.038,0.146-0.071c0.038-0.034,0.144-0.092,0.237-0.128
				c0.095-0.036,0.204-0.094,0.244-0.128c0.04-0.036,0.142-0.079,0.227-0.099s0.168-0.051,0.186-0.069
				c0.019-0.018,0.095-0.063,0.171-0.097c0.076-0.036,0.168-0.096,0.204-0.134c0.036-0.038,0.132-0.116,0.215-0.176
				c0.085-0.059,0.173-0.128,0.199-0.157c0.027-0.029,0.104-0.092,0.175-0.146c0.069-0.051,0.18-0.132,0.249-0.184
				c0.269-0.197,0.343-0.269,0.338-0.316c-0.002-0.024,0.032-0.062,0.079-0.081c0.045-0.018,0.147-0.101,0.226-0.181
				c0.269-0.283,0.303-0.318,0.493-0.532c0.356-0.398,0.623-0.741,0.708-0.914C580.014,277.014,580.016,276.987,579.96,276.893z
				 M575.814,267.888c0,0-0.002,0.128-0.002,0.249c-0.002,0.244-0.086,0.679-0.19,0.975c-0.088,0.251-0.197,0.435-0.489,0.835
				c-0.13,0.177-0.374,0.531-0.544,0.782c-0.17,0.253-0.395,0.569-0.499,0.704c-0.427,0.54-0.783,0.892-0.731,0.721
				c0.007-0.02,0.007-0.096,0-0.166s-0.004-0.152,0.003-0.184c0.021-0.105,0.051-0.646,0.056-1.112l0.005-0.461l0.121-0.085
				c0.201-0.141,0.84-0.885,0.828-0.968c-0.002-0.02,0.01-0.034,0.029-0.036c0.019-0.002,0.081-0.062,0.142-0.137
				c0.165-0.206,0.241-0.28,0.613-0.596c0.193-0.164,0.408-0.352,0.484-0.419c0.076-0.069,0.146-0.125,0.159-0.125
				C575.808,267.861,575.814,267.872,575.814,267.888z M574.047,265.851c0.128-0.423,0.217-0.672,0.275-0.769l0.061-0.099
				l0.291,0.238c0.524,0.428,0.771,0.748,0.921,1.206c0.065,0.192,0.126,0.423,0.137,0.511c0.021,0.152,0.014,0.164-0.163,0.32
				c-0.372,0.327-0.854,0.795-1.011,0.981c-0.087,0.103-0.3,0.354-0.471,0.558c-0.173,0.204-0.381,0.481-0.464,0.618
				c-0.083,0.134-0.17,0.251-0.195,0.253c-0.033,0.005-0.045-0.051-0.045-0.224c0-0.125-0.009-0.367-0.02-0.538
				c-0.065-1.176-0.065-1.456,0.009-1.595c0.034-0.065,0.142-0.226,0.235-0.361C573.778,266.718,573.807,266.645,574.047,265.851z
				 M571.985,263.474c0.213,0.029,0.938,0.43,1.396,0.771c0.22,0.164,0.399,0.314,0.401,0.336c0.002,0.022-0.022,0.097-0.054,0.164
				c-0.034,0.067-0.099,0.307-0.148,0.538c-0.096,0.446-0.311,1.219-0.355,1.281c-0.016,0.022-0.034,0.029-0.047,0.021
				c-0.012-0.009-0.086-0.255-0.164-0.544c-0.078-0.292-0.159-0.554-0.182-0.583c-0.02-0.027-0.035-0.097-0.031-0.148
				c0.009-0.146-0.218-0.688-0.39-0.932c-0.258-0.368-0.419-0.581-0.533-0.712C571.738,263.503,571.772,263.442,571.985,263.474z
				 M571.857,272.777c-0.262-0.094-0.888-0.587-1.147-0.908c-0.078-0.096-0.267-0.434-0.275-0.493
				c-0.005-0.036-0.026-0.079-0.049-0.096c-0.065-0.052-0.339-0.605-0.372-0.755c-0.018-0.081-0.061-0.219-0.094-0.318
				c-0.036-0.099-0.088-0.245-0.119-0.334c-0.076-0.213-0.147-0.697-0.168-1.116c-0.009-0.19-0.027-0.495-0.04-0.672
				c-0.016-0.206-0.005-0.383,0.026-0.479c0.107-0.332,0.159-0.518,0.152-0.562c-0.002-0.024,0.036-0.168,0.085-0.313
				c0.05-0.146,0.108-0.352,0.128-0.455c0.021-0.105,0.059-0.246,0.088-0.322c0.066-0.182,0.156-0.522,0.149-0.574
				c-0.002-0.022,0.036-0.164,0.088-0.318c0.052-0.152,0.089-0.298,0.087-0.325c-0.011-0.094,0.206-0.601,0.322-0.749
				c0.185-0.23,0.346-0.267,0.467-0.101c0.027,0.036,0.088,0.11,0.141,0.168c0.055,0.058,0.099,0.121,0.102,0.139
				c0.002,0.018,0.031,0.052,0.064,0.072c0.034,0.02,0.062,0.067,0.069,0.108c0.005,0.038,0.061,0.143,0.121,0.235
				c0.062,0.092,0.116,0.19,0.121,0.222c0.005,0.029,0.05,0.122,0.097,0.2c0.049,0.081,0.137,0.318,0.192,0.536
				s0.114,0.421,0.128,0.459s0.016,0.11,0.007,0.159c-0.014,0.056-0.002,0.105,0.029,0.135c0.026,0.027,0.037,0.056,0.026,0.072
				c-0.011,0.013,0,0.044,0.022,0.069c0.031,0.029,0.036,0.065,0.016,0.119c-0.022,0.061-0.014,0.085,0.047,0.117
				c0.067,0.034,0.074,0.058,0.057,0.186c-0.014,0.105-0.01,0.148,0.021,0.155c0.059,0.011,0.063,0.11,0.005,0.119
				c-0.101,0.014-0.069,0.258,0.043,0.33c0.056,0.036,0.089,0.175,0.054,0.219c-0.012,0.014-0.022,0.094-0.029,0.184
				c-0.009,0.164-0.005,0.269,0.062,1.326c0.022,0.343,0.038,0.71,0.034,0.82c-0.002,0.11-0.009,0.309-0.014,0.446
				c-0.022,0.726-0.222,2.165-0.32,2.31C572.229,272.864,572.088,272.86,571.857,272.777z M566.816,284.159
				c1.416-0.19,2.733-0.166,3.262,0.059c0.065,0.026,0.199,0.062,0.292,0.078c0.092,0.016,0.235,0.064,0.309,0.107
				c0.076,0.045,0.15,0.078,0.166,0.076c0.016-0.003,0.088,0.031,0.159,0.071c0.071,0.041,0.139,0.074,0.147,0.072
				c0.057-0.007,0.668,0.376,0.898,0.562c0.146,0.116,0.346,0.273,0.441,0.34c0.171,0.124,0.554,0.538,0.562,0.607
				c0.003,0.021,0.041,0.054,0.088,0.079c0.076,0.04,0.067,0.047-0.161,0.099c-0.135,0.031-0.33,0.08-0.439,0.114
				c-0.383,0.118-1.996,0.232-2.597,0.184c-1.159-0.094-1.23-0.11-2.096-0.439c-0.428-0.163-0.526-0.22-0.828-0.462
				c-0.323-0.26-0.356-0.3-0.564-0.67c-0.252-0.447-0.316-0.615-0.276-0.724C566.209,284.244,566.254,284.233,566.816,284.159z
				 M569.164,278.748c-0.101,0.372-0.121,0.406-0.232,0.383c-0.11-0.02-0.78-0.517-0.923-0.688
				c-0.137-0.159-0.314-0.421-0.321-0.473c-0.002-0.021-0.059-0.112-0.121-0.202c-0.062-0.092-0.139-0.215-0.165-0.273
				c-0.085-0.186-0.2-0.522-0.187-0.551c0.007-0.016,0-0.179-0.014-0.365c-0.02-0.269-0.011-0.395,0.048-0.616
				c0.04-0.152,0.071-0.302,0.067-0.329c-0.005-0.029,0.006-0.052,0.021-0.054c0.034-0.005,0.15-0.316,0.144-0.376
				s0.054-0.094,0.128-0.065c0.038,0.014,0.112,0.038,0.166,0.056c0.293,0.092,0.663,0.28,1.013,0.516
				c0.147,0.099,0.315,0.325,0.435,0.58c0.087,0.188,0.192,0.775,0.182,1.006C569.375,277.805,569.306,278.23,569.164,278.748z
				 M578.407,277.729c-0.157,0.18-0.742,0.715-0.995,0.912c-0.479,0.375-1.315,0.937-1.57,1.056
				c-0.135,0.062-0.256,0.129-0.271,0.15c-0.016,0.02-0.063,0.04-0.104,0.047c-0.04,0.004-0.267,0.09-0.506,0.19
				c-0.697,0.289-0.903,0.358-1.322,0.437c-1.077,0.204-1.842,0.179-2.467-0.081c-0.202-0.083-0.611-0.343-0.618-0.392
				c-0.007-0.059,0.156-0.124,0.343-0.135c0.103-0.007,0.28-0.047,0.388-0.092s0.282-0.092,0.381-0.103
				c0.101-0.014,0.244-0.049,0.32-0.081c0.076-0.031,0.194-0.074,0.262-0.091c0.067-0.018,0.142-0.051,0.162-0.074
				c0.02-0.022,0.137-0.058,0.26-0.083c0.121-0.024,0.367-0.087,0.544-0.139c0.177-0.052,0.395-0.117,0.481-0.141
				c0.166-0.047,0.543-0.186,0.63-0.233c0.029-0.016,0.09-0.036,0.142-0.047c0.168-0.038,0.52-0.152,0.672-0.217
				c0.192-0.083,0.159-0.069,0.381-0.147c0.107-0.039,0.424-0.121,0.708-0.188c0.285-0.067,0.641-0.17,0.791-0.229
				s0.313-0.115,0.358-0.119c0.047-0.006,0.09-0.027,0.101-0.049c0.01-0.022,0.074-0.047,0.148-0.056
				c0.071-0.009,0.227-0.047,0.347-0.083c0.121-0.036,0.278-0.07,0.356-0.074C578.461,277.659,578.465,277.661,578.407,277.729z
				 M578.707,277.097c-0.083,0.011-0.246,0.047-0.363,0.083c-0.116,0.036-0.437,0.117-0.715,0.184
				c-0.277,0.065-0.643,0.17-0.813,0.233c-0.172,0.062-0.403,0.149-0.52,0.192c-0.116,0.042-0.4,0.13-0.634,0.192
				c-0.233,0.063-0.443,0.134-0.464,0.157c-0.022,0.024-0.056,0.034-0.081,0.022c-0.035-0.016-0.143,0.022-0.35,0.127
				c-0.028,0.013-0.082,0.036-0.123,0.045c-0.096,0.027-0.86,0.293-1.141,0.399c-0.426,0.159-0.754,0.26-1.216,0.375
				c-0.256,0.062-0.511,0.127-0.574,0.145c-0.062,0.018-0.22,0.054-0.356,0.083l-0.244,0.052l0.097-0.105
				c0.206-0.224,0.824-0.784,1.02-0.923c0.074-0.052,0.146-0.119,0.156-0.148c0.014-0.031,0.048-0.056,0.079-0.061
				s0.144-0.065,0.249-0.137c0.412-0.275,0.568-0.368,0.685-0.408c0.11-0.038,0.271-0.121,0.417-0.215
				c0.027-0.018,0.105-0.051,0.173-0.076c0.067-0.024,0.168-0.069,0.225-0.103c0.134-0.078,0.383-0.179,0.539-0.217
				c0.213-0.051,0.493-0.152,0.545-0.193c0.052-0.042,1.477-0.199,1.826-0.199c0.17,0,0.452,0.022,0.627,0.051
				c0.178,0.029,0.388,0.061,0.469,0.072c0.186,0.025,0.365,0.081,0.585,0.184c0.089,0.042,0.165,0.085,0.165,0.085
				C578.967,277.036,578.848,277.079,578.707,277.097z"/>
		</g>
		
			<linearGradient id="SVGID_6_" gradientUnits="userSpaceOnUse" x1="504.9883" y1="-20.835" x2="504.9883" y2="-93.6287" gradientTransform="matrix(0.56 0 0 -0.56 284.22 288.3805)">
			<stop  offset="0" style="stop-color:#C3922E"/>
			<stop  offset="0.0723" style="stop-color:#D19C2E"/>
			<stop  offset="0.1844" style="stop-color:#E2A72E"/>
			<stop  offset="0.3198" style="stop-color:#EDAF2E"/>
			<stop  offset="0.5401" style="stop-color:#F1B22E"/>
			<stop  offset="0.7161" style="stop-color:#E8AB2B"/>
			<stop  offset="0.9944" style="stop-color:#DA9F25"/>
		</linearGradient>
		<path fill="url(#SVGID_6_)" d="M568.523,289.191c-1.082,0.289-2.187,0.421-3.296,0.41v1.075c1.201,0.012,2.397-0.139,3.571-0.45
			L568.523,289.191z"/>
		<g>
			<g>
				
					<linearGradient id="SVGID_7_" gradientUnits="userSpaceOnUse" x1="514.6943" y1="-20.8379" x2="514.6943" y2="-93.6429" gradientTransform="matrix(0.56 0 0 -0.56 284.22 288.3805)">
					<stop  offset="0" style="stop-color:#C3922E"/>
					<stop  offset="0.0723" style="stop-color:#D19C2E"/>
					<stop  offset="0.1844" style="stop-color:#E2A72E"/>
					<stop  offset="0.3198" style="stop-color:#EDAF2E"/>
					<stop  offset="0.5401" style="stop-color:#F1B22E"/>
					<stop  offset="0.7161" style="stop-color:#E8AB2B"/>
					<stop  offset="0.9944" style="stop-color:#DA9F25"/>
				</linearGradient>
				<path fill="url(#SVGID_7_)" d="M572.823,288.587c-2.104-0.67-4.08,0.551-4.641,0.943c-0.087,0.061-0.141,0.103-0.152,0.113
					c-0.076,0.062-0.092,0.176-0.04,0.276c0.067,0.127,1.651,3.112,4.084,3.888c2.434,0.774,4.699-0.981,4.793-1.058
					c0.076-0.061,0.092-0.175,0.041-0.276C576.843,292.347,575.257,289.362,572.823,288.587z M575.012,290.556l-1.645,0.943
					c-0.609-0.17-1.254-0.358-1.891-0.564l2.711-1.129C574.486,290.038,574.762,290.294,575.012,290.556z M576.148,292.658
					c-0.471,0.286-1.286,0.701-2.236,0.84l-0.229-1.454C574.71,292.319,575.602,292.532,576.148,292.658z M576.303,292.239
					c-0.477-0.108-1.307-0.306-2.28-0.563l1.319-0.757C575.77,291.426,576.099,291.911,576.303,292.239z M571.345,293.014
					l-0.258-1.747c0.719,0.239,1.456,0.461,2.151,0.653l0.253,1.618c-0.438,0.022-0.895-0.02-1.354-0.166
					C571.862,293.283,571.598,293.16,571.345,293.014z M568.721,290.346c0.573,0.269,1.23,0.526,1.918,0.769l0.237,1.598
					C569.889,291.996,569.135,290.983,568.721,290.346z M573.729,289.482l-2.939,1.226c-0.798-0.275-1.556-0.573-2.178-0.885
					c0.667-0.43,2.393-1.36,4.149-0.8C573.102,289.131,573.424,289.29,573.729,289.482z"/>
			</g>
		</g>
	</g>
	
		<linearGradient id="SVGID_8_" gradientUnits="userSpaceOnUse" x1="446.5767" y1="-20.8384" x2="446.5767" y2="-93.6414" gradientTransform="matrix(0.56 0 0 -0.56 284.22 288.3805)">
		<stop  offset="0" style="stop-color:#C3922E"/>
		<stop  offset="0.0723" style="stop-color:#D19C2E"/>
		<stop  offset="0.1844" style="stop-color:#E2A72E"/>
		<stop  offset="0.3198" style="stop-color:#EDAF2E"/>
		<stop  offset="0.5401" style="stop-color:#F1B22E"/>
		<stop  offset="0.7161" style="stop-color:#E8AB2B"/>
		<stop  offset="0.9944" style="stop-color:#DA9F25"/>
	</linearGradient>
	<path fill="url(#SVGID_8_)" d="M508.11,260.723c0.554-0.352,1.084-0.677,1.611-0.986c0.056,0.292,0.272,0.614,0.658,0.986h1.855
		c-0.135-0.112-0.271-0.227-0.41-0.341c-0.405-0.336-0.684-0.562-0.878-0.708c0.822-0.031,1.6,0.042,2.312,0.217
		c0.461,0.124,1.364,0.365,1.953,0.832h1.328c-0.297-0.482-0.721-0.878-1.11-1.105c-0.642-0.381-1.371-0.666-2.176-0.851
		c-0.457-0.099-0.948-0.157-1.483-0.177c1.972-1.051,4.103-2.007,6.352-2.85c0.337,0.625,0.73,1.208,1.175,1.734
		c0.235,0.28,0.49,0.549,0.777,0.82c0.277,0.267,0.573,0.518,0.878,0.746c0.36,0.269,1.071,0.746,1.772,0.912
		c0.822,0.206,1.437-0.018,1.824-0.663c0.712-1.166-0.263-2.628-1.087-3.33c-0.421-0.363-0.91-0.663-1.494-0.919
		c-0.303-0.127-0.614-0.229-0.915-0.309l0.489-0.159l2.1-0.58c0.352-0.094,0.717-0.177,1.068-0.255
		c0.208-0.047,0.414-0.094,0.62-0.141l0.843-0.195l0.697-0.127c0.215,0.354,0.433,0.766,0.661,1.203
		c0.179,0.343,0.362,0.695,0.558,1.04c0.267,0.471,0.502,0.836,0.737,1.145c0.3,0.401,0.594,0.704,0.892,0.923
		c0.419,0.309,0.93,0.47,1.407,0.448c0.273-0.02,0.504-0.076,0.705-0.177c0.238-0.119,0.438-0.298,0.595-0.533
		c0.649-0.97,0.506-1.994-0.417-2.962c-0.188-0.2-0.415-0.399-0.668-0.594c-0.235-0.179-0.481-0.329-0.782-0.501
		c-0.28-0.157-0.578-0.305-0.896-0.446c0.836-0.114,1.699-0.23,2.56-0.289c0.889-0.099,1.804-0.135,2.687-0.17
		c0.156-0.007,0.313-0.014,0.47-0.021c0.007,0.607,0.099,1.215,0.273,1.811c0.195,0.667,0.484,1.302,0.863,1.889
		c0.181,0.28,0.667,0.986,1.259,1.495c0.688,0.627,1.298,0.807,1.862,0.549c0.568-0.26,0.889-0.833,0.925-1.662
		c0.031-0.715-0.165-1.43-0.358-1.86c-0.253-0.562-0.618-1.066-1.12-1.542c-0.251-0.235-0.502-0.441-0.746-0.61
		c-0.038-0.026-0.078-0.051-0.119-0.078c0.152,0.002,0.307,0.011,0.467,0.02c0.089,0.004,0.179,0.009,0.267,0.014l1.812,0.094
		l0.907,0.089c0.215,0.022,0.433,0.045,0.65,0.065c0.383,0.036,0.779,0.074,1.16,0.125l1.617,0.242
		c-0.02,0.627-0.028,1.407,0.043,2.173c0.085,0.916,0.267,1.671,0.561,2.308c0.226,0.493,0.56,0.932,0.912,1.201
		c0.49,0.394,0.994,0.493,1.494,0.289c1.23-0.493,1.355-2.211,1.14-3.245c-0.092-0.461-0.262-0.925-0.499-1.382
		c-0.109-0.208-0.237-0.421-0.381-0.634c-0.022-0.034-0.047-0.067-0.072-0.098c0.012,0.002,0.023,0.006,0.036,0.009l1.896,0.477
		c0.35,0.081,0.701,0.188,1.042,0.293l1.243,0.381v0.011l0.003,0.142c0.002,0.34,0.007,0.683,0.016,1.026
		c0.011,0.466,0.036,0.845,0.074,1.199c0.099,0.912,0.309,1.663,0.641,2.292c0.096,0.188,0.23,0.398,0.421,0.665
		c0.175,0.249,0.361,0.464,0.551,0.644h2.483c0.362-0.536,0.403-1.324,0.296-1.896c-0.11-0.583-0.33-1.169-0.671-1.797
		c-0.188-0.345-0.398-0.681-0.622-0.995l0.305,0.121c0.369,0.144,0.732,0.267,1.077,0.368c0.313,0.094,0.661,0.177,1.092,0.264
		c0.372,0.085,0.739,0.144,1.086,0.173c0.65,0.054,1.347-0.087,1.862-0.376c0.643-0.363,0.975-0.935,0.93-1.609l0,0
		c-0.04-0.596-0.388-1.111-1.004-1.492c-0.511-0.312-1.146-0.515-1.741-0.556c-0.833-0.076-1.745-0.016-2.713,0.182
		c-0.144,0.034-0.827,0.264-1.404,0.475c-0.305,0.112-0.599,0.222-0.818,0.307l-0.218,0.087c-0.068-0.054-0.149-0.089-0.236-0.101
		c-0.11-0.013-0.223,0.009-0.323,0.065c-1.717-0.551-3.718-1.154-5.832-1.586c0.367-0.052,0.757-0.124,1.174-0.21
		c0.741-0.15,1.438-0.376,2.068-0.668c0.577-0.269,1.102-0.724,1.368-1.188c0.361-0.632,0.263-1.289-0.267-1.801
		c-0.473-0.466-1.155-0.681-1.978-0.616c-0.187,0.016-0.356,0.038-0.522,0.074c-0.163,0.038-0.329,0.087-0.495,0.144
		c-0.289,0.096-0.58,0.219-0.867,0.363c-0.76,0.383-1.423,0.887-1.97,1.501c-0.488,0.558-0.887,1.201-1.183,1.914
		c-2.189-0.361-4.461-0.567-6.912-0.623l0.08-0.034c0.229-0.099,0.455-0.179,0.694-0.267c0.117-0.042,0.235-0.085,0.353-0.128
		c0.331-0.121,0.674-0.23,1.035-0.345c0.181-0.058,0.365-0.117,0.549-0.177c0.105-0.034,0.211-0.067,0.315-0.101
		c0.429-0.137,0.87-0.28,1.284-0.471c0.71-0.325,1.192-0.876,1.257-1.438c0.036-0.313-0.038-0.78-0.604-1.221
		c-0.316-0.244-0.701-0.396-1.147-0.453c-0.227-0.027-0.433-0.031-0.628-0.013c-0.197,0.02-0.407,0.058-0.62,0.11
		c-0.644,0.157-1.342,0.448-2.14,0.896c-0.758,0.448-1.432,1.006-2.006,1.658c-0.524,0.596-0.945,1.248-1.279,1.987l-1.738,0.072
		c-0.403,0.025-0.809,0.061-1.201,0.099c-0.222,0.02-0.443,0.041-0.67,0.061c-0.109,0.011-0.218,0.02-0.327,0.029
		c-0.204,0.018-0.407,0.034-0.611,0.061l-2.205,0.298c0.128-0.139,0.265-0.265,0.393-0.381c0.312-0.278,0.649-0.533,0.909-0.724
		l0.979-0.715c0.32-0.23,0.651-0.468,0.968-0.737c0.641-0.549,1.169-1.239,1.452-1.896c0.378-0.883,0.302-1.683-0.223-2.312
		c-0.551-0.663-1.317-0.887-2.159-0.634c-0.175,0.051-0.35,0.125-0.529,0.217c-0.149,0.083-0.307,0.188-0.481,0.325
		c-0.289,0.229-0.556,0.506-0.772,0.8c-1.296,1.728-2.125,3.935-2.407,6.39c-0.058,0.011-0.118,0.021-0.177,0.031
		c-0.208,0.036-0.419,0.074-0.628,0.121l-0.952,0.217c-0.186,0.045-0.371,0.085-0.558,0.128c-0.441,0.099-0.9,0.202-1.342,0.336
		c-0.235,0.067-0.473,0.132-0.708,0.197c-0.39,0.107-0.78,0.213-1.172,0.33l-1.181,0.383c0.43-0.576,0.935-1.295,1.25-1.958
		c0.312-0.65,0.39-1.174,0.235-1.602c-0.123-0.341-0.393-0.609-0.796-0.798c-0.327-0.155-0.645-0.206-0.945-0.157
		c-0.273,0.045-0.526,0.17-0.748,0.372c-0.37,0.336-0.65,0.874-0.836,1.598c-0.179,0.676-0.229,1.425-0.237,1.933
		c-0.012,0.576,0.022,1.042,0.062,1.318l-0.813,0.305c-0.296,0.11-0.601,0.222-0.892,0.354l-1.861,0.793l-1.983,0.948
		c-0.099,0.047-0.195,0.092-0.296,0.144l-0.596,0.32c0.132-0.204,0.264-0.415,0.392-0.625l0.04-0.065
		c0.273-0.448,0.534-0.872,0.695-1.309c0.437-1.154,0.092-1.974-1.026-2.438c-0.379-0.154-0.73-0.21-1.046-0.161
		c-0.152,0.022-0.299,0.072-0.439,0.146c-0.124,0.072-0.237,0.166-0.345,0.283c-0.353,0.385-0.579,0.992-0.673,1.803
		c-0.087,0.769-0.038,1.571,0.021,2.108c0.073,0.661,0.182,1.194,0.235,1.438c-0.825,0.48-1.676,1.008-2.536,1.571l-0.299,0.195
		l0.462,0.265h1.103V260.723z M559.053,254.012c0.407,0.009,1.044,0.157,1.47,0.428c0.217,0.141,0.343,0.296,0.372,0.459
		c0.031,0.177-0.048,0.388-0.229,0.623c-0.471,0.609-1.772,0.282-2.209,0.175c-0.604-0.125-1.217-0.298-1.829-0.509
		c-0.15-0.049-0.298-0.105-0.446-0.164c-0.149-0.058-0.3-0.114-0.449-0.166c-0.142-0.049-0.285-0.103-0.431-0.159
		C556.422,254.191,557.715,253.954,559.053,254.012z M553.619,255.246c0.511,0.583,0.992,1.143,1.397,1.755
		c0.348,0.556,0.581,1.026,0.737,1.483c0.097,0.267,0.168,0.544,0.209,0.823l0.007,0.029c0.044,0.15,0.047,0.267,0.004,0.318
		c-0.052,0.065-0.213,0.092-0.426,0.074l-0.089-0.007l-0.07,0.059c-0.147,0.125-0.272,0.186-0.362,0.172
		c-0.022-0.002-0.09-0.011-0.182-0.139l-0.022-0.027c-0.186-0.186-0.35-0.398-0.486-0.636c-0.229-0.372-0.392-0.789-0.516-1.309
		C553.621,257.005,553.612,256.116,553.619,255.246z M548.056,249.817c0.535-0.405,1.38-0.883,2.344-0.847h0.014h0.014
		c0.546-0.044,0.84,0.204,0.918,0.775c-0.179,0.352-0.464,0.596-0.885,0.751c-0.408,0.195-0.865,0.329-1.302,0.446
		c-0.119,0.031-0.237,0.061-0.365,0.089c-0.121,0.031-0.242,0.063-0.365,0.09c-0.242,0.054-0.488,0.101-0.73,0.137
		c-0.346,0.054-0.704,0.089-1.066,0.112C546.946,250.884,547.415,250.301,548.056,249.817z M546.212,253.167l0.322,0.065
		c0.578,0.581,0.957,1.067,1.226,1.564c0.305,0.592,0.469,1.161,0.486,1.692c0.024,0.71-0.054,1.057-0.585,1.226
		c-0.235,0.072-0.426,0.058-0.587-0.038c-0.291-0.175-0.513-0.647-0.661-1.405C546.221,255.267,546.2,253.98,546.212,253.167z
		 M538.3,249.159L538.3,249.159c0.374-0.313,0.803-0.581,1.383-0.863l0.058-0.029c1.014-0.495,2.224-0.562,2.38-0.565
		c1.616,0.583-0.307,1.089-0.307,1.089l-0.088,0.034l-0.037,0.018c-0.095,0.058-0.263,0.099-0.411,0.134
		c-0.101,0.025-0.196,0.047-0.281,0.076l-1.732,0.605l-0.74,0.265c-0.168,0.061-0.333,0.127-0.499,0.197
		c-0.081,0.033-0.161,0.067-0.242,0.101l-0.791,0.332C537.363,250.033,537.801,249.566,538.3,249.159z M538.172,253.662
		c0.486,0.435,0.827,0.876,1.043,1.352c0.118,0.26,0.201,0.522,0.239,0.755c0.103,0.623,0.103,0.623-0.419,0.824l-0.123,0.047
		c-0.155,0.061-0.303,0.121-0.344,0.112c-0.024-0.004-0.12-0.099-0.199-0.177l-0.139-0.137c-0.152-0.15-0.296-0.292-0.43-0.455
		c-0.33-0.394-0.604-0.835-0.818-1.313c-0.296-0.656-0.461-1.351-0.492-2.065C537.079,252.9,537.671,253.237,538.172,253.662z
		 M530.354,254.326L530.354,254.326c0.433,0.264,0.765,0.551,0.983,0.854c0.24,0.323,0.356,0.654,0.346,0.981
		c-0.011,0.345-0.087,0.589-0.218,0.708c-0.049,0.042-0.104,0.072-0.184,0.085c-0.071,0.016-0.154,0.018-0.246,0.005
		c-0.403-0.063-0.883-0.395-1.071-0.612c-0.22-0.251-0.395-0.571-0.564-0.881l-0.107-0.195c-0.356-0.639-0.708-1.255-1.068-1.869
		C528.957,253.613,529.75,253.954,530.354,254.326z M528.367,249.73c0.202-0.609,0.455-1.206,0.751-1.772
		c0.047-0.092,0.097-0.188,0.147-0.289c0.31-0.61,0.692-1.372,1.229-1.779c0.352-0.258,0.679-0.388,0.956-0.388
		c0.204,0,0.381,0.072,0.519,0.213c0.271,0.28,0.362,0.807,0.217,1.25c-0.097,0.298-0.284,0.618-0.54,0.932
		c-0.256,0.309-0.562,0.607-0.941,0.914c-0.34,0.28-0.703,0.56-1.077,0.831l-0.273,0.2c-0.438,0.318-0.886,0.643-1.293,1.017
		C528.146,250.474,528.249,250.095,528.367,249.73z M520.283,255.659c0.533,0.117,0.986,0.251,1.378,0.41
		c0.954,0.41,1.604,0.998,1.93,1.746c0.144,0.327,0.179,0.894-0.09,1.039c-0.13,0.07-0.322,0.083-0.554,0.036
		c-0.237-0.049-0.461-0.125-0.629-0.217c-0.381-0.202-0.787-0.498-1.275-0.928c-0.41-0.361-0.789-0.771-1.125-1.214
		c-0.258-0.336-0.49-0.692-0.696-1.062l0.345,0.054C519.829,255.567,520.063,255.612,520.283,255.659z M519.02,252.495
		c0.05-0.316,0.121-0.719,0.256-1.049l0.396-0.674c0.473-0.177,0.58-0.096,0.582-0.094c0.016,0.014,0.041,0.083,0.01,0.244
		l-0.007,0.036l0.004,0.036c0.069,0.468-0.307,0.963-0.639,1.4c-0.083,0.11-0.165,0.217-0.237,0.32
		c-0.135,0.193-0.28,0.401-0.428,0.614C518.959,253.04,518.979,252.762,519.02,252.495z M510.188,255.605l0.004-0.123
		c0.01-0.271,0.025-0.717,0.133-0.932c0.17-0.152,0.311-0.258,0.432-0.32c0.131-0.063,0.247-0.094,0.348-0.094
		c0.116,0,0.289,0.04,0.448,0.36c0.107,0.238,0.116,0.468,0.024,0.708l-0.011,0.036c-0.043,0.21-0.121,0.423-0.249,0.677
		c-0.099,0.202-0.227,0.41-0.398,0.656c-0.128,0.182-0.265,0.361-0.399,0.54c-0.083,0.107-0.165,0.217-0.246,0.327
		C510.188,256.792,510.158,256.188,510.188,255.605z"/>
	
		<linearGradient id="SVGID_9_" gradientUnits="userSpaceOnUse" x1="285.3926" y1="-20.8511" x2="285.3926" y2="-93.6667" gradientTransform="matrix(0.56 0 0 -0.56 284.22 288.3805)">
		<stop  offset="0" style="stop-color:#C3922E"/>
		<stop  offset="0.0723" style="stop-color:#D19C2E"/>
		<stop  offset="0.1844" style="stop-color:#E2A72E"/>
		<stop  offset="0.3198" style="stop-color:#EDAF2E"/>
		<stop  offset="0.5401" style="stop-color:#F1B22E"/>
		<stop  offset="0.7161" style="stop-color:#E8AB2B"/>
		<stop  offset="0.9944" style="stop-color:#DA9F25"/>
	</linearGradient>
	<path fill="url(#SVGID_9_)" d="M444.144,257.552c0,0-0.076-0.024-0.208-0.062c0.058,0.081,0.119,0.164,0.177,0.244
		C444.134,257.619,444.144,257.552,444.144,257.552z"/>
	<g>
		
			<linearGradient id="SVGID_10_" gradientUnits="userSpaceOnUse" x1="285.3926" y1="-20.918" x2="285.3926" y2="-93.798" gradientTransform="matrix(0.56 0 0 -0.56 284.22 288.3805)">
			<stop  offset="0" style="stop-color:#C3922E"/>
			<stop  offset="0.0723" style="stop-color:#D19C2E"/>
			<stop  offset="0.1844" style="stop-color:#E2A72E"/>
			<stop  offset="0.3198" style="stop-color:#EDAF2E"/>
			<stop  offset="0.5401" style="stop-color:#F1B22E"/>
			<stop  offset="0.7161" style="stop-color:#E8AB2B"/>
			<stop  offset="0.9944" style="stop-color:#DA9F25"/>
		</linearGradient>
		<path fill="url(#SVGID_10_)" d="M444.112,257.736c0.022-0.117,0.032-0.184,0.032-0.184s-0.076-0.024-0.208-0.062
			C443.996,257.572,444.056,257.653,444.112,257.736z"/>
		<g>
			
				<linearGradient id="SVGID_11_" gradientUnits="userSpaceOnUse" x1="285.3926" y1="-20.918" x2="285.3926" y2="-93.798" gradientTransform="matrix(0.56 0 0 -0.56 284.22 288.3805)">
				<stop  offset="0" style="stop-color:#C3922E"/>
				<stop  offset="0.0723" style="stop-color:#D19C2E"/>
				<stop  offset="0.1844" style="stop-color:#E2A72E"/>
				<stop  offset="0.3198" style="stop-color:#EDAF2E"/>
				<stop  offset="0.5401" style="stop-color:#F1B22E"/>
				<stop  offset="0.7161" style="stop-color:#E8AB2B"/>
				<stop  offset="0.9944" style="stop-color:#DA9F25"/>
			</linearGradient>
			<path fill="url(#SVGID_11_)" d="M444.112,257.736c0.022-0.117,0.032-0.184,0.032-0.184s-0.076-0.024-0.208-0.062
				C443.996,257.572,444.056,257.653,444.112,257.736z"/>
			
				<linearGradient id="SVGID_12_" gradientUnits="userSpaceOnUse" x1="264.9722" y1="-20.835" x2="264.9722" y2="-93.6357" gradientTransform="matrix(0.56 0 0 -0.56 284.22 288.3805)">
				<stop  offset="0" style="stop-color:#C3922E"/>
				<stop  offset="0.0723" style="stop-color:#D19C2E"/>
				<stop  offset="0.1844" style="stop-color:#E2A72E"/>
				<stop  offset="0.3198" style="stop-color:#EDAF2E"/>
				<stop  offset="0.5401" style="stop-color:#F1B22E"/>
				<stop  offset="0.7161" style="stop-color:#E8AB2B"/>
				<stop  offset="0.9944" style="stop-color:#DA9F25"/>
			</linearGradient>
			<path fill="url(#SVGID_12_)" d="M419.826,249.831c0.791,0.024,1.707-0.094,2.496-0.587c1.243-0.775,1.797-2.24,2.025-3.112
				c0.963,0.18,1.889,0.388,2.778,0.614c-0.408,0.09-0.815,0.24-1.192,0.475c-1.804,1.125-2.156,3.701-2.169,3.811l-0.045,0.354
				l0.338,0.117c0.058,0.02,0.865,0.289,1.88,0.32c0.791,0.024,1.707-0.094,2.496-0.587c1.425-0.887,1.942-2.68,2.104-3.448
				c1.304,0.468,2.514,0.99,3.639,1.555c-0.901-0.123-2.165-0.123-3.204,0.527c-1.804,1.125-2.156,3.701-2.169,3.811l-0.045,0.354
				l0.338,0.117c0.058,0.02,0.865,0.289,1.88,0.32c0.791,0.024,1.707-0.094,2.496-0.585c1.689-1.051,2.104-3.379,2.162-3.762
				c1.402,0.802,2.66,1.674,3.778,2.585c-0.908-0.155-2.306-0.217-3.442,0.491c-1.804,1.125-2.155,3.702-2.169,3.812l-0.044,0.354
				l0.338,0.116c0.058,0.02,0.865,0.289,1.88,0.32c0.791,0.025,1.707-0.094,2.496-0.584c1.45-0.903,1.961-2.743,2.113-3.489
				c1.134,1.044,2.106,2.128,2.947,3.22c-0.894-0.175-2.409-0.3-3.623,0.457c-1.347,0.84-1.884,2.489-2.075,3.318h0.903
				c0.197-0.739,0.654-1.965,1.633-2.574c1.093-0.682,2.59-0.441,3.271-0.28c-0.155,0.681-0.596,2.129-1.694,2.81
				c-0.025,0.016-0.052,0.029-0.079,0.043h1.355c0.715-0.812,1.069-1.844,1.23-2.494c0.567,0.84,1.056,1.676,1.481,2.494h1.651
				c-0.629-1.297-1.407-2.648-2.377-4c0.573-0.481,1.967-1.819,2.065-3.54c0.122-2.122-1.783-3.894-1.864-3.97l-0.262-0.242
				l-0.289,0.211c-0.09,0.065-2.185,1.609-2.306,3.73c-0.013,0.233,0.002,0.459,0.031,0.684c-0.529-0.542-1.096-1.073-1.703-1.596
				c0.656-0.629,1.636-1.794,1.716-3.224c0.121-2.122-1.784-3.894-1.864-3.97l-0.262-0.242l-0.289,0.211
				c-0.089,0.065-2.185,1.609-2.306,3.73c-0.027,0.478,0.052,0.937,0.186,1.365c-0.58-0.386-1.183-0.76-1.819-1.118
				c0.652-0.647,1.542-1.768,1.62-3.13c0.121-2.122-1.784-3.894-1.864-3.97l-0.262-0.242l-0.289,0.211
				c-0.089,0.065-2.185,1.609-2.306,3.73c-0.042,0.755,0.173,1.465,0.468,2.073c-0.938-0.423-1.934-0.816-2.984-1.179
				c0.634-0.562,1.829-1.826,1.92-3.413c0.121-2.122-1.784-3.894-1.864-3.968l-0.262-0.242l-0.289,0.21
				c-0.089,0.065-2.185,1.609-2.306,3.731c-0.074,1.272,0.583,2.417,1.138,3.148c-1.219-0.358-2.509-0.674-3.87-0.941
				c-0.181-0.036-0.363-0.074-0.546-0.108c-0.025-0.004-0.049-0.009-0.076-0.013c0.641-0.659,1.454-1.741,1.53-3.041
				c0.121-2.122-1.784-3.894-1.864-3.968l-0.262-0.242l-0.289,0.21c-0.089,0.065-2.185,1.609-2.306,3.73
				c-0.074,1.273,0.583,2.417,1.139,3.148c0.26,0.076,0.513,0.157,0.766,0.238c0.018,0.007,0.038,0.011,0.056,0.018
				c-0.908-0.15-2.286-0.204-3.408,0.495c-1.804,1.123-2.155,3.701-2.169,3.811l-0.045,0.354l0.338,0.117
				C418.004,249.53,418.811,249.799,419.826,249.831z M444.112,257.736c-0.058-0.081-0.119-0.164-0.177-0.245
				c0.132,0.036,0.208,0.063,0.208,0.063S444.134,257.619,444.112,257.736z M443.424,252.961c0.074-1.284,1.132-2.371,1.656-2.832
				c0.468,0.52,1.396,1.721,1.322,3.004c-0.074,1.284-1.131,2.371-1.656,2.833C444.275,255.444,443.35,254.245,443.424,252.961z
				 M438.008,256.474c-1.093,0.681-2.59,0.441-3.271,0.28c0.154-0.681,0.598-2.128,1.694-2.81c1.093-0.681,2.59-0.441,3.271-0.28
				C439.548,254.346,439.104,255.791,438.008,256.474z M440.401,245.719c0.468,0.52,1.396,1.721,1.322,3.005
				c-0.067,1.183-0.97,2.196-1.521,2.711c-0.047,0.045-0.092,0.085-0.135,0.121c-0.134-0.15-0.309-0.358-0.486-0.607
				c-0.435-0.614-0.89-1.483-0.836-2.397C438.82,247.268,439.877,246.183,440.401,245.719z M433.01,253.145
				c-1.093,0.681-2.59,0.441-3.271,0.28c0.155-0.681,0.596-2.128,1.694-2.81c1.094-0.681,2.59-0.441,3.271-0.28
				C434.551,251.014,434.107,252.461,433.01,253.145z M434.009,245.397c0.074-1.284,1.132-2.371,1.656-2.833
				c0.468,0.52,1.396,1.721,1.322,3.005c-0.069,1.206-1.004,2.236-1.553,2.74c-0.036,0.034-0.069,0.065-0.103,0.092
				c-0.065-0.072-0.141-0.159-0.22-0.258C434.621,247.543,433.944,246.501,434.009,245.397z M428.69,242.607
				c0.074-1.284,1.131-2.371,1.656-2.833c0.468,0.52,1.396,1.719,1.322,3.005c-0.074,1.284-1.131,2.371-1.656,2.834
				C429.542,245.092,428.616,243.898,428.69,242.607z M429.665,247.687c-0.155,0.684-0.601,2.131-1.694,2.812
				c-1.094,0.681-2.59,0.441-3.271,0.28c0.155-0.681,0.599-2.129,1.694-2.81C427.487,247.286,428.983,247.523,429.665,247.687z
				 M422.143,241.381c0.074-1.284,1.131-2.371,1.656-2.832c0.468,0.52,1.396,1.719,1.322,3.005
				c-0.074,1.284-1.131,2.371-1.656,2.834C422.994,243.869,422.069,242.672,422.143,241.381z M420.283,245.973
				c0.932-0.581,2.155-0.493,2.919-0.352c0.132,0.025,0.251,0.049,0.352,0.074c-0.021,0.085-0.043,0.184-0.072,0.291
				c-0.204,0.742-0.664,1.922-1.623,2.521c-1.093,0.681-2.588,0.441-3.269,0.28C418.746,248.101,419.192,246.651,420.283,245.973z"
				/>
		</g>
	</g>
	<g>
		<g>
			
				<linearGradient id="SVGID_13_" gradientUnits="userSpaceOnUse" x1="185.5518" y1="-20.8369" x2="185.5518" y2="-93.6393" gradientTransform="matrix(0.56 0 0 -0.56 284.22 288.3805)">
				<stop  offset="0" style="stop-color:#C3922E"/>
				<stop  offset="0.0723" style="stop-color:#D19C2E"/>
				<stop  offset="0.1844" style="stop-color:#E2A72E"/>
				<stop  offset="0.3198" style="stop-color:#EDAF2E"/>
				<stop  offset="0.5401" style="stop-color:#F1B22E"/>
				<stop  offset="0.7161" style="stop-color:#E8AB2B"/>
				<stop  offset="0.9944" style="stop-color:#DA9F25"/>
			</linearGradient>
			<path fill="url(#SVGID_13_)" d="M396.257,296.278c-0.235,0.168-0.495,0.31-0.778,0.398c-1.223,0.397-2.619-0.196-3.24-0.52
				c0.316-0.625,1.098-1.922,2.321-2.318c0.56-0.182,1.154-0.155,1.696-0.043v-2.429c-0.323-0.3-0.643-0.609-0.961-0.935
				c0.132-0.056,0.509-0.229,0.961-0.518v-1.071c-0.372,0.29-0.74,0.505-0.995,0.637c-0.329-0.616-0.938-2.005-0.558-3.235
				c0.262-0.845,0.948-1.481,1.553-1.904v-1.037c-0.791,0.461-1.972,1.346-2.386,2.682c-0.363,1.172-0.045,2.393,0.302,3.233
				c-0.829-0.945-1.64-1.983-2.424-3.128c0.704-0.353,2.308-1.307,2.805-2.909c0.276-0.887,0.159-1.806-0.065-2.562
				c-0.287-0.975-0.753-1.688-0.786-1.739l-0.197-0.298l-0.332,0.134c-0.103,0.041-2.507,1.033-3.139,3.062
				c-0.132,0.426-0.172,0.856-0.157,1.273c-0.446-0.803-0.878-1.646-1.297-2.532c0.786-0.441,2.063-1.347,2.498-2.745
				c0.276-0.887,0.159-1.806-0.065-2.563c-0.287-0.975-0.753-1.687-0.787-1.739l-0.197-0.298l-0.332,0.134
				c-0.103,0.041-2.507,1.033-3.139,3.063c-0.392,1.264,0.009,2.583,0.383,3.424c-0.011-0.018-0.022-0.034-0.031-0.052
				c-0.141-0.224-0.285-0.45-0.423-0.681c-0.847-0.352-2.12-0.697-3.334-0.305c-2.023,0.654-2.987,3.072-3.025,3.175l-0.13,0.331
				l0.3,0.193c0.092,0.061,2.29,1.454,4.311,0.8c1.239-0.401,2.08-1.464,2.555-2.25c0.011,0.022,0.02,0.047,0.031,0.069
				c0.081,0.171,0.161,0.334,0.242,0.502c0.603,1.25,1.235,2.42,1.891,3.507c-0.847-0.352-2.119-0.697-3.334-0.305
				c-2.023,0.654-2.986,3.071-3.024,3.175l-0.13,0.332l0.3,0.192c0.092,0.061,2.29,1.454,4.311,0.8
				c1.512-0.488,2.431-1.965,2.816-2.72c0.616,0.923,1.248,1.785,1.896,2.588c-0.661-0.135-1.402-0.164-2.122,0.069
				c-2.023,0.654-2.987,3.071-3.025,3.175l-0.13,0.334l0.301,0.192c0.092,0.061,2.29,1.454,4.311,0.8
				c1.297-0.419,2.158-1.564,2.619-2.359c0.509,0.524,1.024,1.015,1.542,1.479c-0.448-0.022-0.912,0.019-1.367,0.166
				c-2.023,0.654-2.986,3.072-3.024,3.175l-0.13,0.332l0.3,0.192c0.092,0.061,2.29,1.454,4.311,0.8
				c0.177-0.059,0.347-0.13,0.509-0.211V296.278L396.257,296.278z M384.342,282.428c-1.224,0.396-2.619-0.198-3.24-0.521
				c0.316-0.625,1.098-1.922,2.321-2.319c1.23-0.399,2.622,0.195,3.24,0.518C386.352,280.733,385.567,282.03,384.342,282.428z
				 M387.954,279.866c-0.049-0.092-0.103-0.199-0.159-0.323c-0.327-0.704-0.724-1.864-0.396-2.913
				c0.381-1.228,1.669-2.025,2.292-2.349c0.329,0.619,0.939,2.006,0.556,3.233c-0.336,1.078-1.36,1.822-2.028,2.207
				C388.119,279.779,388.032,279.826,387.954,279.866z M387.185,288.454c-1.224,0.396-2.62-0.196-3.24-0.52
				c0.316-0.625,1.098-1.923,2.321-2.319c1.23-0.398,2.622,0.195,3.24,0.518C389.192,286.758,388.408,288.058,387.185,288.454z
				 M390.871,282.04c0.383-1.235,1.669-2.031,2.29-2.351c0.33,0.619,0.939,2.005,0.558,3.236c-0.381,1.228-1.669,2.025-2.292,2.348
				C391.097,284.656,390.487,283.27,390.871,282.04z M393.488,290.697c-0.35,0.658-1.109,1.823-2.258,2.195
				c-1.224,0.396-2.619-0.197-3.24-0.52c0.316-0.625,1.098-1.922,2.321-2.318c1.053-0.341,2.231,0.051,2.936,0.371
				c0.114,0.052,0.217,0.104,0.304,0.148C393.533,290.612,393.51,290.654,393.488,290.697z"/>
		</g>
	</g>
	<g>
		
			<linearGradient id="SVGID_14_" gradientUnits="userSpaceOnUse" x1="383.5952" y1="-20.8408" x2="383.5952" y2="-93.6459" gradientTransform="matrix(0.56 0 0 -0.56 284.22 288.3805)">
			<stop  offset="0" style="stop-color:#C3922E"/>
			<stop  offset="0.0723" style="stop-color:#D19C2E"/>
			<stop  offset="0.1844" style="stop-color:#E2A72E"/>
			<stop  offset="0.3198" style="stop-color:#EDAF2E"/>
			<stop  offset="0.5401" style="stop-color:#F1B22E"/>
			<stop  offset="0.7161" style="stop-color:#E8AB2B"/>
			<stop  offset="0.9944" style="stop-color:#DA9F25"/>
		</linearGradient>
		<path fill="url(#SVGID_14_)" d="M495.718,260.723c0.02-3.2,0.689-9.648,3.729-11.196c0.701-0.356,1.967-0.782,2.599,0.36
			c0.715,1.297,0.247,3.973-2.135,5.384c-0.585,0.347-0.763,0.056-0.83-0.056c-0.307-0.511-0.244-1.911,1.279-2.828l-0.724-1.203
			c-2.022,1.214-2.545,3.437-1.763,4.75c0.479,0.8,1.515,1.275,2.749,0.542c2.955-1.752,3.769-5.236,2.65-7.269
			c-0.398-0.722-1.103-1.329-2.086-1.454c-0.665-0.085-1.463,0.052-2.382,0.52c-4.051,2.066-4.468,9.841-4.492,12.447h1.405V260.723
			z"/>
	</g>
	
		<linearGradient id="SVGID_15_" gradientUnits="userSpaceOnUse" x1="350.9419" y1="-20.8364" x2="350.9419" y2="-93.6384" gradientTransform="matrix(0.56 0 0 -0.56 284.22 288.3805)">
		<stop  offset="0" style="stop-color:#C3922E"/>
		<stop  offset="0.0723" style="stop-color:#D19C2E"/>
		<stop  offset="0.1844" style="stop-color:#E2A72E"/>
		<stop  offset="0.3198" style="stop-color:#EDAF2E"/>
		<stop  offset="0.5401" style="stop-color:#F1B22E"/>
		<stop  offset="0.7161" style="stop-color:#E8AB2B"/>
		<stop  offset="0.9944" style="stop-color:#DA9F25"/>
	</linearGradient>
	<polygon fill="url(#SVGID_15_)" points="395.283,259.981 395.283,307.949 404.78,307.949 404.78,305.519 397.711,305.519 
		397.711,262.41 563.782,262.41 563.782,305.496 556.801,305.496 556.801,307.928 566.211,307.928 566.211,259.981 	"/>
	<g>
		
			<linearGradient id="SVGID_16_" gradientUnits="userSpaceOnUse" x1="235.2642" y1="-20.8379" x2="235.2642" y2="-93.64" gradientTransform="matrix(0.56 0 0 -0.56 284.22 288.3805)">
			<stop  offset="0" style="stop-color:#C3922E"/>
			<stop  offset="0.0723" style="stop-color:#D19C2E"/>
			<stop  offset="0.1844" style="stop-color:#E2A72E"/>
			<stop  offset="0.3198" style="stop-color:#EDAF2E"/>
			<stop  offset="0.5401" style="stop-color:#F1B22E"/>
			<stop  offset="0.7161" style="stop-color:#E8AB2B"/>
			<stop  offset="0.9944" style="stop-color:#DA9F25"/>
		</linearGradient>
		<path fill="url(#SVGID_16_)" d="M409.355,300.446c0-0.37,0.3-0.67,0.67-0.67h6.158c1.001,0,1.895,0.139,2.684,0.417
			c0.789,0.279,1.456,0.674,2.005,1.183c0.549,0.509,0.97,1.118,1.266,1.826c0.293,0.708,0.441,1.492,0.441,2.35v0.05
			c0,0.971-0.175,1.822-0.524,2.552c-0.352,0.731-0.833,1.345-1.445,1.838s-1.329,0.864-2.149,1.111
			c-0.818,0.246-1.696,0.369-2.635,0.369h-2.792v4.34c0,0.37-0.3,0.671-0.67,0.671h-2.339c-0.37,0-0.67-0.301-0.67-0.671V300.446
			L409.355,300.446z M415.941,308.201c0.921,0,1.638-0.242,2.149-0.727c0.508-0.486,0.762-1.087,0.762-1.804v-0.047
			c0-0.827-0.267-1.456-0.8-1.887c-0.534-0.43-1.262-0.643-2.185-0.643h-2.838v5.106H415.941z"/>
		
			<linearGradient id="SVGID_17_" gradientUnits="userSpaceOnUse" x1="262.6396" y1="-20.8379" x2="262.6396" y2="-93.64" gradientTransform="matrix(0.56 0 0 -0.56 284.22 288.3805)">
			<stop  offset="0" style="stop-color:#C3922E"/>
			<stop  offset="0.0723" style="stop-color:#D19C2E"/>
			<stop  offset="0.1844" style="stop-color:#E2A72E"/>
			<stop  offset="0.3198" style="stop-color:#EDAF2E"/>
			<stop  offset="0.5401" style="stop-color:#F1B22E"/>
			<stop  offset="0.7161" style="stop-color:#E8AB2B"/>
			<stop  offset="0.9944" style="stop-color:#DA9F25"/>
		</linearGradient>
		<path fill="url(#SVGID_17_)" d="M425.965,299.776h2.337c0.37,0,0.67,0.3,0.67,0.67v12.048c0,0.369,0.3,0.67,0.67,0.67h6.988
			c0.37,0,0.67,0.3,0.67,0.67v1.978c0,0.37-0.3,0.671-0.67,0.671h-10.665c-0.37,0-0.67-0.301-0.67-0.671v-15.365
			C425.295,300.076,425.596,299.776,425.965,299.776z"/>
		
			<linearGradient id="SVGID_18_" gradientUnits="userSpaceOnUse" x1="289.6372" y1="-20.8379" x2="289.6372" y2="-93.64" gradientTransform="matrix(0.56 0 0 -0.56 284.22 288.3805)">
			<stop  offset="0" style="stop-color:#C3922E"/>
			<stop  offset="0.0723" style="stop-color:#D19C2E"/>
			<stop  offset="0.1844" style="stop-color:#E2A72E"/>
			<stop  offset="0.3198" style="stop-color:#EDAF2E"/>
			<stop  offset="0.5401" style="stop-color:#F1B22E"/>
			<stop  offset="0.7161" style="stop-color:#E8AB2B"/>
			<stop  offset="0.9944" style="stop-color:#DA9F25"/>
		</linearGradient>
		<path fill="url(#SVGID_18_)" d="M440.737,299.776h11.237c0.37,0,0.67,0.3,0.67,0.67v1.929c0,0.37-0.3,0.67-0.67,0.67h-7.609
			c-0.37,0-0.67,0.301-0.67,0.67v2.051c0,0.369,0.3,0.67,0.67,0.67h6.536c0.37,0,0.67,0.3,0.67,0.669v1.93
			c0,0.37-0.3,0.67-0.67,0.67h-6.536c-0.37,0-0.67,0.301-0.67,0.67v2.169c0,0.37,0.3,0.67,0.67,0.67h7.73
			c0.37,0,0.67,0.301,0.67,0.67v1.929c0,0.37-0.3,0.671-0.67,0.671h-11.358c-0.369,0-0.67-0.301-0.67-0.671v-15.365
			C440.067,300.076,440.368,299.776,440.737,299.776z"/>
		
			<linearGradient id="SVGID_19_" gradientUnits="userSpaceOnUse" x1="320.1108" y1="-20.8374" x2="320.1108" y2="-93.6413" gradientTransform="matrix(0.56 0 0 -0.56 284.22 288.3805)">
			<stop  offset="0" style="stop-color:#C3922E"/>
			<stop  offset="0.0723" style="stop-color:#D19C2E"/>
			<stop  offset="0.1844" style="stop-color:#E2A72E"/>
			<stop  offset="0.3198" style="stop-color:#EDAF2E"/>
			<stop  offset="0.5401" style="stop-color:#F1B22E"/>
			<stop  offset="0.7161" style="stop-color:#E8AB2B"/>
			<stop  offset="0.9944" style="stop-color:#DA9F25"/>
		</linearGradient>
		<path fill="url(#SVGID_19_)" d="M462.231,299.657h2.503c0.269,0,0.511,0.161,0.616,0.408l6.986,16.417h-3.39
			c-0.273,0-0.518-0.166-0.621-0.417l-1.188-2.913c-0.103-0.253-0.347-0.417-0.621-0.417h-6.164c-0.273,0-0.518,0.166-0.621,0.417
			l-1.188,2.913c-0.103,0.253-0.348,0.417-0.621,0.417h-3.298l6.988-16.417C461.721,299.816,461.963,299.657,462.231,299.657z
			 M465.274,308.565l-1.221-2.979c-0.226-0.556-1.013-0.556-1.239,0l-1.221,2.979c-0.182,0.442,0.143,0.924,0.621,0.924h2.442
			C465.131,309.491,465.456,309.008,465.274,308.565z"/>
		
			<linearGradient id="SVGID_20_" gradientUnits="userSpaceOnUse" x1="350.541" y1="-20.8369" x2="350.541" y2="-93.6417" gradientTransform="matrix(0.56 0 0 -0.56 284.22 288.3805)">
			<stop  offset="0" style="stop-color:#C3922E"/>
			<stop  offset="0.0723" style="stop-color:#D19C2E"/>
			<stop  offset="0.1844" style="stop-color:#E2A72E"/>
			<stop  offset="0.3198" style="stop-color:#EDAF2E"/>
			<stop  offset="0.5401" style="stop-color:#F1B22E"/>
			<stop  offset="0.7161" style="stop-color:#E8AB2B"/>
			<stop  offset="0.9944" style="stop-color:#DA9F25"/>
		</linearGradient>
		<path fill="url(#SVGID_20_)" d="M480.878,316.722c-1.272,0-2.521-0.22-3.746-0.656c-1.02-0.365-1.961-0.89-2.826-1.579
			c-0.292-0.231-0.323-0.671-0.083-0.957l1.331-1.596c0.229-0.273,0.627-0.307,0.915-0.097c0.603,0.441,1.216,0.805,1.841,1.089
			c0.802,0.365,1.683,0.549,2.637,0.549c0.762,0,1.355-0.139,1.777-0.416c0.421-0.28,0.634-0.666,0.634-1.158v-0.047
			c0-0.24-0.045-0.448-0.132-0.635c-0.09-0.182-0.256-0.354-0.505-0.513c-0.246-0.159-0.589-0.318-1.028-0.478
			s-1.011-0.327-1.712-0.502c-0.845-0.206-1.611-0.438-2.296-0.69s-1.268-0.568-1.748-0.943c-0.479-0.374-0.847-0.837-1.111-1.396
			c-0.262-0.558-0.395-1.25-0.395-2.077v-0.049c0-0.762,0.141-1.452,0.426-2.064c0.287-0.611,0.684-1.142,1.197-1.586
			c0.515-0.446,1.126-0.788,1.841-1.026c0.715-0.239,1.501-0.358,2.357-0.358c1.226,0,2.353,0.182,3.377,0.549
			c1.028,0.365,1.967,0.89,2.827,1.575l-1.909,2.77c-0.748-0.511-1.481-0.912-2.195-1.205c-0.718-0.294-1.432-0.443-2.149-0.443
			c-0.717,0-1.254,0.139-1.613,0.418c-0.356,0.278-0.536,0.624-0.536,1.038v0.047c0,0.271,0.051,0.507,0.155,0.703
			c0.103,0.2,0.292,0.379,0.564,0.538c0.273,0.159,0.643,0.31,1.112,0.453c0.47,0.141,1.063,0.309,1.78,0.499
			c0.846,0.225,1.601,0.475,2.264,0.753c0.661,0.28,1.221,0.611,1.674,1.002c0.455,0.39,0.8,0.847,1.03,1.373
			c0.231,0.527,0.348,1.154,0.348,1.887v0.047c0,0.829-0.15,1.564-0.45,2.207c-0.301,0.644-0.72,1.188-1.257,1.622
			c-0.538,0.439-1.179,0.773-1.925,1.002C482.612,316.605,481.785,316.722,480.878,316.722z"/>
		
			<linearGradient id="SVGID_21_" gradientUnits="userSpaceOnUse" x1="380.3325" y1="-20.8379" x2="380.3325" y2="-93.6383" gradientTransform="matrix(0.56 0 0 -0.56 284.22 288.3805)">
			<stop  offset="0" style="stop-color:#C3922E"/>
			<stop  offset="0.0723" style="stop-color:#D19C2E"/>
			<stop  offset="0.1844" style="stop-color:#E2A72E"/>
			<stop  offset="0.3198" style="stop-color:#EDAF2E"/>
			<stop  offset="0.5401" style="stop-color:#F1B22E"/>
			<stop  offset="0.7161" style="stop-color:#E8AB2B"/>
			<stop  offset="0.9944" style="stop-color:#DA9F25"/>
		</linearGradient>
		<path fill="url(#SVGID_21_)" d="M497.156,316.744c-2.243,0-4.009-0.621-5.297-1.862c-1.291-1.239-1.934-3.094-1.934-5.559v-8.877
			c0-0.37,0.3-0.67,0.67-0.67h2.337c0.369,0,0.67,0.3,0.67,0.67v8.78c0,1.369,0.318,2.398,0.954,3.09
			c0.639,0.693,1.521,1.038,2.65,1.038c1.13,0,2.013-0.332,2.648-1.002c0.637-0.667,0.955-1.669,0.955-3.007v-8.899
			c0-0.37,0.3-0.67,0.67-0.67h2.335c0.369,0,0.67,0.3,0.67,0.67v8.756c0,1.272-0.171,2.38-0.514,3.318
			c-0.341,0.938-0.831,1.723-1.468,2.353c-0.636,0.628-1.407,1.099-2.314,1.407C499.279,316.59,498.27,316.744,497.156,316.744z"/>
		
			<linearGradient id="SVGID_22_" gradientUnits="userSpaceOnUse" x1="412.9082" y1="-20.8379" x2="412.9082" y2="-93.639" gradientTransform="matrix(0.56 0 0 -0.56 284.22 288.3805)">
			<stop  offset="0" style="stop-color:#C3922E"/>
			<stop  offset="0.0723" style="stop-color:#D19C2E"/>
			<stop  offset="0.1844" style="stop-color:#E2A72E"/>
			<stop  offset="0.3198" style="stop-color:#EDAF2E"/>
			<stop  offset="0.5401" style="stop-color:#F1B22E"/>
			<stop  offset="0.7161" style="stop-color:#E8AB2B"/>
			<stop  offset="0.9944" style="stop-color:#DA9F25"/>
		</linearGradient>
		<path fill="url(#SVGID_22_)" d="M508.229,300.446c0-0.37,0.3-0.67,0.669-0.67h6.969c2.115,0,3.737,0.564,4.869,1.696
			c0.954,0.954,1.43,2.227,1.43,3.817v0.05c0,1.351-0.332,2.453-0.991,3.305c-0.502,0.647-1.12,1.163-1.854,1.546
			c-0.37,0.192-0.516,0.643-0.28,0.988l3.627,5.306h-3.938c-0.224,0-0.433-0.112-0.556-0.298l-3.379-5.049h-0.05h-2.838v4.677
			c0,0.369-0.301,0.67-0.671,0.67h-2.337c-0.369,0-0.669-0.301-0.669-0.67V300.446L508.229,300.446z M515.63,307.892
			c0.907,0,1.602-0.215,2.088-0.644c0.486-0.43,0.727-1.001,0.727-1.718v-0.05c0-0.795-0.254-1.392-0.763-1.79
			c-0.511-0.396-1.219-0.596-2.124-0.596h-2.979c-0.37,0-0.67,0.3-0.67,0.67v3.457c0,0.37,0.3,0.67,0.67,0.67H515.63L515.63,307.892
			z"/>
		
			<linearGradient id="SVGID_23_" gradientUnits="userSpaceOnUse" x1="442.1709" y1="-20.8379" x2="442.1709" y2="-93.64" gradientTransform="matrix(0.56 0 0 -0.56 284.22 288.3805)">
			<stop  offset="0" style="stop-color:#C3922E"/>
			<stop  offset="0.0723" style="stop-color:#D19C2E"/>
			<stop  offset="0.1844" style="stop-color:#E2A72E"/>
			<stop  offset="0.3198" style="stop-color:#EDAF2E"/>
			<stop  offset="0.5401" style="stop-color:#F1B22E"/>
			<stop  offset="0.7161" style="stop-color:#E8AB2B"/>
			<stop  offset="0.9944" style="stop-color:#DA9F25"/>
		</linearGradient>
		<path fill="url(#SVGID_23_)" d="M526.156,299.776h11.236c0.37,0,0.67,0.3,0.67,0.67v1.929c0,0.37-0.3,0.67-0.67,0.67h-7.609
			c-0.369,0-0.67,0.301-0.67,0.67v2.051c0,0.369,0.301,0.67,0.67,0.67h6.536c0.37,0,0.67,0.3,0.67,0.669v1.93
			c0,0.37-0.3,0.67-0.67,0.67h-6.536c-0.369,0-0.67,0.301-0.67,0.67v2.169c0,0.37,0.301,0.67,0.67,0.67h7.73
			c0.369,0,0.67,0.301,0.67,0.67v1.929c0,0.37-0.301,0.671-0.67,0.671h-11.357c-0.37,0-0.67-0.301-0.67-0.671v-15.365
			C525.486,300.076,525.786,299.776,526.156,299.776z"/>
		
			<linearGradient id="SVGID_24_" gradientUnits="userSpaceOnUse" x1="469.4048" y1="-20.8369" x2="469.4048" y2="-93.6417" gradientTransform="matrix(0.56 0 0 -0.56 284.22 288.3805)">
			<stop  offset="0" style="stop-color:#C3922E"/>
			<stop  offset="0.0723" style="stop-color:#D19C2E"/>
			<stop  offset="0.1844" style="stop-color:#E2A72E"/>
			<stop  offset="0.3198" style="stop-color:#EDAF2E"/>
			<stop  offset="0.5401" style="stop-color:#F1B22E"/>
			<stop  offset="0.7161" style="stop-color:#E8AB2B"/>
			<stop  offset="0.9944" style="stop-color:#DA9F25"/>
		</linearGradient>
		<path fill="url(#SVGID_24_)" d="M547.441,316.722c-1.272,0-2.521-0.22-3.746-0.656c-1.02-0.365-1.96-0.89-2.825-1.579
			c-0.291-0.231-0.322-0.671-0.083-0.957l1.331-1.596c0.229-0.273,0.627-0.307,0.914-0.097c0.603,0.441,1.217,0.805,1.842,1.089
			c0.802,0.365,1.683,0.549,2.637,0.549c0.763,0,1.356-0.139,1.777-0.416c0.421-0.28,0.634-0.666,0.634-1.158v-0.047
			c0-0.24-0.045-0.448-0.132-0.635c-0.09-0.182-0.256-0.354-0.504-0.513c-0.247-0.159-0.59-0.318-1.028-0.478
			c-0.439-0.159-1.011-0.327-1.712-0.502c-0.845-0.206-1.611-0.438-2.297-0.69s-1.269-0.568-1.748-0.943
			c-0.479-0.374-0.847-0.837-1.111-1.396c-0.262-0.558-0.394-1.25-0.394-2.077v-0.049c0-0.762,0.141-1.452,0.425-2.064
			c0.287-0.611,0.684-1.142,1.196-1.586c0.516-0.446,1.128-0.788,1.842-1.026c0.715-0.239,1.502-0.358,2.357-0.358
			c1.226,0,2.353,0.182,3.377,0.549c1.028,0.365,1.967,0.89,2.827,1.575l-1.909,2.77c-0.748-0.511-1.48-0.912-2.195-1.205
			c-0.717-0.294-1.432-0.443-2.148-0.443c-0.718,0-1.255,0.139-1.613,0.418c-0.356,0.278-0.536,0.624-0.536,1.038v0.047
			c0,0.271,0.052,0.507,0.155,0.703c0.103,0.2,0.291,0.379,0.564,0.538s0.643,0.31,1.111,0.453c0.471,0.141,1.064,0.309,1.781,0.499
			c0.845,0.225,1.6,0.475,2.263,0.753c0.661,0.28,1.222,0.611,1.674,1.002c0.455,0.39,0.8,0.847,1.03,1.373
			c0.231,0.527,0.348,1.154,0.348,1.887v0.047c0,0.829-0.149,1.564-0.45,2.207c-0.3,0.644-0.72,1.188-1.257,1.622
			c-0.538,0.439-1.179,0.773-1.925,1.002C549.176,316.605,548.35,316.722,547.441,316.722z"/>
	</g>
	<g>
		
			<linearGradient id="SVGID_25_" gradientUnits="userSpaceOnUse" x1="227.0425" y1="-20.8369" x2="227.0425" y2="-93.6394" gradientTransform="matrix(0.56 0 0 -0.56 284.22 288.3805)">
			<stop  offset="0" style="stop-color:#C3922E"/>
			<stop  offset="0.0723" style="stop-color:#D19C2E"/>
			<stop  offset="0.1844" style="stop-color:#E2A72E"/>
			<stop  offset="0.3198" style="stop-color:#EDAF2E"/>
			<stop  offset="0.5401" style="stop-color:#F1B22E"/>
			<stop  offset="0.7161" style="stop-color:#E8AB2B"/>
			<stop  offset="0.9944" style="stop-color:#DA9F25"/>
		</linearGradient>
		<path fill="url(#SVGID_25_)" d="M402.343,270.57h3.71c0.367,0,0.663,0.298,0.663,0.663v7.735c0,0.367,0.298,0.663,0.663,0.663
			h7.965c0.368,0,0.663-0.298,0.663-0.663v-7.735c0-0.367,0.298-0.663,0.664-0.663h3.71c0.367,0,0.663,0.298,0.663,0.663v21.573
			c0,0.367-0.298,0.663-0.663,0.663h-3.71c-0.368,0-0.664-0.298-0.664-0.663v-7.867c0-0.367-0.298-0.663-0.663-0.663h-7.963
			c-0.368,0-0.664,0.299-0.664,0.663v7.867c0,0.367-0.298,0.663-0.663,0.663h-3.71c-0.367,0-0.663-0.298-0.663-0.663v-21.573
			C401.679,270.868,401.978,270.57,402.343,270.57z"/>
		
			<linearGradient id="SVGID_26_" gradientUnits="userSpaceOnUse" x1="269.686" y1="-20.8384" x2="269.686" y2="-93.6426" gradientTransform="matrix(0.56 0 0 -0.56 284.22 288.3805)">
			<stop  offset="0" style="stop-color:#C3922E"/>
			<stop  offset="0.0723" style="stop-color:#D19C2E"/>
			<stop  offset="0.1844" style="stop-color:#E2A72E"/>
			<stop  offset="0.3198" style="stop-color:#EDAF2E"/>
			<stop  offset="0.5401" style="stop-color:#F1B22E"/>
			<stop  offset="0.7161" style="stop-color:#E8AB2B"/>
			<stop  offset="0.9944" style="stop-color:#DA9F25"/>
		</linearGradient>
		<path fill="url(#SVGID_26_)" d="M427.207,270.57h15.913c0.367,0,0.663,0.298,0.663,0.663v3.155c0,0.368-0.298,0.663-0.663,0.663
			h-10.941c-0.367,0-0.663,0.298-0.663,0.664v3.318c0,0.367,0.298,0.664,0.663,0.664h9.469c0.367,0,0.663,0.297,0.663,0.663v3.155
			c0,0.368-0.298,0.663-0.663,0.663h-9.469c-0.367,0-0.663,0.298-0.663,0.664v3.481c0,0.367,0.298,0.663,0.663,0.663h11.105
			c0.367,0,0.663,0.298,0.663,0.663v3.155c0,0.367-0.298,0.663-0.663,0.663h-16.079c-0.368,0-0.664-0.299-0.664-0.663v-21.573
			C426.543,270.868,426.839,270.57,427.207,270.57z"/>
		
			<linearGradient id="SVGID_27_" gradientUnits="userSpaceOnUse" x1="311.4604" y1="-20.8369" x2="311.4604" y2="-93.6382" gradientTransform="matrix(0.56 0 0 -0.56 284.22 288.3805)">
			<stop  offset="0" style="stop-color:#C3922E"/>
			<stop  offset="0.0723" style="stop-color:#D19C2E"/>
			<stop  offset="0.1844" style="stop-color:#E2A72E"/>
			<stop  offset="0.3198" style="stop-color:#EDAF2E"/>
			<stop  offset="0.5401" style="stop-color:#F1B22E"/>
			<stop  offset="0.7161" style="stop-color:#E8AB2B"/>
			<stop  offset="0.9944" style="stop-color:#DA9F25"/>
		</linearGradient>
		<path fill="url(#SVGID_27_)" d="M456.753,270.406h3.769c0.267,0,0.506,0.159,0.61,0.403l9.249,21.736
			c0.186,0.437-0.135,0.923-0.61,0.923h-3.82c-0.269,0-0.513-0.164-0.614-0.412l-1.756-4.309c-0.101-0.249-0.345-0.412-0.614-0.412
			h-8.792c-0.269,0-0.513,0.163-0.614,0.412l-1.757,4.309c-0.101,0.248-0.345,0.412-0.614,0.412h-3.686
			c-0.475,0-0.798-0.486-0.61-0.923l9.25-21.736C456.247,270.565,456.487,270.406,456.753,270.406z M461.239,282.97l-2.053-5.013
			c-0.224-0.549-1.004-0.549-1.228,0l-2.055,5.013c-0.179,0.437,0.141,0.914,0.614,0.914h4.107
			C461.096,283.884,461.416,283.406,461.239,282.97z"/>
		
			<linearGradient id="SVGID_28_" gradientUnits="userSpaceOnUse" x1="354.1318" y1="-20.8389" x2="354.1318" y2="-93.6442" gradientTransform="matrix(0.56 0 0 -0.56 284.22 288.3805)">
			<stop  offset="0" style="stop-color:#C3922E"/>
			<stop  offset="0.0723" style="stop-color:#D19C2E"/>
			<stop  offset="0.1844" style="stop-color:#E2A72E"/>
			<stop  offset="0.3198" style="stop-color:#EDAF2E"/>
			<stop  offset="0.5401" style="stop-color:#F1B22E"/>
			<stop  offset="0.7161" style="stop-color:#E8AB2B"/>
			<stop  offset="0.9944" style="stop-color:#DA9F25"/>
		</linearGradient>
		<path fill="url(#SVGID_28_)" d="M474.969,270.57h3.71c0.368,0,0.664,0.298,0.664,0.663v17.027c0,0.367,0.298,0.663,0.663,0.663
			h10.091c0.367,0,0.663,0.298,0.663,0.663v3.222c0,0.368-0.298,0.664-0.663,0.664h-15.128c-0.367,0-0.663-0.299-0.663-0.664
			v-21.572C474.306,270.868,474.602,270.57,474.969,270.57z"/>
		
			<linearGradient id="SVGID_29_" gradientUnits="userSpaceOnUse" x1="389.6235" y1="-20.8369" x2="389.6235" y2="-93.6394" gradientTransform="matrix(0.56 0 0 -0.56 284.22 288.3805)">
			<stop  offset="0" style="stop-color:#C3922E"/>
			<stop  offset="0.0723" style="stop-color:#D19C2E"/>
			<stop  offset="0.1844" style="stop-color:#E2A72E"/>
			<stop  offset="0.3198" style="stop-color:#EDAF2E"/>
			<stop  offset="0.5401" style="stop-color:#F1B22E"/>
			<stop  offset="0.7161" style="stop-color:#E8AB2B"/>
			<stop  offset="0.9944" style="stop-color:#DA9F25"/>
		</linearGradient>
		<path fill="url(#SVGID_29_)" d="M499.227,275.214h-5.642c-0.368,0-0.664-0.298-0.664-0.663v-3.318
			c0-0.367,0.298-0.663,0.664-0.663h17.648c0.368,0,0.663,0.298,0.663,0.663v3.318c0,0.368-0.298,0.663-0.663,0.663h-5.642
			c-0.367,0-0.663,0.298-0.663,0.664v16.928c0,0.367-0.298,0.663-0.663,0.663h-3.711c-0.367,0-0.663-0.298-0.663-0.663v-16.928
			C499.89,275.513,499.592,275.214,499.227,275.214z"/>
		
			<linearGradient id="SVGID_30_" gradientUnits="userSpaceOnUse" x1="430.7476" y1="-20.8369" x2="430.7476" y2="-93.6394" gradientTransform="matrix(0.56 0 0 -0.56 284.22 288.3805)">
			<stop  offset="0" style="stop-color:#C3922E"/>
			<stop  offset="0.0723" style="stop-color:#D19C2E"/>
			<stop  offset="0.1844" style="stop-color:#E2A72E"/>
			<stop  offset="0.3198" style="stop-color:#EDAF2E"/>
			<stop  offset="0.5401" style="stop-color:#F1B22E"/>
			<stop  offset="0.7161" style="stop-color:#E8AB2B"/>
			<stop  offset="0.9944" style="stop-color:#DA9F25"/>
		</linearGradient>
		<path fill="url(#SVGID_30_)" d="M516.418,270.57h3.711c0.367,0,0.663,0.298,0.663,0.663v7.735c0,0.367,0.298,0.663,0.663,0.663
			h7.966c0.367,0,0.663-0.298,0.663-0.663v-7.735c0-0.367,0.298-0.663,0.663-0.663h3.711c0.367,0,0.663,0.298,0.663,0.663v21.573
			c0,0.367-0.299,0.663-0.663,0.663h-3.711c-0.367,0-0.663-0.298-0.663-0.663v-7.867c0-0.367-0.299-0.663-0.663-0.663h-7.966
			c-0.367,0-0.663,0.299-0.663,0.663v7.867c0,0.367-0.298,0.663-0.663,0.663h-3.711c-0.367,0-0.663-0.298-0.663-0.663v-21.573
			C515.753,270.868,516.051,270.57,516.418,270.57z"/>
		
			<linearGradient id="SVGID_31_" gradientUnits="userSpaceOnUse" x1="473.8579" y1="-20.8369" x2="473.8579" y2="-93.6394" gradientTransform="matrix(0.56 0 0 -0.56 284.22 288.3805)">
			<stop  offset="0" style="stop-color:#C3922E"/>
			<stop  offset="0.0723" style="stop-color:#D19C2E"/>
			<stop  offset="0.1844" style="stop-color:#E2A72E"/>
			<stop  offset="0.3198" style="stop-color:#EDAF2E"/>
			<stop  offset="0.5401" style="stop-color:#F1B22E"/>
			<stop  offset="0.7161" style="stop-color:#E8AB2B"/>
			<stop  offset="0.9944" style="stop-color:#DA9F25"/>
		</linearGradient>
		<path fill="url(#SVGID_31_)" d="M546.96,284.28l-8.051-12.691c-0.28-0.441,0.038-1.02,0.561-1.02h4.304
			c0.233,0,0.451,0.123,0.571,0.325l4.706,7.918c0.255,0.43,0.878,0.433,1.138,0.005l4.795-7.928c0.121-0.199,0.337-0.32,0.567-0.32
			h4.141c0.523,0,0.84,0.578,0.558,1.021l-8.044,12.588c-0.067,0.107-0.105,0.23-0.105,0.355v8.271c0,0.367-0.298,0.663-0.663,0.663
			h-3.71c-0.368,0-0.664-0.298-0.664-0.663v-8.172C547.062,284.509,547.027,284.386,546.96,284.28z"/>
	</g>
</g>
</svg>
