<?xml version="1.0" encoding="utf-8"?>
<!-- Generator: Adobe Illustrator 16.0.0, SVG Export Plug-In . SVG Version: 6.00 Build 0)  -->
<!DOCTYPE svg PUBLIC "-//W3C//DTD SVG 1.1//EN" "http://www.w3.org/Graphics/SVG/1.1/DTD/svg11.dtd">
<svg version="1.1" id="Layer_1" xmlns="http://www.w3.org/2000/svg" xmlns:xlink="http://www.w3.org/1999/xlink" x="0px" y="0px"
	 width="200px" height="82.055px" viewBox="0 0 200 82.055" enable-background="new 0 0 200 82.055" xml:space="preserve">
<path fill="#FFFFFF" d="M71.5,23.307c0.074-0.027,0.142-0.024,0.152,0.004s0.087,0.024,0.164-0.009
	c0.182-0.079,0.708-0.091,0.921-0.021c0.089,0.029,0.345,0.081,0.566,0.112s0.632,0.092,0.91,0.134
	c0.277,0.041,0.603,0.083,0.721,0.094c0.119,0.009,0.678,0.069,1.244,0.132c0.999,0.11,1.167,0.121,2.171,0.133
	c1.388,0.013,2.228-0.095,3.327-0.429c1.94-0.589,4.199-2.117,5.05-3.417c0.529-0.809,1.036-2.112,1.021-2.628
	c-0.005-0.166,0.004-0.317,0.02-0.338c0.025-0.032,0.446,0.009,2.7,0.258c0.767,0.085,1.355,0.174,1.474,0.225
	c0.048,0.021,0.411,0.123,0.801,0.229c0.694,0.187,2.163,0.647,2.635,0.827c0.341,0.13,0.269,0.218-0.162,0.2
	c-1.158-0.047-2.354,0.538-3.164,1.548c-0.251,0.312-0.562,1.559-0.621,2.481c-0.018,0.287-0.051,0.722-0.074,0.969
	c-0.022,0.247-0.031,0.478-0.018,0.511c0.029,0.074,1.074,0.192,1.683,0.192c0.574,0,1.448-0.133,1.86-0.282
	c0.412-0.148,0.952-0.498,1.49-0.961c0.73-0.632,0.993-0.959,1.503-1.871c0.375-0.67,0.473-0.876,0.498-1.061
	c0.021-0.139,0.061-0.194,0.177-0.237c0.121-0.042,0.258,0.002,0.683,0.227c0.289,0.152,0.647,0.363,0.787,0.459
	c0.263,0.185,0.589,0.393,1.357,0.869c0.897,0.556,2.761,1.98,3.368,2.575c0.312,0.307,1.284,1.42,1.456,1.671
	c0.033,0.047,0.066,0.092,0.099,0.132h2.162c-0.062-0.092-0.22-0.338-0.353-0.551c-0.135-0.215-0.272-0.406-0.307-0.423
	c-0.036-0.021-0.092-0.114-0.128-0.216c-0.036-0.101-0.123-0.241-0.199-0.32c-0.074-0.078-0.204-0.247-0.292-0.383
	c-0.087-0.137-0.191-0.263-0.236-0.289c-0.048-0.025-0.074-0.065-0.062-0.093c0.012-0.024-0.04-0.101-0.112-0.166
	c-0.177-0.163-0.189-0.224-0.059-0.271c0.126-0.045,1.078-0.744,1.34-0.981c0.097-0.087,0.259-0.277,0.356-0.419
	c0.1-0.141,0.239-0.32,0.308-0.395c0.181-0.195,0.883-1.801,0.898-2.057c0.007-0.116,0.025-0.313,0.042-0.433
	c0.016-0.119,0.045-0.365,0.062-0.54c0.019-0.175,0.054-0.345,0.078-0.374c0.022-0.028,0.026-0.099,0.009-0.151
	c-0.02-0.057-0.023-0.178-0.009-0.278c0.014-0.102,0.011-0.215-0.005-0.262c-0.019-0.048-0.019-0.112-0.002-0.152
	c0.033-0.087-0.017-0.695-0.08-1c-0.029-0.132-0.048-0.291-0.041-0.347c0.007-0.057-0.026-0.306-0.078-0.55
	c-0.05-0.243-0.104-0.562-0.121-0.703c-0.043-0.38-0.488-1.815-0.578-1.873c-0.043-0.027-0.062-0.079-0.052-0.125
	c0.036-0.13-0.636-1.774-0.847-2.075c-0.065-0.092-0.147-0.251-0.188-0.359c-0.104-0.291-0.396-0.544-0.625-0.542
	c-0.189,0.002-0.201,0.011-0.343,0.343c-0.104,0.249-0.215,0.399-0.4,0.545c-0.358,0.281-0.628,0.584-0.774,0.866
	c-0.067,0.127-0.183,0.298-0.249,0.372c-0.154,0.17-0.802,1.556-0.891,1.902c-0.032,0.139-0.096,0.334-0.135,0.426
	c-0.123,0.292-0.342,1.241-0.428,1.854c-0.085,0.604-0.111,1.193-0.073,1.719c0.059,0.842,0.526,2.622,0.885,3.357
	c0.091,0.185,0.228,0.467,0.31,0.638l0.147,0.304l-0.158-0.219c-0.091-0.124-0.251-0.278-0.365-0.353
	c-0.114-0.073-0.217-0.162-0.23-0.2c-0.014-0.035-0.104-0.12-0.202-0.188c-0.213-0.146-0.349-0.255-0.473-0.38
	c-0.049-0.05-0.172-0.124-0.277-0.168c-0.104-0.044-0.337-0.202-0.516-0.353c-0.325-0.271-0.699-0.504-1.132-0.706
	c-0.127-0.06-0.312-0.168-0.416-0.243c-0.348-0.251-1.5-0.824-1.593-0.791c-0.027,0.009-0.059-0.01-0.07-0.048
	c-0.013-0.035-0.215-0.151-0.452-0.26c-0.234-0.107-0.438-0.217-0.445-0.244c-0.009-0.026,0.078-0.222,0.194-0.433
	c0.117-0.21,0.258-0.549,0.314-0.75c0.056-0.2,0.13-0.446,0.161-0.542c0.056-0.166,0.106-0.564,0.121-0.952
	c0.002-0.085,0.009-0.23,0.016-0.334c0.009-0.184-0.006-0.397-0.074-0.948c-0.047-0.383-0.298-1.25-0.578-1.999
	c-0.22-0.587-0.282-0.724-0.666-1.454c-0.123-0.236-0.247-0.473-0.274-0.528c-0.072-0.145-0.311-0.45-0.462-0.599
	c-0.071-0.069-0.15-0.179-0.173-0.241c-0.021-0.062-0.094-0.152-0.156-0.197c-0.064-0.044-0.187-0.188-0.273-0.318
	s-0.21-0.274-0.276-0.325c-0.066-0.049-0.166-0.186-0.224-0.307c-0.059-0.124-0.132-0.235-0.168-0.258
	c-0.033-0.021-0.125-0.123-0.204-0.227s-0.199-0.222-0.271-0.262c-0.071-0.041-0.222-0.159-0.338-0.267
	c-0.116-0.108-0.254-0.217-0.305-0.249c-0.054-0.031-0.175-0.125-0.277-0.215c-0.104-0.09-0.263-0.229-0.362-0.316
	c-0.388-0.338-0.521-0.428-0.59-0.403c-0.038,0.015-0.105-0.028-0.146-0.092c-0.043-0.062-0.202-0.189-0.35-0.28
	c-0.516-0.312-0.58-0.35-0.968-0.566c-0.723-0.403-1.331-0.692-1.618-0.764c-0.255-0.065-0.296-0.06-0.421,0.058
	c-0.144,0.134-0.195,0.421-0.114,0.643c0.029,0.083-0.022,0.223-0.164,0.441c-0.257,0.394-0.395,0.777-0.475,1.312
	c-0.157,1.061,0.02,2.234,0.577,3.799c0.448,1.257,0.742,1.896,1.135,2.462c0.099,0.143,0.227,0.329,0.279,0.408
	c0.1,0.143,0.176,0.241,0.327,0.421c0.042,0.051,0.166,0.204,0.273,0.345c0.229,0.296,0.886,0.955,1.327,1.335
	c0.173,0.147,0.44,0.385,0.606,0.536c0.167,0.149,0.411,0.349,0.549,0.448c0.142,0.099,0.242,0.199,0.231,0.224
	c-0.014,0.029-0.045,0.031-0.079,0.007c-0.085-0.058-0.773-0.224-0.838-0.202c-0.031,0.012-0.199-0.038-0.367-0.106
	c-0.168-0.069-0.347-0.114-0.394-0.1c-0.047,0.017-0.228-0.026-0.396-0.099c-0.168-0.069-0.374-0.123-0.45-0.116
	c-0.075,0.006-0.204-0.014-0.272-0.043c-0.072-0.031-0.332-0.081-0.583-0.114c-0.251-0.032-0.605-0.081-0.798-0.104
	c-0.787-0.108-1.123-0.125-1.212-0.063c-0.06,0.041-0.185,0.038-0.325-0.007c-0.127-0.04-0.28-0.054-0.343-0.031
	c-0.063,0.023-0.261,0.029-0.438,0.015c-0.179-0.017-0.428-0.022-0.558-0.015c-0.131,0.008-0.318,0.008-0.419-0.002
	c-0.105-0.009-0.254-0.016-0.341-0.016c-0.116,0-0.194-0.058-0.315-0.23c-0.213-0.305-0.466-0.473-1.4-0.926
	c-0.433-0.208-0.836-0.432-0.907-0.501c-0.071-0.068-0.17-0.13-0.227-0.137c-0.054-0.007-0.381-0.139-0.737-0.296
	c-0.355-0.157-0.666-0.275-0.699-0.262c-0.033,0.011-0.104-0.027-0.165-0.09s-0.142-0.099-0.182-0.083
	c-0.041,0.017-0.162-0.045-0.269-0.13c-0.235-0.189-0.923-0.502-1.095-0.495c-0.068,0.002-0.26-0.045-0.432-0.104
	c-0.446-0.159-1.708-0.27-1.797-0.157c-0.016,0.021-0.155,0.045-0.312,0.054c-0.156,0.012-0.449,0.072-0.658,0.14
	c-0.536,0.172-0.637,0.197-0.765,0.188c-0.061-0.004-0.309,0.083-0.556,0.195c-0.247,0.114-0.583,0.264-0.753,0.341
	c-0.36,0.159-0.947,0.625-1.026,0.817c-0.028,0.069-0.094,0.147-0.139,0.166c-0.047,0.018-0.154,0.137-0.24,0.264
	c-0.085,0.128-0.219,0.321-0.298,0.428c-0.079,0.107-0.287,0.491-0.466,0.856s-0.35,0.667-0.38,0.679
	c-0.032,0.009-0.164,0.019-0.29,0.019c-0.275,0-0.417,0.104-0.453,0.336c-0.021,0.125-0.004,0.175,0.061,0.206
	c0.047,0.021,0.125,0.146,0.173,0.279c0.081,0.227,0.074,0.263-0.163,0.75c-0.146,0.299-0.325,0.827-0.434,1.265
	c-0.199,0.817-0.322,1.414-0.307,1.461c0.006,0.018-0.013,0.111-0.041,0.213c-0.029,0.099-0.076,0.39-0.105,0.645
	c-0.028,0.257-0.106,0.678-0.17,0.939c-0.064,0.262-0.104,0.529-0.089,0.599c0.018,0.087-0.021,0.159-0.13,0.237
	C71.308,23.283,71.313,23.373,71.5,23.307z M104.888,16.592c0.021-0.108,0.028-0.323,0.021-0.469
	c-0.009-0.146,0.019-0.376,0.059-0.502c0.04-0.128,0.067-0.253,0.062-0.275c-0.01-0.022,0.016-0.144,0.054-0.265
	s0.063-0.234,0.061-0.249c-0.028-0.081,0.346-1.136,0.55-1.548c0.128-0.258,0.296-0.614,0.366-0.78
	c0.132-0.298,0.628-1.015,0.731-1.053c0.028-0.011,0.068-0.079,0.089-0.157c0.034-0.13,0.047-0.116,0.202,0.21
	c0.092,0.195,0.234,0.474,0.32,0.623c0.307,0.54,1.021,2.939,1.148,3.863c0.246,1.783,0.246,1.896,0.038,3.312
	c-0.104,0.7-0.154,0.868-0.422,1.406c-0.284,0.573-0.336,0.642-0.824,1.078c-0.592,0.531-0.827,0.687-1.001,0.659
	c-0.117-0.018-0.15-0.083-0.453-0.905C105.129,19.463,104.727,17.464,104.888,16.592z M96.861,21.655
	c-0.195,0.258-0.531,0.614-0.607,0.643c-0.029,0.012-0.15,0.125-0.267,0.251c-0.116,0.125-0.278,0.282-0.359,0.344
	c-0.253,0.192-0.724,0.478-0.771,0.466c-0.025-0.004-0.271,0.061-0.548,0.144c-0.397,0.121-0.591,0.15-0.946,0.136
	c-0.242-0.012-0.479-0.008-0.521,0.006c-0.042,0.016-0.08,0.009-0.089-0.017c-0.018-0.047-0.528-0.121-0.619-0.089
	c-0.089,0.031-0.159-0.052-0.141-0.17c0.009-0.062,0.021-0.182,0.029-0.267c0.039-0.476,0.201-1.097,0.438-1.701
	c0.101-0.255,0.385-0.587,0.733-0.854c0.255-0.194,1.104-0.551,1.46-0.611c0.776-0.132,1.442-0.17,2.271-0.132
	c0.597,0.026,0.652,0.047,0.659,0.224C97.597,20.2,97.068,21.381,96.861,21.655z M92.293,6.182c0.322,0.177,1.329,0.881,1.712,1.196
	c0.727,0.602,1.855,1.674,2.122,2.02c0.141,0.184,0.283,0.343,0.318,0.361c0.034,0.018,0.083,0.08,0.103,0.139
	c0.021,0.059,0.227,0.375,0.457,0.704c0.67,0.955,0.842,1.244,1.103,1.853c0.668,1.561,0.886,2.723,0.705,3.753
	c-0.058,0.332-0.312,1.04-0.385,1.066c-0.085,0.032-0.236-0.195-0.315-0.473c-0.045-0.152-0.166-0.405-0.27-0.557
	c-0.103-0.147-0.229-0.395-0.284-0.54c-0.054-0.147-0.156-0.352-0.23-0.459c-0.074-0.104-0.177-0.271-0.229-0.368
	c-0.052-0.096-0.125-0.194-0.166-0.22c-0.041-0.021-0.135-0.188-0.211-0.363c-0.076-0.175-0.255-0.525-0.392-0.776
	c-0.139-0.249-0.31-0.559-0.375-0.682c-0.125-0.234-0.464-0.76-0.562-0.874c-0.033-0.037-0.085-0.125-0.118-0.196
	c-0.114-0.239-0.406-0.735-0.555-0.943c-0.189-0.262-0.159-0.217-0.35-0.526c-0.092-0.147-0.325-0.601-0.522-1.008
	c-0.196-0.407-0.47-0.91-0.61-1.12c-0.14-0.206-0.276-0.435-0.302-0.502c-0.023-0.068-0.07-0.128-0.106-0.134
	c-0.036-0.007-0.094-0.099-0.132-0.204c-0.039-0.104-0.146-0.327-0.242-0.498c-0.096-0.168-0.197-0.397-0.229-0.513
	C92.172,6.125,92.174,6.116,92.293,6.182z M95.04,15.121c-0.052-0.009-0.099-0.051-0.117-0.098c-0.016-0.045-0.147-0.195-0.289-0.33
	c-0.553-0.531-0.746-0.735-0.845-0.898c-0.094-0.154-0.271-0.367-0.464-0.558c-0.036-0.036-0.114-0.141-0.172-0.233
	c-0.059-0.092-0.161-0.229-0.231-0.302c-0.164-0.175-0.398-0.52-0.508-0.744c-0.15-0.305-0.396-0.693-0.475-0.757
	c-0.083-0.062-0.796-2.167-0.912-2.69c-0.058-0.256-0.117-0.69-0.134-0.967c-0.016-0.274-0.037-0.604-0.049-0.732
	c-0.026-0.289,0-0.58,0.083-0.945c0.034-0.15,0.072-0.278,0.083-0.282c0.044-0.016,0.15,0.15,0.225,0.356
	c0.045,0.123,0.154,0.355,0.247,0.521c0.092,0.164,0.324,0.623,0.515,1.02s0.473,0.915,0.625,1.149
	c0.152,0.237,0.36,0.561,0.466,0.722c0.104,0.159,0.332,0.562,0.504,0.894c0.174,0.332,0.35,0.625,0.393,0.647
	c0.045,0.026,0.069,0.074,0.061,0.117c-0.013,0.058,0.083,0.208,0.31,0.485c0.031,0.038,0.08,0.114,0.109,0.17
	c0.072,0.136,0.733,1.201,0.984,1.589c0.383,0.592,0.645,1.054,0.975,1.713c0.183,0.364,0.365,0.729,0.412,0.817
	c0.047,0.087,0.155,0.316,0.244,0.511l0.16,0.353l-0.191-0.11c-0.408-0.234-1.463-0.982-1.736-1.229
	C95.212,15.215,95.087,15.13,95.04,15.121z M86.884,17.096c0.129,0.052,0.17,0.264,0.123,0.639
	c-0.054,0.428-0.592,1.537-0.986,2.037c-0.118,0.149-0.568,0.551-0.651,0.58c-0.053,0.021-0.109,0.064-0.129,0.104
	c-0.057,0.117-0.803,0.715-1.019,0.815c-0.113,0.054-0.312,0.164-0.447,0.251c-0.138,0.085-0.342,0.213-0.465,0.292
	c-0.295,0.186-1.001,0.457-1.628,0.627c-0.282,0.076-0.736,0.206-1.004,0.284c-0.307,0.092-0.575,0.137-0.731,0.121
	c-0.538-0.052-0.836-0.065-0.9-0.042c-0.038,0.013-0.264,0.002-0.502-0.022c-0.238-0.027-0.567-0.045-0.728-0.04
	c-0.166,0.004-0.394-0.004-0.517-0.021c-0.296-0.041-0.84-0.062-0.914-0.034c-0.031,0.011-0.26,0-0.509-0.027
	s-0.481-0.036-0.52-0.021c-0.14,0.049-0.975-0.11-1.236-0.237c-0.413-0.2-0.521-0.433-0.31-0.67c0.045-0.052,0.137-0.17,0.209-0.271
	c0.071-0.101,0.147-0.188,0.177-0.196c0.026-0.01,0.066-0.065,0.085-0.121c0.02-0.06,0.081-0.119,0.139-0.14
	c0.056-0.02,0.2-0.139,0.316-0.262c0.115-0.125,0.249-0.24,0.293-0.255s0.168-0.114,0.269-0.213c0.105-0.104,0.436-0.312,0.744-0.47
	c0.307-0.159,0.598-0.314,0.652-0.349c0.054-0.034,0.159-0.062,0.237-0.062c0.09,0,0.159-0.031,0.192-0.087
	c0.029-0.05,0.072-0.079,0.099-0.065c0.024,0.011,0.069-0.016,0.098-0.059c0.033-0.057,0.087-0.076,0.174-0.062
	c0.101,0.014,0.132-0.009,0.162-0.112c0.028-0.111,0.062-0.132,0.26-0.147c0.164-0.014,0.226-0.038,0.224-0.083
	c-0.002-0.092,0.146-0.13,0.178-0.045c0.054,0.147,0.413,0.02,0.483-0.175c0.036-0.097,0.235-0.195,0.314-0.154
	c0.023,0.011,0.149,0.002,0.285-0.019c0.249-0.04,0.404-0.082,1.982-0.539c0.508-0.148,1.062-0.293,1.229-0.325
	c0.166-0.031,0.47-0.09,0.676-0.128C84.39,17.176,86.631,16.996,86.884,17.096z M78.298,13.396c0.022-0.004,0.192-0.038,0.376-0.079
	c0.37-0.081,1.053-0.096,1.535-0.038c0.41,0.049,0.724,0.15,1.427,0.459c0.312,0.137,0.925,0.39,1.364,0.56
	c0.439,0.174,0.993,0.406,1.23,0.521c0.959,0.461,1.61,0.885,1.333,0.862c-0.034-0.002-0.148,0.021-0.249,0.054
	c-0.104,0.032-0.229,0.059-0.278,0.059c-0.166,0-0.991,0.14-1.696,0.287l-0.701,0.148l-0.168-0.155
	c-0.279-0.257-1.62-0.972-1.74-0.93c-0.029,0.011-0.055-0.002-0.065-0.031c-0.009-0.027-0.121-0.101-0.253-0.166
	c-0.365-0.182-0.504-0.274-1.104-0.729c-0.312-0.235-0.667-0.5-0.795-0.59c-0.13-0.092-0.237-0.179-0.244-0.196
	C78.26,13.414,78.272,13.399,78.298,13.396z M74.646,16.009c0.472-0.938,0.874-1.414,1.513-1.796
	c0.271-0.16,0.598-0.332,0.726-0.376c0.225-0.081,0.244-0.075,0.54,0.142c0.621,0.453,1.488,1.023,1.819,1.199
	c0.186,0.099,0.636,0.334,1.001,0.523c0.365,0.19,0.854,0.412,1.089,0.493c0.23,0.079,0.437,0.175,0.448,0.208
	c0.018,0.047-0.062,0.083-0.322,0.144c-0.191,0.045-0.552,0.138-0.807,0.208c-1.754,0.493-2.181,0.584-2.413,0.522
	c-0.11-0.029-0.391-0.137-0.624-0.238c-0.41-0.177-0.531-0.194-1.811-0.291c-0.681-0.052-1.086-0.103-1.255-0.162l-0.17-0.058
	L74.646,16.009z M73.606,18.291c0.172-0.385,0.34-0.708,0.371-0.719s0.152,0.002,0.265,0.027c0.114,0.025,0.497,0.047,0.863,0.044
	c0.703-0.004,1.944,0.061,2.055,0.109c0.038,0.017,0.056,0.042,0.047,0.063c-0.009,0.02-0.356,0.213-0.769,0.43
	c-0.412,0.215-0.782,0.428-0.818,0.468s-0.134,0.086-0.213,0.1c-0.225,0.036-0.965,0.558-1.279,0.899
	c-0.468,0.512-0.737,0.827-0.898,1.047c-0.192,0.265-0.293,0.232-0.317-0.1C72.883,20.326,73.244,19.097,73.606,18.291z"/>
<path fill="#FFFFFF" d="M12.091,23.322c0.062-0.771,0.544-2.07,1.082-2.928c0.154-0.247,0.607-0.848,0.829-1.101
	c0.473-0.542,1.497-1.525,2.003-1.927c0.777-0.611,1.526-1.104,2.106-1.387c0.279-0.135,0.553-0.276,0.613-0.314
	c0.059-0.036,0.13-0.066,0.155-0.068c0.027,0,0.114-0.031,0.199-0.072c0.179-0.083,1.086-0.378,1.362-0.443
	c0.532-0.128,2.038-0.3,2.722-0.31c0.585-0.009,0.836-0.017,1.042-0.031c0.11-0.007,0.376-0.004,0.587,0.007
	c0.309,0.017,0.401,0.036,0.455,0.102c0.049,0.061,0.054,0.107,0.02,0.19c-0.047,0.11-0.061,0.255-0.075,0.752
	c-0.021,0.674,0.018,0.946,0.213,1.537c0.144,0.438,0.327,0.81,0.506,1.028c0.179,0.22,0.621,0.583,0.938,0.772
	c0.338,0.202,0.957,0.484,0.997,0.452c0.019-0.016,0.089-0.146,0.159-0.289c0.07-0.146,0.195-0.396,0.28-0.562
	c0.272-0.531,0.516-1.327,0.479-1.582c-0.113-0.829-0.583-1.548-1.24-1.907c-0.244-0.132-0.256-0.206-0.022-0.164
	c0.32,0.059,1.289,0.289,1.736,0.417c0.251,0.072,0.485,0.135,0.52,0.14c0.083,0.011,0.439,0.156,0.893,0.364
	c1.333,0.609,1.579,0.729,1.582,0.753c0.002,0.017-0.046,0.104-0.102,0.195c-0.18,0.28-0.332,1.172-0.307,1.795
	c0.04,1.004,0.786,2.6,1.667,3.569c0.5,0.549,0.93,0.888,1.703,1.34c0.561,0.327,0.656,0.376,1.247,0.646
	c0.337,0.152,0.663,0.306,0.733,0.339c0.069,0.033,0.262,0.118,0.43,0.188s0.415,0.172,0.55,0.229
	c0.132,0.056,0.292,0.111,0.352,0.125c0.142,0.03,0.428,0.213,0.504,0.315c0.031,0.045,0.072,0.072,0.087,0.062
	c0.017-0.015,0.054,0.009,0.085,0.047c0.081,0.099,0.114,0.052,0.06-0.081c-0.034-0.081-0.032-0.132,0.007-0.174
	c0.031-0.034,0.096-0.195,0.146-0.361c0.053-0.166,0.148-0.425,0.215-0.576c0.069-0.151,0.14-0.329,0.154-0.392
	c0.019-0.065,0.038-0.123,0.047-0.13c0.024-0.021,0.152-0.393,0.316-0.912c0.087-0.278,0.161-0.632,0.179-0.846
	c0.029-0.349,0.038-0.371,0.157-0.47c0.069-0.059,0.155-0.101,0.188-0.099c0.048,0.004,0.072-0.019,0.102-0.094
	c0.056-0.14,0.013-0.244-0.139-0.336c-0.07-0.043-0.143-0.091-0.155-0.105c-0.015-0.016-0.009-0.24,0.013-0.502
	c0.022-0.262,0.034-0.544,0.025-0.629s-0.019-0.238-0.025-0.336c-0.004-0.1-0.023-0.202-0.044-0.228
	c-0.018-0.023-0.029-0.089-0.021-0.139c0.02-0.132-0.15-0.587-0.299-0.793c-0.069-0.099-0.207-0.293-0.305-0.439
	c-0.098-0.146-0.206-0.275-0.242-0.293c-0.073-0.035-0.121-0.083-0.36-0.355c-0.095-0.107-0.235-0.237-0.318-0.296
	c-0.085-0.059-0.152-0.116-0.154-0.134c-0.014-0.093-0.749-0.448-1.049-0.51c-0.114-0.021-0.237-0.061-0.274-0.085
	c-0.093-0.061-0.576-0.117-0.771-0.087c-0.087,0.015-0.175,0.004-0.192-0.016c-0.018-0.022-0.073-0.029-0.13-0.015
	c-0.054,0.015-0.107,0.012-0.124-0.007c-0.014-0.018-0.224-0.056-0.475-0.085c-0.249-0.031-0.475-0.064-0.509-0.081
	c-0.033-0.013-0.107-0.013-0.17,0.002c-0.063,0.016-0.361,0.004-0.67-0.021c-0.669-0.06-0.865-0.049-1.085,0.049
	c-0.122,0.056-0.186,0.06-0.251,0.021c-0.049-0.028-0.132-0.073-0.192-0.104c-0.059-0.029-0.163-0.092-0.233-0.139
	c-0.068-0.047-0.21-0.125-0.313-0.178c-0.104-0.052-0.21-0.118-0.237-0.151s-0.116-0.076-0.202-0.098
	c-0.094-0.021-0.164-0.062-0.184-0.103c-0.029-0.065-0.223-0.166-0.694-0.368c-0.115-0.049-0.328-0.141-0.478-0.206
	c-0.15-0.064-0.31-0.124-0.361-0.13c-0.047-0.007-0.125-0.038-0.166-0.067c-0.041-0.028-0.172-0.066-0.289-0.085
	c-0.117-0.018-0.23-0.052-0.251-0.075c-0.02-0.025-0.134-0.06-0.251-0.076c-0.117-0.019-0.227-0.045-0.24-0.063
	c-0.026-0.034-0.464-0.17-0.53-0.166c-0.027,0.002-0.042-0.011-0.04-0.028c0.002-0.019,0.092-0.041,0.201-0.05
	c0.11-0.008,0.312-0.038,0.453-0.064c0.142-0.029,0.37-0.072,0.514-0.096c0.372-0.063,0.953-0.214,1.178-0.301
	c0.106-0.043,0.224-0.085,0.267-0.101c0.145-0.049,0.221-0.079,0.32-0.123c0.056-0.025,0.188-0.085,0.292-0.132
	c0.406-0.185,0.78-0.441,1.445-0.99c0.826-0.681,1.316-1.275,1.582-1.916c0.134-0.325,0.184-0.583,0.172-0.888
	c-0.007-0.168,0.011-0.263,0.056-0.298c0.119-0.098,0.187-0.273,0.15-0.396c-0.031-0.107-0.053-0.123-0.215-0.172
	c-0.185-0.056-0.616-0.096-1.149-0.112c-0.287-0.009-0.336-0.009-0.726-0.007c-0.112,0-0.242,0.019-0.287,0.041
	c-0.045,0.021-0.095,0.022-0.112,0.002c-0.032-0.038-0.135-0.031-0.462,0.029c-0.085,0.016-0.219,0.04-0.304,0.054
	c-0.085,0.013-0.187,0.027-0.225,0.027c-0.041,0-0.151,0.016-0.251,0.038c-0.101,0.02-0.224,0.036-0.275,0.036
	s-0.159,0.024-0.237,0.056c-0.079,0.031-0.162,0.058-0.188,0.058c-0.025,0-0.104,0.038-0.177,0.087
	c-0.074,0.05-0.173,0.093-0.227,0.098c-0.052,0.004-0.17,0.044-0.261,0.089c-0.092,0.042-0.206,0.083-0.258,0.085
	c-0.049,0.005-0.119,0.029-0.151,0.059C29.453,9.152,29.373,9.187,29.31,9.2c-0.134,0.031-0.367,0.123-0.455,0.179
	c-0.032,0.022-0.181,0.112-0.326,0.202c-0.455,0.278-0.533,0.332-0.852,0.584c-0.403,0.323-0.832,0.721-0.983,0.917
	c-0.221,0.282-0.301,0.396-0.356,0.502c-0.032,0.059-0.076,0.142-0.104,0.19c-0.121,0.22-0.227,0.458-0.249,0.566
	c-0.015,0.065-0.057,0.228-0.091,0.354c-0.035,0.13-0.068,0.365-0.073,0.52s-0.022,0.294-0.036,0.306
	c-0.014,0.011-0.161,0.004-0.327-0.015c-0.166-0.018-0.318-0.021-0.336-0.006c-0.021,0.017-0.043,0.019-0.054,0.002
	c-0.04-0.049-0.869-0.113-1.146-0.089c-0.083,0.006-0.222,0.006-0.312-0.004c-0.308-0.032-0.593-0.027-0.863,0.017
	c-0.15,0.023-0.33,0.032-0.403,0.023c-0.074-0.011-0.168-0.009-0.21,0.002c-0.109,0.029-0.222,0.044-0.388,0.054
	c-0.076,0.005-0.155,0.022-0.175,0.038c-0.021,0.017-0.105,0.031-0.193,0.034c-0.087,0.002-0.229,0.036-0.32,0.074l-0.161,0.069
	l0.185-0.121c0.101-0.067,0.272-0.181,0.383-0.251c0.443-0.291,1.292-1.12,1.604-1.57c0.194-0.28,0.376-0.614,0.528-0.979
	c0.155-0.367,0.349-0.966,0.376-1.17c0.009-0.062,0.041-0.191,0.067-0.279c0.066-0.223,0.168-1.206,0.139-1.352
	c-0.013-0.062-0.02-0.194-0.013-0.289c0.011-0.207-0.038-0.461-0.145-0.739c-0.054-0.145-0.064-0.263-0.042-0.436
	c0.031-0.23,0.029-0.24-0.075-0.305c-0.128-0.076-0.372-0.034-0.527,0.094c-0.056,0.047-0.154,0.107-0.222,0.137
	c-0.218,0.097-1.135,0.787-1.158,0.869c-0.009,0.029-0.038,0.052-0.069,0.052c-0.069,0.002-0.793,0.65-0.942,0.848
	c-0.057,0.074-0.191,0.23-0.301,0.35s-0.211,0.244-0.227,0.278s-0.076,0.117-0.136,0.179c-0.14,0.148-0.368,0.466-0.377,0.527
	c-0.004,0.026-0.027,0.062-0.052,0.083c-0.024,0.021-0.062,0.083-0.09,0.144c-0.026,0.062-0.068,0.128-0.098,0.15
	c-0.029,0.021-0.05,0.062-0.047,0.087c0.002,0.024-0.034,0.13-0.081,0.232c-0.047,0.104-0.114,0.249-0.145,0.32
	c-0.03,0.072-0.085,0.188-0.121,0.253c-0.076,0.147-0.22,1.271-0.184,1.438c0.014,0.062,0.031,0.208,0.041,0.319
	c0.009,0.112,0.036,0.271,0.058,0.353c0.065,0.22,0.363,0.923,0.417,0.988c0.059,0.068,0.029,0.099-0.124,0.132
	c-0.061,0.014-0.113,0.038-0.115,0.056c-0.002,0.019-0.032,0.031-0.065,0.029s-0.134,0.034-0.229,0.081s-0.22,0.099-0.289,0.117
	c-0.067,0.018-0.164,0.066-0.219,0.111c-0.054,0.045-0.115,0.079-0.141,0.076c-0.023,0-0.166,0.059-0.311,0.132
	c-0.146,0.074-0.318,0.159-0.382,0.19c-0.066,0.031-0.125,0.083-0.143,0.121c-0.018,0.047-0.049,0.062-0.097,0.051
	c-0.042-0.009-0.087,0.014-0.121,0.058c-0.029,0.038-0.085,0.072-0.124,0.072c-0.079,0-0.609,0.334-1.257,0.789
	c-0.202,0.143-1.271,1.053-1.284,1.095c-0.006,0.021-0.123,0.138-0.26,0.259c-0.318,0.284-0.374,0.34-0.393,0.388
	c-0.009,0.021-0.074,0.083-0.147,0.137c-0.074,0.054-0.138,0.116-0.144,0.141c-0.007,0.025-0.028,0.062-0.052,0.081
	c-0.022,0.021-0.085,0.098-0.141,0.173c-0.057,0.075-0.14,0.177-0.188,0.229c-0.049,0.05-0.136,0.142-0.195,0.202
	c-0.058,0.061-0.118,0.142-0.134,0.175c-0.014,0.033-0.052,0.076-0.081,0.089c-0.028,0.015-0.087,0.09-0.125,0.168
	c-0.041,0.079-0.101,0.17-0.134,0.204c-0.034,0.034-0.074,0.087-0.09,0.119c-0.017,0.032-0.067,0.114-0.112,0.184
	c-0.047,0.069-0.114,0.18-0.155,0.242c-0.317,0.529-0.398,0.682-0.405,0.782c-0.004,0.065-0.022,0.132-0.038,0.146
	c-0.027,0.021-0.065,0.104-0.208,0.475c-0.079,0.202-0.197,0.708-0.177,0.762c0.009,0.029,0.004,0.063-0.014,0.076
	c-0.09,0.074-0.164,0.93-0.121,1.378c0.038,0.383,0.135,0.852,0.208,1.04 M39.556,21.521c0.07,0.021,0.143,0.056,0.155,0.072
	c0.014,0.018,0,0.25-0.034,0.521c-0.066,0.567-0.272,1.369-0.397,1.543c-0.125,0.175-0.191,0.159-0.208-0.051
	c-0.017-0.175-0.062-0.439-0.15-0.878c-0.061-0.293-0.298-0.831-0.41-0.923c-0.041-0.034-0.079-0.093-0.085-0.125
	c-0.007-0.034-0.141-0.273-0.298-0.531c-0.157-0.255-0.287-0.479-0.285-0.493c0.002-0.016,0.021-0.021,0.047-0.02
	c0.076,0.009,0.787,0.385,1.177,0.62C39.263,21.381,39.482,21.498,39.556,21.521z M38.991,18.455
	c0.234-0.021,0.249-0.018,0.348,0.102c0.056,0.066,0.181,0.271,0.277,0.449c0.229,0.425,0.294,0.822,0.245,1.497l-0.027,0.375
	l-0.114-0.024c-0.111-0.022-0.354-0.13-0.748-0.327c-0.742-0.37-0.815-0.401-1.1-0.439c-0.164-0.021-0.354-0.056-0.424-0.075
	c-0.152-0.042-0.356-0.235-1.165-1.09c-0.119-0.125-0.287-0.296-0.378-0.383c-0.124-0.119-0.157-0.166-0.133-0.186
	c0.019-0.017,0.164,0,0.318,0.034c0.157,0.033,0.502,0.071,0.77,0.087c0.267,0.015,0.594,0.034,0.729,0.041
	C37.826,18.53,38.499,18.499,38.991,18.455z M34.938,16.664c0.17,0.017,0.556,0.069,0.854,0.119c0.3,0.049,0.724,0.114,0.943,0.142
	c0.49,0.062,0.698,0.109,0.942,0.22c0.287,0.127,0.661,0.365,0.838,0.531c0.087,0.083,0.17,0.158,0.182,0.168
	c0.013,0.011,0.016,0.021,0.004,0.03c-0.009,0.007-0.1,0.021-0.199,0.027c-0.101,0.007-0.386,0.036-0.636,0.062
	c-0.484,0.055-0.589,0.06-0.854,0.036c-0.096-0.007-0.181-0.004-0.194,0.007c-0.017,0.014-0.034,0.012-0.048-0.005
	c-0.051-0.064-1.032-0.111-1.271-0.062l-0.146,0.029l-0.34-0.314c-0.343-0.316-0.753-0.667-0.845-0.722
	c-0.027-0.017-0.09-0.074-0.135-0.125c-0.047-0.053-0.102-0.104-0.121-0.112C33.753,16.622,34.255,16.605,34.938,16.664z
	 M32.711,17.048c0.175,0.029,1.355,0.872,1.9,1.354c0.101,0.09,0.251,0.224,0.334,0.296c0.081,0.072,0.34,0.338,0.572,0.587
	c0.725,0.775,0.796,0.853,0.921,0.957c0.067,0.059,0.135,0.104,0.152,0.105c0.059,0.004,0.134,0.125,0.123,0.189
	c-0.023,0.13,0.132,0.32,0.21,0.256c0.045-0.036,0.115,0.033,0.083,0.083c-0.016,0.025,0.011,0.062,0.096,0.121
	c0.104,0.074,0.117,0.097,0.098,0.168c-0.019,0.067-0.009,0.09,0.051,0.114c0.054,0.022,0.076,0.049,0.076,0.092
	c0,0.034,0.016,0.063,0.034,0.065c0.018,0.002,0.033,0.032,0.033,0.069c0,0.042,0.029,0.083,0.079,0.112
	c0.042,0.024,0.095,0.076,0.112,0.112s0.128,0.219,0.247,0.41c0.119,0.19,0.233,0.417,0.255,0.506
	c0.022,0.09,0.062,0.184,0.079,0.208c0.02,0.023,0.056,0.132,0.078,0.24c0.024,0.107,0.062,0.22,0.087,0.251
	c0.024,0.03,0.038,0.085,0.031,0.123c-0.007,0.035-0.004,0.08,0.007,0.094c0.014,0.016,0.027,0.09,0.031,0.168
	c0.007,0.081,0.018,0.175,0.024,0.22c0.038,0.202-0.099,0.296-0.392,0.27c-0.188-0.017-0.704-0.207-0.765-0.28
	c-0.016-0.021-0.147-0.092-0.296-0.159c-0.146-0.067-0.277-0.137-0.291-0.154c-0.033-0.041-0.341-0.208-0.52-0.284
	c-0.074-0.031-0.204-0.102-0.293-0.159c-0.087-0.057-0.278-0.155-0.417-0.22s-0.27-0.135-0.287-0.154
	c-0.027-0.034-0.197-0.125-0.513-0.275c-0.093-0.045-0.227-0.157-0.367-0.312c-0.121-0.133-0.33-0.354-0.462-0.49
	c-0.291-0.303-0.591-0.688-0.694-0.888c-0.042-0.083-0.114-0.223-0.161-0.316c-0.047-0.092-0.121-0.219-0.166-0.287
	c-0.085-0.128-0.3-0.708-0.293-0.789c0.002-0.029-0.014-0.074-0.036-0.101c-0.035-0.045-0.151-0.415-0.17-0.538
	c-0.054-0.408,0.017-1.201,0.127-1.456C32.529,17.138,32.621,17.032,32.711,17.048z M27.457,16.044
	c0.177,0.15,0.531,0.633,0.606,0.825c0.105,0.262,0.152,0.54,0.123,0.714c-0.068,0.415-0.186,0.813-0.319,1.089
	c-0.025,0.05-0.057,0.122-0.072,0.159c-0.031,0.072-0.096,0.095-0.134,0.047c-0.038-0.047-0.348-0.177-0.372-0.156
	c-0.013,0.011-0.036,0.002-0.054-0.021c-0.019-0.021-0.148-0.103-0.287-0.177c-0.202-0.11-0.3-0.188-0.482-0.39
	c-0.125-0.138-0.24-0.256-0.255-0.261c-0.029-0.011-0.197-0.322-0.273-0.516c-0.023-0.061-0.062-0.199-0.085-0.31
	c-0.021-0.106-0.052-0.213-0.064-0.226c-0.033-0.041-0.102-0.35-0.123-0.558c-0.022-0.22,0.074-1.052,0.135-1.144
	c0.062-0.097,0.102-0.09,0.439,0.094C26.715,15.474,27.069,15.714,27.457,16.044z M31.835,10.694
	c0.112-0.054,0.334-0.164,0.497-0.244c0.164-0.081,0.491-0.272,0.729-0.43s0.519-0.334,0.625-0.396
	c0.105-0.061,0.244-0.153,0.31-0.206c0.109-0.09,0.222-0.147,0.242-0.124c0.004,0.008-0.017,0.091-0.047,0.185
	c-0.074,0.229-0.157,0.4-0.267,0.551c-0.05,0.067-0.17,0.242-0.271,0.39c-0.102,0.148-0.278,0.37-0.396,0.493
	c-0.24,0.253-1.331,1.184-1.397,1.189c-0.065,0.007-0.329,0.144-0.514,0.262c-0.134,0.087-0.381,0.202-0.528,0.244
	c-0.062,0.018-0.166,0.061-0.229,0.092c-0.062,0.031-0.141,0.064-0.172,0.071c-0.168,0.041-0.338,0.101-0.441,0.155
	c-0.109,0.058-0.284,0.106-0.766,0.217c-0.124,0.028-0.247,0.066-0.269,0.087c-0.024,0.02-0.065,0.026-0.097,0.016
	c-0.028-0.011-0.125-0.004-0.215,0.015c-0.232,0.047-1.065,0.108-1.371,0.104l-0.144-0.002l0.206-0.144
	c0.113-0.079,0.249-0.168,0.305-0.202c0.054-0.034,0.277-0.175,0.5-0.316c0.401-0.258,0.699-0.426,1.109-0.627
	c0.269-0.132,0.987-0.504,1.072-0.556c0.034-0.021,0.087-0.047,0.117-0.059c0.217-0.079,0.32-0.13,0.333-0.168
	c0.009-0.026,0.038-0.045,0.072-0.045c0.032,0,0.227-0.103,0.433-0.23C31.465,10.896,31.725,10.747,31.835,10.694z M26.39,12.597
	c0.242-0.633,0.749-1.203,1.637-1.85c0.345-0.251,0.537-0.354,1.226-0.661c0.237-0.104,0.455-0.213,0.486-0.237
	c0.03-0.024,0.078-0.045,0.103-0.042c0.027,0.002,0.157-0.041,0.295-0.095c0.26-0.103,1.244-0.324,1.848-0.417
	c0.317-0.049,1.105-0.104,1.346-0.096c0.088,0.002,0.088,0.009-0.006,0.099c-0.057,0.055-0.188,0.146-0.298,0.208
	c-0.109,0.062-0.242,0.15-0.299,0.195c-0.056,0.047-0.118,0.076-0.141,0.07c-0.022-0.009-0.067,0.009-0.104,0.038
	c-0.036,0.028-0.187,0.108-0.334,0.179s-0.466,0.258-0.71,0.419c-0.243,0.161-0.523,0.333-0.622,0.385
	c-0.208,0.107-0.178,0.093-0.37,0.176c-0.152,0.064-0.478,0.243-0.621,0.338c-0.042,0.028-0.102,0.058-0.132,0.068
	c-0.095,0.031-0.455,0.208-0.604,0.298c-0.078,0.048-0.272,0.161-0.435,0.254c-0.159,0.092-0.374,0.229-0.476,0.3
	c-0.101,0.07-0.208,0.132-0.237,0.132s-0.105,0.029-0.163,0.067c-0.062,0.035-0.174,0.094-0.249,0.128
	c-0.076,0.032-0.202,0.111-0.28,0.177c-0.076,0.062-0.23,0.157-0.336,0.206s-0.257,0.147-0.333,0.22
	c-0.137,0.128-0.296,0.202-0.332,0.157C26.22,13.278,26.312,12.799,26.39,12.597z M22.979,7.488c0.1-0.056,0.27-0.161,0.386-0.239
	c0.194-0.13,0.206-0.135,0.182-0.052c-0.016,0.052-0.016,0.101-0.002,0.116c0.045,0.054,0.083,0.619,0.056,0.827
	c-0.016,0.115-0.041,0.37-0.054,0.556c-0.021,0.296-0.166,1.006-0.208,1.04c-0.006,0.007-0.029,0.078-0.049,0.157
	c-0.021,0.081-0.045,0.154-0.058,0.166c-0.014,0.011-0.038,0.087-0.059,0.172c-0.021,0.083-0.081,0.22-0.135,0.298
	c-0.054,0.079-0.119,0.2-0.145,0.267c-0.198,0.54-1.086,1.513-2.197,2.413c-0.441,0.356-0.479,0.383-0.552,0.353
	c-0.104-0.042-0.184-0.206-0.336-0.697c-0.125-0.406-0.132-0.457-0.099-0.872c0.031-0.388,0.058-0.498,0.233-0.921
	c0.354-0.854,0.392-0.917,1.117-1.824C21.438,8.781,22.63,7.685,22.979,7.488z"/>
<path fill="#FFFFFF" d="M16.258,33.365c-3.173-3.507-4.849-8.927-4.302-14.107c0.502-4.75,2.723-8.565,6.251-10.745l-0.562-0.909
	c-3.817,2.356-6.215,6.457-6.753,11.543c-0.618,5.853,1.461,12.01,5.3,15.687c0.021,0.021,0.045,0.04,0.064,0.062v-1.528
	L16.258,33.365L16.258,33.365z"/>
<path fill="#FFFFFF" d="M21.584,0.163c-0.036-0.106-0.132-0.175-0.226-0.161c-0.119,0.019-2.951,0.455-4.061,2.759
	c-1.106,2.301-0.027,5.503,0.021,5.64c0.035,0.106,0.132,0.175,0.227,0.162c0.016-0.002,0.083-0.012,0.188-0.034
	c0.67-0.136,2.914-0.734,3.871-2.724C22.711,3.501,21.629,0.297,21.584,0.163z M21.653,3.973l-2.685,1.193
	c0.287-0.603,0.592-1.201,0.891-1.761l1.814-0.547C21.694,3.22,21.688,3.596,21.653,3.973z M19.682,2.803l-0.899-1.166
	c0.753-0.597,1.615-0.903,2.146-1.049C20.643,1.073,20.186,1.865,19.682,2.803z M21.633,2.37L20.176,2.81
	c0.482-0.888,0.91-1.625,1.159-2.045C21.436,1.138,21.563,1.708,21.633,2.37z M17.656,3.014c0.208-0.436,0.493-0.795,0.809-1.099
	l1.002,1.295c-0.336,0.639-0.681,1.324-1.002,2.013l-1.093-1.39C17.438,3.551,17.528,3.275,17.656,3.014z M17.267,4.385l0.999,1.268
	c-0.298,0.666-0.562,1.32-0.759,1.922C17.327,6.835,17.11,5.592,17.267,4.385z M21.244,5.549c-0.798,1.661-2.662,2.276-3.434,2.466
	c0.204-0.666,0.507-1.42,0.854-2.189l2.908-1.295C21.503,4.881,21.398,5.227,21.244,5.549z"/>
<path fill="#FFFFFF" d="M199.961,42.203c-0.065-0.109-0.24-0.182-0.391-0.164c-0.057,0.007-0.138-0.044-0.255-0.166
	c-0.214-0.217-0.436-0.357-0.763-0.483c-0.647-0.249-1.414-0.301-2.479-0.166c-0.855,0.107-1.3,0.204-1.712,0.372
	c-0.104,0.042-0.239,0.096-0.296,0.121c-0.104,0.042-0.178,0.075-0.312,0.147c-0.037,0.021-0.152,0.076-0.255,0.125
	c-0.22,0.104-0.727,0.425-1.028,0.649c-0.117,0.087-0.306,0.224-0.424,0.307s-0.277,0.21-0.358,0.285
	c-0.082,0.074-0.158,0.125-0.175,0.114c-0.016-0.012-0.014-0.034,0.007-0.053c0.05-0.044,0.25-0.457,0.244-0.5
	c-0.002-0.021,0.053-0.121,0.119-0.217s0.121-0.204,0.116-0.234c-0.005-0.031,0.049-0.14,0.116-0.235
	c0.066-0.096,0.13-0.22,0.137-0.27c0.007-0.049,0.036-0.125,0.065-0.166c0.028-0.04,0.096-0.196,0.151-0.352
	c0.057-0.155,0.135-0.37,0.18-0.489c0.178-0.48,0.234-0.689,0.209-0.757c-0.019-0.042,0.002-0.121,0.049-0.204
	c0.043-0.076,0.074-0.168,0.066-0.213c-0.005-0.043,0.019-0.168,0.053-0.278c0.033-0.109,0.074-0.267,0.087-0.35
	c0.014-0.083,0.04-0.202,0.061-0.265c0.021-0.065,0.045-0.157,0.06-0.212c0.016-0.074,0.063-0.114,0.189-0.168
	c0.223-0.093,0.362-0.229,0.779-0.756c0.193-0.243,0.391-0.466,0.443-0.502c0.055-0.036,0.104-0.089,0.118-0.123
	c0.013-0.033,0.143-0.222,0.291-0.424c0.15-0.202,0.268-0.381,0.266-0.402c-0.002-0.022,0.031-0.062,0.081-0.093
	c0.047-0.028,0.083-0.076,0.078-0.103c-0.006-0.027,0.05-0.096,0.121-0.15c0.151-0.121,0.444-0.511,0.464-0.621
	c0.007-0.045,0.064-0.158,0.128-0.258c0.163-0.26,0.406-1.04,0.35-1.111c-0.012-0.013-0.008-0.103,0.009-0.203
	c0.017-0.102,0.019-0.293,0.004-0.436c-0.032-0.363-0.036-0.428-0.011-0.509c0.011-0.038-0.009-0.206-0.045-0.376
	c-0.038-0.17-0.085-0.403-0.109-0.522c-0.05-0.251-0.263-0.686-0.371-0.762c-0.04-0.027-0.081-0.081-0.086-0.11
	c-0.005-0.03-0.064-0.115-0.135-0.188s-0.17-0.184-0.229-0.249c-0.057-0.065-0.27-0.249-0.477-0.415
	c-0.206-0.164-0.372-0.314-0.374-0.336s0.013-0.105,0.029-0.187c0.038-0.173-0.009-0.277-0.147-0.331
	c-0.075-0.029-0.109-0.027-0.14,0.009c-0.02,0.026-0.109,0.058-0.199,0.068c-0.153,0.021-0.177,0.01-0.45-0.208
	c-0.168-0.134-0.475-0.319-0.736-0.449c-0.488-0.24-0.848-0.401-0.878-0.399c-0.013,0.002-0.069-0.022-0.128-0.056
	c-0.06-0.031-0.235-0.104-0.394-0.157c-0.155-0.054-0.412-0.161-0.565-0.24c-0.157-0.079-0.318-0.141-0.365-0.141
	c-0.059,0-0.099-0.036-0.133-0.114c-0.057-0.132-0.113-0.139-0.099-0.014c0.007,0.052-0.005,0.092-0.024,0.094
	c-0.021,0.002-0.026,0.052-0.017,0.104c0.025,0.125-0.042,0.459-0.115,0.583c-0.031,0.053-0.1,0.206-0.149,0.344
	c-0.052,0.137-0.146,0.385-0.211,0.556c-0.065,0.17-0.137,0.368-0.159,0.441c-0.021,0.073-0.139,0.417-0.258,0.767
	c-0.211,0.616-0.24,0.719-0.386,1.351c-0.203,0.874-0.253,1.418-0.194,2.157c0.101,1.307,0.748,2.944,1.449,3.664
	c0.438,0.446,1.188,0.948,1.515,1.011c0.105,0.021,0.199,0.048,0.211,0.062c0.017,0.02-0.066,0.28-0.54,1.667
	c-0.161,0.471-0.3,0.832-0.347,0.897c-0.019,0.027-0.136,0.24-0.256,0.474c-0.216,0.412-0.711,1.274-0.891,1.546
	c-0.13,0.197-0.175,0.139-0.104-0.13c0.19-0.725-0.011-1.561-0.535-2.211c-0.164-0.202-0.905-0.574-1.479-0.74
	c-0.181-0.051-0.448-0.134-0.602-0.184c-0.152-0.051-0.296-0.088-0.319-0.083c-0.053,0.007-0.271,0.649-0.356,1.034
	c-0.081,0.363-0.119,0.933-0.083,1.212c0.036,0.28,0.18,0.671,0.398,1.075c0.296,0.549,0.467,0.763,0.971,1.21
	c0.369,0.329,0.486,0.421,0.598,0.461c0.086,0.031,0.115,0.067,0.126,0.144c0.012,0.083-0.038,0.164-0.238,0.398
	c-0.138,0.162-0.318,0.359-0.399,0.433c-0.152,0.14-0.329,0.315-0.737,0.734c-0.477,0.488-1.636,1.467-2.095,1.767
	c-0.016,0.011-0.033,0.021-0.054,0.033v1.396c0.018-0.017,0.038-0.021,0.052-0.017c0.014,0.01,0.069-0.012,0.121-0.047
	c0.128-0.09,0.168-0.088,0.179,0c0.012,0.086,0.318,0.783,0.434,0.981c0.041,0.071,0.139,0.201,0.215,0.284s0.171,0.194,0.206,0.248
	c0.099,0.142,1.013,0.81,1.172,0.854c0.071,0.021,0.194,0.062,0.267,0.087c0.074,0.027,0.226,0.079,0.332,0.114
	c0.107,0.036,0.21,0.083,0.228,0.103c0.016,0.018,0.058,0.03,0.094,0.025c0.038-0.005,0.114,0.009,0.177,0.031
	c0.063,0.022,0.135,0.038,0.166,0.034c0.031-0.005,0.071,0.004,0.096,0.02c0.053,0.033,0.439,0.088,0.643,0.088
	c0.087,0,0.189,0.012,0.224,0.022c0.036,0.013,0.195,0.023,0.356,0.026c0.161,0.002,0.37,0.014,0.462,0.021
	c0.244,0.024,1.212-0.054,1.261-0.103c0.022-0.023,0.059-0.029,0.085-0.017c0.076,0.04,1.208-0.154,1.428-0.245
	c0.067-0.025,0.181-0.058,0.251-0.066c0.199-0.023,0.399-0.175,0.432-0.317c0.025-0.121,0.02-0.128-0.169-0.265
	c-0.144-0.102-0.222-0.193-0.286-0.33c-0.128-0.266-0.28-0.478-0.439-0.611c-0.07-0.061-0.163-0.156-0.199-0.208
	c-0.085-0.121-0.868-0.724-1.074-0.827c-0.083-0.04-0.197-0.106-0.249-0.143c-0.168-0.119-0.735-0.391-1.109-0.529
	c-0.369-0.139-0.736-0.236-1.073-0.286c-0.54-0.081-1.728-0.033-2.242,0.087c-0.128,0.031-0.326,0.078-0.443,0.104l-0.213,0.052
	l0.161-0.068c0.091-0.037,0.211-0.118,0.273-0.183c0.062-0.06,0.132-0.113,0.156-0.116c0.024-0.002,0.092-0.049,0.146-0.101
	c0.121-0.114,0.208-0.184,0.309-0.244c0.037-0.023,0.103-0.092,0.145-0.152c0.043-0.061,0.177-0.184,0.294-0.274
	c0.219-0.168,0.417-0.37,0.605-0.616c0.056-0.072,0.148-0.175,0.213-0.229c0.208-0.185,0.729-0.832,0.721-0.896
	c-0.002-0.018,0.015-0.036,0.038-0.038c0.025-0.002,0.126-0.114,0.228-0.249c0.102-0.134,0.196-0.244,0.215-0.247
	c0.019-0.002,0.128,0.081,0.244,0.185c0.117,0.103,0.312,0.239,0.431,0.302c0.119,0.062,0.266,0.144,0.32,0.177
	c0.097,0.06,0.341,0.146,0.585,0.209c0.054,0.014,0.144,0.038,0.208,0.057c0.114,0.03,0.253,0.052,0.609,0.085
	c0.248,0.023,0.831-0.015,1.343-0.085c0.399-0.057,0.495-0.076,1.01-0.218c0.166-0.046,0.335-0.09,0.372-0.1
	c0.102-0.024,0.327-0.132,0.444-0.208c0.054-0.035,0.134-0.069,0.177-0.076c0.042-0.004,0.108-0.038,0.146-0.071
	c0.038-0.033,0.145-0.092,0.237-0.128c0.095-0.035,0.204-0.094,0.244-0.128c0.04-0.036,0.142-0.079,0.227-0.099
	c0.085-0.021,0.168-0.051,0.187-0.069c0.019-0.018,0.095-0.062,0.171-0.097c0.076-0.036,0.168-0.096,0.204-0.134
	s0.132-0.116,0.215-0.176c0.085-0.06,0.173-0.129,0.199-0.157c0.026-0.029,0.104-0.092,0.175-0.146
	c0.068-0.051,0.18-0.132,0.249-0.184c0.269-0.197,0.343-0.27,0.338-0.316c-0.002-0.023,0.032-0.062,0.079-0.081
	c0.045-0.018,0.146-0.101,0.226-0.181c0.27-0.283,0.304-0.318,0.493-0.532c0.356-0.397,0.623-0.741,0.708-0.914
	C200.015,42.324,200.017,42.297,199.961,42.203z M195.815,33.198c0,0-0.002,0.128-0.002,0.249c-0.003,0.244-0.087,0.679-0.19,0.975
	c-0.088,0.251-0.197,0.436-0.489,0.835c-0.13,0.178-0.374,0.531-0.544,0.782c-0.17,0.253-0.395,0.569-0.499,0.704
	c-0.427,0.54-0.783,0.893-0.73,0.721c0.007-0.02,0.007-0.096,0-0.165c-0.008-0.07-0.005-0.152,0.003-0.185
	c0.021-0.104,0.051-0.646,0.056-1.112l0.005-0.461l0.121-0.085c0.201-0.141,0.84-0.885,0.828-0.968
	c-0.002-0.02,0.01-0.034,0.029-0.036c0.019-0.002,0.081-0.062,0.142-0.137c0.165-0.206,0.241-0.28,0.613-0.596
	c0.192-0.164,0.408-0.353,0.483-0.419c0.076-0.069,0.146-0.125,0.159-0.125C195.809,33.171,195.815,33.183,195.815,33.198z
	 M194.048,31.161c0.128-0.423,0.217-0.672,0.275-0.769l0.061-0.1l0.291,0.238c0.524,0.428,0.771,0.748,0.921,1.206
	c0.065,0.192,0.126,0.423,0.138,0.511c0.021,0.152,0.014,0.164-0.163,0.32c-0.372,0.327-0.854,0.795-1.012,0.98
	c-0.087,0.104-0.3,0.354-0.471,0.559c-0.173,0.204-0.381,0.48-0.464,0.618c-0.083,0.134-0.17,0.251-0.195,0.253
	c-0.033,0.005-0.045-0.051-0.045-0.225c0-0.125-0.009-0.366-0.02-0.537c-0.065-1.177-0.065-1.456,0.009-1.596
	c0.034-0.064,0.142-0.226,0.235-0.36C193.779,32.029,193.808,31.955,194.048,31.161z M191.986,28.784
	c0.213,0.029,0.938,0.43,1.396,0.771c0.22,0.164,0.399,0.313,0.401,0.336c0.002,0.021-0.022,0.097-0.055,0.164
	c-0.033,0.066-0.099,0.307-0.147,0.538c-0.096,0.445-0.312,1.219-0.355,1.28c-0.016,0.022-0.033,0.029-0.047,0.021
	c-0.012-0.009-0.086-0.255-0.164-0.544c-0.078-0.292-0.158-0.555-0.182-0.583c-0.021-0.027-0.035-0.098-0.031-0.148
	c0.009-0.146-0.218-0.688-0.39-0.932c-0.258-0.368-0.419-0.581-0.533-0.712C191.739,28.814,191.772,28.752,191.986,28.784z
	 M191.858,38.087c-0.263-0.094-0.889-0.587-1.147-0.907c-0.078-0.097-0.267-0.435-0.275-0.493c-0.005-0.036-0.025-0.079-0.049-0.097
	c-0.064-0.052-0.339-0.604-0.372-0.755c-0.018-0.081-0.061-0.219-0.094-0.317c-0.036-0.1-0.088-0.245-0.119-0.334
	c-0.076-0.213-0.146-0.697-0.168-1.116c-0.009-0.19-0.027-0.495-0.04-0.672c-0.016-0.206-0.005-0.383,0.026-0.479
	c0.106-0.332,0.159-0.518,0.151-0.562c-0.002-0.024,0.036-0.168,0.085-0.313c0.051-0.146,0.108-0.352,0.129-0.455
	c0.021-0.104,0.059-0.246,0.088-0.321c0.065-0.183,0.155-0.522,0.148-0.574c-0.002-0.022,0.036-0.164,0.088-0.318
	c0.053-0.151,0.09-0.298,0.087-0.325c-0.011-0.094,0.206-0.601,0.322-0.749c0.186-0.229,0.347-0.267,0.467-0.101
	c0.027,0.036,0.089,0.11,0.142,0.168c0.055,0.058,0.099,0.121,0.102,0.139c0.002,0.019,0.031,0.053,0.064,0.072
	c0.034,0.021,0.062,0.067,0.068,0.108c0.006,0.038,0.062,0.143,0.121,0.234c0.062,0.093,0.116,0.19,0.121,0.223
	c0.005,0.028,0.05,0.122,0.097,0.199c0.05,0.081,0.138,0.318,0.192,0.536c0.055,0.219,0.114,0.421,0.128,0.459
	s0.017,0.11,0.007,0.159c-0.014,0.057-0.002,0.105,0.029,0.135c0.026,0.027,0.037,0.057,0.026,0.072
	c-0.012,0.013,0,0.044,0.021,0.069c0.031,0.029,0.036,0.064,0.017,0.119c-0.022,0.061-0.015,0.085,0.047,0.116
	c0.066,0.034,0.073,0.059,0.057,0.187c-0.014,0.104-0.01,0.148,0.021,0.155c0.059,0.011,0.062,0.109,0.005,0.119
	c-0.102,0.014-0.069,0.258,0.043,0.329c0.056,0.036,0.089,0.176,0.054,0.22c-0.012,0.014-0.021,0.094-0.029,0.184
	c-0.009,0.164-0.005,0.27,0.062,1.326c0.021,0.343,0.038,0.71,0.034,0.82c-0.002,0.109-0.01,0.309-0.015,0.445
	c-0.021,0.727-0.222,2.165-0.319,2.311C192.229,38.175,192.089,38.17,191.858,38.087z M186.817,49.47
	c1.416-0.19,2.732-0.166,3.262,0.059c0.064,0.026,0.199,0.062,0.292,0.078c0.092,0.016,0.235,0.063,0.309,0.106
	c0.076,0.046,0.15,0.078,0.166,0.076c0.017-0.003,0.088,0.031,0.159,0.071c0.071,0.041,0.139,0.074,0.147,0.072
	c0.057-0.007,0.668,0.376,0.897,0.562c0.146,0.116,0.346,0.273,0.441,0.34c0.171,0.124,0.554,0.538,0.562,0.607
	c0.003,0.021,0.041,0.054,0.088,0.079c0.076,0.04,0.067,0.047-0.161,0.099c-0.135,0.031-0.329,0.08-0.438,0.114
	c-0.383,0.118-1.996,0.231-2.597,0.184c-1.159-0.094-1.23-0.109-2.097-0.438c-0.428-0.163-0.525-0.22-0.828-0.462
	c-0.322-0.261-0.355-0.3-0.563-0.67c-0.252-0.447-0.316-0.615-0.276-0.725C186.21,49.555,186.255,49.543,186.817,49.47z
	 M189.165,44.059c-0.102,0.372-0.121,0.405-0.232,0.383c-0.109-0.021-0.779-0.518-0.923-0.688c-0.137-0.158-0.313-0.421-0.32-0.473
	c-0.003-0.021-0.06-0.112-0.121-0.202c-0.062-0.092-0.14-0.215-0.165-0.272c-0.085-0.187-0.2-0.522-0.188-0.552
	c0.007-0.016,0-0.179-0.014-0.364c-0.021-0.27-0.011-0.396,0.048-0.616c0.04-0.152,0.071-0.302,0.067-0.329
	c-0.005-0.029,0.006-0.052,0.021-0.054c0.034-0.005,0.15-0.316,0.145-0.376c-0.007-0.061,0.054-0.095,0.128-0.065
	c0.038,0.014,0.111,0.038,0.166,0.056c0.293,0.093,0.663,0.28,1.013,0.517c0.147,0.099,0.315,0.325,0.435,0.58
	c0.088,0.188,0.192,0.774,0.183,1.006C189.376,43.115,189.307,43.54,189.165,44.059z M198.408,43.039
	c-0.157,0.181-0.742,0.715-0.995,0.912c-0.479,0.375-1.315,0.938-1.57,1.056c-0.135,0.062-0.256,0.13-0.271,0.15
	c-0.017,0.021-0.063,0.04-0.104,0.047c-0.04,0.004-0.267,0.09-0.506,0.19c-0.697,0.289-0.903,0.357-1.322,0.437
	c-1.077,0.204-1.842,0.18-2.467-0.081c-0.202-0.083-0.611-0.343-0.618-0.392c-0.007-0.059,0.156-0.124,0.344-0.135
	c0.103-0.007,0.279-0.047,0.388-0.093c0.107-0.045,0.282-0.092,0.381-0.103c0.101-0.014,0.244-0.049,0.32-0.081
	c0.076-0.031,0.193-0.074,0.262-0.091c0.067-0.019,0.142-0.051,0.162-0.074c0.02-0.021,0.137-0.058,0.26-0.083
	c0.121-0.023,0.367-0.087,0.544-0.139c0.177-0.053,0.396-0.117,0.481-0.142c0.166-0.047,0.543-0.186,0.63-0.232
	c0.029-0.017,0.09-0.036,0.142-0.047c0.168-0.038,0.521-0.152,0.672-0.218c0.192-0.083,0.159-0.068,0.382-0.146
	c0.106-0.039,0.424-0.121,0.708-0.188c0.284-0.066,0.641-0.17,0.791-0.229c0.149-0.06,0.312-0.115,0.357-0.119
	c0.047-0.006,0.09-0.027,0.102-0.049c0.01-0.022,0.073-0.047,0.147-0.056c0.071-0.01,0.228-0.048,0.347-0.083
	c0.121-0.036,0.278-0.07,0.356-0.074C198.462,42.97,198.466,42.972,198.408,43.039z M198.708,42.407
	c-0.083,0.011-0.246,0.047-0.363,0.083c-0.116,0.036-0.437,0.117-0.715,0.184c-0.277,0.065-0.643,0.171-0.812,0.233
	c-0.173,0.062-0.403,0.149-0.521,0.192c-0.116,0.042-0.4,0.13-0.634,0.191c-0.233,0.063-0.443,0.134-0.464,0.157
	c-0.022,0.024-0.057,0.034-0.081,0.022c-0.035-0.017-0.144,0.021-0.351,0.127c-0.027,0.013-0.081,0.036-0.122,0.045
	c-0.097,0.026-0.86,0.293-1.142,0.398c-0.426,0.159-0.754,0.261-1.216,0.375c-0.256,0.062-0.511,0.127-0.574,0.146
	c-0.062,0.018-0.22,0.054-0.355,0.083l-0.244,0.052l0.097-0.105c0.206-0.224,0.824-0.783,1.021-0.923
	c0.073-0.052,0.146-0.119,0.155-0.147c0.015-0.031,0.048-0.057,0.079-0.062s0.145-0.064,0.249-0.137
	c0.412-0.275,0.568-0.368,0.686-0.408c0.109-0.038,0.271-0.121,0.417-0.215c0.026-0.018,0.104-0.051,0.173-0.076
	c0.066-0.023,0.168-0.068,0.225-0.103c0.134-0.078,0.383-0.179,0.539-0.217c0.213-0.052,0.493-0.152,0.545-0.193
	c0.052-0.042,1.478-0.199,1.826-0.199c0.17,0,0.452,0.022,0.627,0.051c0.178,0.029,0.388,0.062,0.469,0.072
	c0.187,0.025,0.365,0.081,0.585,0.185c0.089,0.042,0.165,0.085,0.165,0.085C198.968,42.347,198.849,42.39,198.708,42.407z"/>
<path fill="#FFFFFF" d="M188.524,54.501c-1.082,0.289-2.188,0.421-3.297,0.41v1.075c1.201,0.012,2.397-0.139,3.571-0.45
	L188.524,54.501z"/>
<path fill="#FFFFFF" d="M192.824,53.898c-2.104-0.67-4.08,0.551-4.642,0.942c-0.087,0.062-0.141,0.104-0.151,0.113
	c-0.076,0.062-0.092,0.176-0.04,0.276c0.066,0.127,1.65,3.112,4.084,3.888c2.434,0.774,4.699-0.98,4.793-1.058
	c0.076-0.062,0.092-0.175,0.041-0.276C196.844,57.657,195.258,54.672,192.824,53.898z M195.013,55.866l-1.645,0.943
	c-0.609-0.17-1.254-0.358-1.892-0.564l2.712-1.129C194.487,55.349,194.763,55.605,195.013,55.866z M196.149,57.969
	c-0.472,0.285-1.286,0.7-2.236,0.84l-0.229-1.454C194.711,57.629,195.603,57.843,196.149,57.969z M196.304,57.55
	c-0.477-0.108-1.307-0.307-2.279-0.563l1.318-0.757C195.771,56.737,196.1,57.222,196.304,57.55z M191.346,58.324l-0.258-1.747
	c0.719,0.239,1.456,0.461,2.151,0.653l0.253,1.618c-0.438,0.021-0.896-0.021-1.354-0.166
	C191.863,58.594,191.599,58.471,191.346,58.324z M188.722,55.656c0.573,0.27,1.23,0.526,1.918,0.77l0.237,1.598
	C189.89,57.307,189.136,56.293,188.722,55.656z M193.729,54.792l-2.938,1.227c-0.798-0.275-1.556-0.573-2.178-0.885
	c0.667-0.431,2.393-1.36,4.148-0.801C193.103,54.442,193.425,54.601,193.729,54.792z"/>
<path fill="#FFFFFF" d="M128.111,26.033c0.554-0.352,1.084-0.677,1.61-0.986c0.057,0.292,0.272,0.614,0.658,0.986h1.855
	c-0.136-0.112-0.271-0.227-0.41-0.341c-0.405-0.336-0.685-0.562-0.878-0.708c0.821-0.031,1.6,0.042,2.312,0.217
	c0.461,0.124,1.364,0.365,1.953,0.832h1.328c-0.297-0.481-0.721-0.878-1.11-1.104c-0.642-0.382-1.371-0.666-2.176-0.852
	c-0.457-0.099-0.948-0.157-1.483-0.177c1.973-1.051,4.104-2.007,6.353-2.851c0.337,0.625,0.729,1.208,1.175,1.734
	c0.235,0.28,0.49,0.549,0.777,0.82c0.276,0.267,0.572,0.518,0.878,0.746c0.359,0.269,1.07,0.746,1.771,0.912
	c0.822,0.206,1.438-0.019,1.824-0.663c0.712-1.166-0.263-2.628-1.087-3.33c-0.421-0.363-0.91-0.663-1.494-0.919
	c-0.303-0.127-0.614-0.229-0.915-0.31l0.489-0.159l2.1-0.579c0.353-0.095,0.717-0.178,1.068-0.256
	c0.208-0.047,0.414-0.094,0.62-0.141l0.843-0.195l0.697-0.127c0.215,0.354,0.433,0.767,0.661,1.203
	c0.179,0.343,0.361,0.695,0.558,1.04c0.267,0.471,0.502,0.836,0.737,1.146c0.3,0.4,0.594,0.703,0.892,0.923
	c0.419,0.309,0.93,0.47,1.407,0.447c0.272-0.02,0.504-0.075,0.705-0.177c0.237-0.119,0.438-0.298,0.595-0.533
	c0.649-0.97,0.506-1.993-0.417-2.962c-0.188-0.199-0.415-0.398-0.668-0.594c-0.235-0.179-0.481-0.329-0.782-0.501
	c-0.279-0.157-0.578-0.305-0.896-0.446c0.836-0.113,1.698-0.229,2.56-0.289c0.889-0.099,1.805-0.135,2.688-0.17
	c0.155-0.007,0.312-0.014,0.47-0.021c0.007,0.606,0.099,1.215,0.272,1.811c0.195,0.667,0.484,1.303,0.863,1.89
	c0.182,0.279,0.667,0.985,1.259,1.495c0.688,0.627,1.298,0.807,1.862,0.549c0.568-0.261,0.889-0.833,0.925-1.662
	c0.031-0.715-0.165-1.43-0.357-1.86c-0.253-0.562-0.618-1.065-1.12-1.542c-0.251-0.234-0.502-0.44-0.746-0.609
	c-0.038-0.026-0.078-0.052-0.119-0.078c0.152,0.002,0.307,0.011,0.467,0.02c0.089,0.004,0.18,0.009,0.268,0.015l1.812,0.094
	l0.907,0.089c0.215,0.021,0.433,0.045,0.65,0.064c0.383,0.036,0.778,0.074,1.159,0.125l1.617,0.242
	c-0.02,0.627-0.028,1.407,0.043,2.173c0.085,0.916,0.268,1.672,0.562,2.309c0.226,0.493,0.56,0.932,0.912,1.201
	c0.489,0.394,0.993,0.492,1.493,0.289c1.23-0.493,1.355-2.211,1.141-3.245c-0.092-0.461-0.263-0.926-0.499-1.382
	c-0.109-0.208-0.237-0.422-0.381-0.635c-0.022-0.034-0.047-0.066-0.072-0.098c0.012,0.002,0.023,0.006,0.036,0.009l1.896,0.478
	c0.351,0.081,0.701,0.188,1.042,0.293l1.243,0.381v0.011l0.003,0.142c0.002,0.341,0.007,0.684,0.017,1.026
	c0.011,0.466,0.035,0.845,0.073,1.199c0.1,0.912,0.31,1.663,0.642,2.292c0.096,0.188,0.229,0.397,0.421,0.665
	c0.175,0.249,0.36,0.464,0.551,0.644h2.483c0.361-0.536,0.402-1.323,0.296-1.896c-0.11-0.583-0.33-1.169-0.671-1.797
	c-0.188-0.346-0.398-0.682-0.622-0.995l0.305,0.121c0.369,0.144,0.732,0.267,1.077,0.368c0.312,0.094,0.661,0.177,1.092,0.264
	c0.372,0.085,0.739,0.144,1.086,0.173c0.65,0.054,1.347-0.087,1.862-0.376c0.643-0.363,0.975-0.935,0.93-1.609l0,0
	c-0.04-0.596-0.388-1.11-1.004-1.491c-0.511-0.312-1.146-0.516-1.741-0.557c-0.833-0.076-1.745-0.016-2.713,0.183
	c-0.144,0.033-0.827,0.264-1.404,0.475c-0.305,0.112-0.599,0.222-0.817,0.307l-0.218,0.087c-0.068-0.054-0.149-0.089-0.236-0.101
	c-0.11-0.013-0.224,0.009-0.323,0.065c-1.717-0.552-3.718-1.154-5.832-1.586c0.367-0.053,0.757-0.124,1.174-0.21
	c0.741-0.15,1.438-0.377,2.068-0.669c0.577-0.269,1.102-0.724,1.368-1.188c0.36-0.632,0.263-1.289-0.268-1.801
	c-0.473-0.466-1.154-0.682-1.978-0.616c-0.188,0.016-0.356,0.038-0.522,0.074c-0.163,0.038-0.329,0.087-0.495,0.144
	c-0.288,0.097-0.579,0.219-0.866,0.363c-0.761,0.383-1.424,0.887-1.971,1.501c-0.487,0.558-0.887,1.201-1.183,1.914
	c-2.189-0.361-4.461-0.567-6.912-0.623l0.08-0.034c0.229-0.099,0.455-0.179,0.694-0.267c0.117-0.042,0.234-0.085,0.353-0.128
	c0.331-0.121,0.674-0.23,1.035-0.346c0.181-0.058,0.365-0.116,0.549-0.177c0.105-0.034,0.211-0.066,0.315-0.101
	c0.429-0.138,0.87-0.28,1.284-0.472c0.71-0.324,1.191-0.876,1.257-1.438c0.036-0.313-0.038-0.78-0.604-1.221
	c-0.315-0.244-0.701-0.396-1.146-0.453c-0.228-0.027-0.434-0.031-0.628-0.014c-0.197,0.021-0.407,0.059-0.62,0.11
	c-0.645,0.157-1.342,0.448-2.141,0.896c-0.758,0.447-1.432,1.006-2.006,1.657c-0.523,0.597-0.944,1.248-1.278,1.987l-1.738,0.072
	c-0.403,0.024-0.809,0.061-1.201,0.099c-0.222,0.021-0.443,0.041-0.67,0.062c-0.109,0.011-0.218,0.02-0.327,0.028
	c-0.204,0.019-0.407,0.034-0.61,0.062l-2.205,0.298c0.128-0.139,0.265-0.265,0.393-0.381c0.312-0.278,0.649-0.533,0.909-0.725
	l0.979-0.715c0.32-0.229,0.651-0.468,0.969-0.736c0.641-0.55,1.169-1.239,1.451-1.896c0.378-0.883,0.303-1.683-0.223-2.312
	c-0.551-0.663-1.317-0.888-2.159-0.635c-0.175,0.052-0.35,0.125-0.528,0.218c-0.149,0.083-0.308,0.188-0.481,0.324
	c-0.289,0.229-0.556,0.507-0.771,0.801c-1.297,1.728-2.125,3.935-2.407,6.39c-0.059,0.011-0.118,0.021-0.177,0.031
	c-0.209,0.036-0.42,0.073-0.629,0.121l-0.951,0.217c-0.187,0.045-0.371,0.085-0.559,0.128c-0.44,0.099-0.899,0.202-1.342,0.336
	c-0.235,0.067-0.473,0.132-0.708,0.197c-0.39,0.106-0.78,0.213-1.172,0.33l-1.181,0.383c0.43-0.576,0.935-1.295,1.25-1.958
	c0.312-0.65,0.39-1.174,0.234-1.603c-0.123-0.341-0.393-0.608-0.796-0.798c-0.327-0.155-0.646-0.206-0.945-0.157
	c-0.272,0.045-0.525,0.17-0.748,0.372c-0.37,0.336-0.649,0.874-0.836,1.599c-0.179,0.676-0.229,1.425-0.236,1.933
	c-0.013,0.576,0.021,1.042,0.062,1.318l-0.812,0.305c-0.297,0.11-0.602,0.222-0.893,0.354l-1.861,0.793l-1.982,0.947
	c-0.099,0.047-0.195,0.093-0.296,0.145l-0.597,0.319c0.133-0.203,0.265-0.414,0.393-0.625l0.04-0.064
	c0.272-0.448,0.534-0.872,0.695-1.31c0.437-1.153,0.092-1.974-1.026-2.438c-0.379-0.154-0.73-0.21-1.046-0.161
	c-0.152,0.022-0.299,0.072-0.439,0.146c-0.124,0.071-0.236,0.166-0.345,0.282c-0.353,0.386-0.579,0.992-0.673,1.804
	c-0.087,0.769-0.038,1.57,0.021,2.107c0.073,0.661,0.183,1.194,0.235,1.438c-0.825,0.479-1.676,1.008-2.536,1.57l-0.299,0.195
	l0.462,0.266h1.103v-0.014H128.111z M179.054,19.323c0.407,0.009,1.044,0.157,1.471,0.428c0.217,0.142,0.343,0.296,0.371,0.459
	c0.031,0.178-0.048,0.389-0.229,0.623c-0.471,0.609-1.772,0.282-2.209,0.175c-0.604-0.125-1.217-0.298-1.829-0.509
	c-0.15-0.049-0.298-0.104-0.446-0.164c-0.148-0.058-0.3-0.113-0.448-0.166c-0.143-0.049-0.285-0.103-0.432-0.158
	C176.423,19.501,177.716,19.265,179.054,19.323z M173.62,20.557c0.511,0.583,0.992,1.143,1.396,1.755
	c0.349,0.556,0.581,1.025,0.737,1.482c0.097,0.268,0.168,0.544,0.209,0.823l0.007,0.029c0.044,0.149,0.047,0.267,0.004,0.317
	c-0.052,0.065-0.213,0.093-0.426,0.074l-0.089-0.007l-0.07,0.059c-0.146,0.125-0.271,0.187-0.361,0.173
	c-0.022-0.002-0.091-0.012-0.183-0.14l-0.021-0.026c-0.187-0.187-0.351-0.398-0.486-0.637c-0.229-0.372-0.392-0.789-0.516-1.309
	C173.622,22.316,173.613,21.427,173.62,20.557z M168.057,15.127c0.535-0.404,1.38-0.883,2.345-0.847h0.014h0.014
	c0.546-0.044,0.84,0.204,0.918,0.775c-0.179,0.352-0.464,0.596-0.885,0.751c-0.408,0.194-0.865,0.329-1.302,0.445
	c-0.119,0.031-0.237,0.062-0.365,0.09c-0.121,0.03-0.242,0.062-0.365,0.09c-0.241,0.054-0.487,0.101-0.729,0.137
	c-0.346,0.054-0.704,0.089-1.066,0.112C166.947,16.195,167.416,15.612,168.057,15.127z M166.213,18.478l0.322,0.064
	c0.578,0.581,0.957,1.067,1.226,1.564c0.306,0.592,0.469,1.161,0.486,1.691c0.023,0.711-0.054,1.058-0.585,1.227
	c-0.235,0.072-0.426,0.058-0.587-0.038c-0.291-0.175-0.514-0.647-0.661-1.405C166.222,20.577,166.201,19.29,166.213,18.478z
	 M158.301,14.47L158.301,14.47c0.374-0.313,0.803-0.581,1.383-0.863l0.059-0.029c1.014-0.495,2.224-0.562,2.38-0.564
	c1.616,0.583-0.307,1.089-0.307,1.089l-0.089,0.034l-0.036,0.018c-0.096,0.058-0.264,0.099-0.411,0.134
	c-0.102,0.025-0.196,0.047-0.281,0.076l-1.732,0.605l-0.739,0.265c-0.168,0.061-0.333,0.127-0.499,0.197
	c-0.081,0.032-0.161,0.066-0.242,0.101l-0.791,0.332C157.364,15.344,157.802,14.876,158.301,14.47z M158.173,18.973
	c0.486,0.435,0.827,0.876,1.043,1.352c0.118,0.26,0.201,0.522,0.239,0.755c0.103,0.623,0.103,0.623-0.419,0.824l-0.123,0.047
	c-0.155,0.062-0.303,0.121-0.344,0.112c-0.024-0.004-0.12-0.1-0.199-0.177l-0.139-0.138c-0.152-0.149-0.297-0.292-0.431-0.455
	c-0.33-0.394-0.604-0.835-0.817-1.312c-0.296-0.656-0.461-1.352-0.492-2.065C157.08,18.21,157.672,18.547,158.173,18.973z
	 M150.354,19.637L150.354,19.637c0.434,0.264,0.766,0.551,0.983,0.854c0.24,0.323,0.356,0.654,0.346,0.981
	c-0.011,0.345-0.087,0.589-0.218,0.708c-0.049,0.042-0.104,0.071-0.184,0.085c-0.071,0.016-0.154,0.018-0.246,0.005
	c-0.403-0.063-0.883-0.396-1.071-0.612c-0.22-0.251-0.395-0.571-0.563-0.881l-0.107-0.195c-0.356-0.639-0.708-1.255-1.068-1.869
	C148.958,18.923,149.751,19.265,150.354,19.637z M148.368,15.04c0.202-0.608,0.455-1.206,0.751-1.771
	c0.047-0.092,0.097-0.188,0.146-0.289c0.311-0.61,0.692-1.372,1.229-1.779c0.352-0.258,0.679-0.388,0.956-0.388
	c0.204,0,0.381,0.072,0.519,0.213c0.271,0.28,0.362,0.807,0.217,1.25c-0.097,0.298-0.283,0.618-0.54,0.932
	c-0.256,0.31-0.562,0.607-0.94,0.914c-0.34,0.28-0.703,0.561-1.077,0.831l-0.273,0.2c-0.438,0.318-0.886,0.643-1.293,1.017
	C148.147,15.784,148.25,15.406,148.368,15.04z M140.284,20.97c0.533,0.116,0.986,0.251,1.378,0.409
	c0.954,0.41,1.604,0.998,1.93,1.746c0.145,0.327,0.179,0.895-0.09,1.039c-0.13,0.07-0.322,0.083-0.554,0.036
	c-0.237-0.049-0.461-0.125-0.629-0.217c-0.382-0.202-0.787-0.498-1.275-0.928c-0.41-0.361-0.789-0.771-1.125-1.214
	c-0.258-0.337-0.49-0.692-0.696-1.062l0.345,0.054C139.83,20.877,140.063,20.922,140.284,20.97z M139.021,17.806
	c0.051-0.316,0.121-0.72,0.257-1.05l0.396-0.674c0.473-0.177,0.58-0.096,0.582-0.094c0.016,0.014,0.041,0.083,0.01,0.244
	l-0.007,0.036l0.004,0.036c0.069,0.468-0.307,0.963-0.639,1.399c-0.083,0.11-0.165,0.217-0.237,0.32
	c-0.135,0.193-0.279,0.401-0.428,0.614C138.96,18.351,138.979,18.073,139.021,17.806z M130.188,20.915l0.005-0.123
	c0.01-0.271,0.024-0.717,0.133-0.932c0.17-0.152,0.311-0.258,0.432-0.32c0.131-0.062,0.247-0.094,0.349-0.094
	c0.115,0,0.288,0.04,0.447,0.36c0.107,0.237,0.116,0.468,0.024,0.708l-0.011,0.035c-0.043,0.211-0.121,0.424-0.249,0.678
	c-0.1,0.202-0.228,0.41-0.398,0.655c-0.128,0.183-0.265,0.361-0.399,0.54c-0.083,0.107-0.164,0.218-0.245,0.327
	C130.188,22.103,130.159,21.498,130.188,20.915z"/>
<path fill="#FFFFFF" d="M64.145,22.863c0,0-0.075-0.024-0.208-0.062c0.059,0.08,0.119,0.163,0.178,0.243
	C64.135,22.93,64.145,22.863,64.145,22.863z"/>
<path fill="#FFFFFF" d="M64.113,23.046c0.021-0.116,0.031-0.184,0.031-0.184s-0.075-0.024-0.208-0.062
	C63.997,22.882,64.057,22.963,64.113,23.046z"/>
<path fill="#FFFFFF" d="M64.113,23.046c0.021-0.116,0.031-0.184,0.031-0.184s-0.075-0.024-0.208-0.062
	C63.997,22.882,64.057,22.963,64.113,23.046z"/>
<path fill="#FFFFFF" d="M39.827,15.142c0.791,0.023,1.707-0.095,2.496-0.587c1.243-0.775,1.797-2.24,2.024-3.112
	c0.963,0.18,1.89,0.388,2.778,0.614c-0.408,0.09-0.815,0.239-1.192,0.475c-1.804,1.125-2.155,3.701-2.169,3.812l-0.045,0.354
	l0.338,0.117c0.059,0.02,0.865,0.289,1.881,0.32c0.79,0.023,1.706-0.095,2.495-0.588c1.426-0.887,1.942-2.68,2.104-3.447
	c1.304,0.468,2.514,0.989,3.639,1.555c-0.9-0.123-2.165-0.123-3.204,0.527c-1.804,1.125-2.155,3.7-2.169,3.811l-0.045,0.354
	l0.338,0.116c0.059,0.021,0.865,0.289,1.88,0.32c0.791,0.024,1.707-0.094,2.496-0.585c1.689-1.051,2.104-3.379,2.162-3.762
	c1.402,0.802,2.66,1.674,3.778,2.585c-0.908-0.155-2.306-0.217-3.442,0.491c-1.804,1.125-2.154,3.701-2.169,3.812l-0.044,0.354
	l0.338,0.115c0.059,0.021,0.865,0.289,1.88,0.32c0.791,0.025,1.707-0.094,2.496-0.584c1.45-0.903,1.961-2.743,2.113-3.489
	c1.134,1.044,2.106,2.128,2.947,3.221c-0.895-0.176-2.409-0.301-3.623,0.457c-1.347,0.84-1.884,2.488-2.075,3.317h0.903
	c0.196-0.739,0.653-1.965,1.633-2.574c1.093-0.682,2.59-0.44,3.271-0.279c-0.154,0.681-0.596,2.129-1.693,2.81
	c-0.025,0.016-0.052,0.029-0.079,0.043h1.354c0.716-0.812,1.069-1.844,1.23-2.494c0.567,0.84,1.056,1.677,1.48,2.494h1.651
	c-0.629-1.297-1.407-2.647-2.377-4c0.573-0.48,1.967-1.819,2.065-3.54c0.122-2.122-1.783-3.894-1.864-3.97l-0.262-0.242
	l-0.289,0.211c-0.091,0.065-2.186,1.609-2.307,3.73c-0.013,0.232,0.002,0.459,0.031,0.684c-0.529-0.542-1.096-1.073-1.703-1.596
	c0.656-0.629,1.636-1.794,1.716-3.225c0.121-2.122-1.784-3.894-1.863-3.97L60.47,9.875l-0.289,0.211
	c-0.089,0.065-2.185,1.609-2.306,3.73c-0.027,0.478,0.052,0.937,0.186,1.365c-0.579-0.387-1.183-0.761-1.818-1.118
	c0.651-0.647,1.542-1.769,1.62-3.13c0.121-2.122-1.784-3.895-1.864-3.971l-0.262-0.241l-0.289,0.211
	c-0.089,0.064-2.186,1.608-2.307,3.729c-0.042,0.755,0.174,1.465,0.469,2.073c-0.938-0.423-1.935-0.816-2.984-1.179
	c0.634-0.562,1.829-1.826,1.92-3.413c0.121-2.122-1.784-3.895-1.864-3.968l-0.262-0.242l-0.289,0.21
	c-0.089,0.064-2.185,1.608-2.306,3.73c-0.074,1.272,0.583,2.417,1.138,3.148c-1.219-0.358-2.509-0.674-3.87-0.941
	c-0.181-0.036-0.363-0.074-0.546-0.107c-0.025-0.004-0.049-0.01-0.076-0.014c0.642-0.658,1.454-1.74,1.53-3.041
	c0.121-2.122-1.784-3.894-1.864-3.968l-0.262-0.242l-0.289,0.21c-0.089,0.065-2.185,1.609-2.306,3.73
	c-0.074,1.272,0.583,2.417,1.139,3.147c0.26,0.076,0.513,0.157,0.766,0.238c0.019,0.007,0.038,0.011,0.057,0.019
	c-0.908-0.15-2.286-0.204-3.408,0.494c-1.804,1.123-2.155,3.701-2.169,3.812l-0.045,0.354l0.338,0.117
	C38.005,14.84,38.812,15.11,39.827,15.142z M64.113,23.046c-0.059-0.081-0.119-0.164-0.178-0.244
	c0.133,0.035,0.208,0.062,0.208,0.062S64.135,22.93,64.113,23.046z M63.425,18.272c0.074-1.284,1.132-2.371,1.656-2.832
	c0.468,0.52,1.396,1.721,1.322,3.004c-0.074,1.284-1.131,2.371-1.656,2.833C64.276,20.754,63.351,19.556,63.425,18.272z
	 M58.009,21.784c-1.093,0.681-2.59,0.441-3.271,0.28c0.153-0.681,0.598-2.128,1.693-2.811c1.094-0.681,2.591-0.44,3.271-0.279
	C59.549,19.656,59.104,21.102,58.009,21.784z M60.402,11.03c0.468,0.52,1.396,1.721,1.321,3.005
	c-0.066,1.184-0.97,2.196-1.521,2.711c-0.047,0.045-0.092,0.085-0.135,0.121c-0.135-0.149-0.31-0.357-0.486-0.606
	c-0.435-0.614-0.89-1.483-0.836-2.397C58.821,12.578,59.878,11.493,60.402,11.03z M53.011,18.455
	c-1.093,0.682-2.59,0.441-3.271,0.28c0.154-0.681,0.596-2.128,1.693-2.81c1.095-0.682,2.591-0.441,3.271-0.28
	C54.552,16.324,54.108,17.772,53.011,18.455z M54.01,10.707c0.074-1.284,1.132-2.371,1.656-2.833
	c0.468,0.521,1.396,1.722,1.322,3.005c-0.069,1.206-1.004,2.236-1.554,2.74c-0.035,0.034-0.068,0.065-0.103,0.092
	c-0.065-0.071-0.141-0.158-0.22-0.258C54.622,12.854,53.945,11.812,54.01,10.707z M48.691,7.917
	c0.073-1.283,1.131-2.371,1.655-2.833c0.469,0.521,1.396,1.72,1.322,3.005c-0.074,1.284-1.131,2.371-1.656,2.834
	C49.543,10.403,48.617,9.208,48.691,7.917z M49.666,12.997c-0.155,0.685-0.601,2.131-1.694,2.812
	c-1.094,0.681-2.59,0.44-3.271,0.279c0.155-0.681,0.599-2.129,1.693-2.81C47.488,12.597,48.984,12.833,49.666,12.997z M42.144,6.692
	c0.074-1.284,1.132-2.371,1.656-2.832c0.468,0.52,1.396,1.719,1.322,3.005c-0.074,1.284-1.131,2.371-1.656,2.834
	C42.995,9.18,42.07,7.983,42.144,6.692z M40.284,11.283c0.932-0.581,2.154-0.493,2.919-0.352c0.132,0.024,0.251,0.049,0.352,0.073
	c-0.021,0.085-0.043,0.185-0.071,0.291c-0.204,0.742-0.664,1.923-1.623,2.521c-1.094,0.681-2.588,0.441-3.27,0.28
	C38.747,13.411,39.193,11.961,40.284,11.283z"/>
<path fill="#FFFFFF" d="M16.258,61.588c-0.234,0.168-0.495,0.311-0.778,0.398c-1.223,0.397-2.618-0.196-3.239-0.52
	c0.315-0.625,1.098-1.923,2.32-2.318c0.561-0.182,1.154-0.155,1.696-0.043v-2.429c-0.323-0.301-0.643-0.609-0.961-0.936
	c0.132-0.056,0.509-0.229,0.961-0.518v-1.071c-0.372,0.29-0.74,0.505-0.995,0.637c-0.329-0.615-0.938-2.005-0.558-3.234
	c0.262-0.846,0.948-1.481,1.553-1.904v-1.037c-0.791,0.461-1.972,1.346-2.386,2.682c-0.363,1.173-0.045,2.394,0.302,3.233
	c-0.829-0.945-1.64-1.983-2.424-3.128c0.704-0.353,2.308-1.307,2.805-2.909c0.276-0.887,0.159-1.806-0.064-2.562
	c-0.287-0.976-0.753-1.688-0.786-1.739l-0.197-0.298l-0.332,0.134c-0.103,0.041-2.507,1.033-3.139,3.062
	c-0.132,0.426-0.172,0.855-0.157,1.272C9.432,47.559,9,46.716,8.581,45.829c0.786-0.44,2.062-1.347,2.498-2.745
	c0.275-0.887,0.159-1.806-0.065-2.562c-0.287-0.975-0.753-1.688-0.787-1.739l-0.196-0.298l-0.332,0.134
	c-0.104,0.041-2.507,1.033-3.14,3.063c-0.392,1.264,0.01,2.583,0.384,3.424c-0.012-0.019-0.022-0.034-0.031-0.052
	c-0.142-0.225-0.285-0.45-0.423-0.682c-0.848-0.352-2.12-0.696-3.334-0.305c-2.023,0.654-2.987,3.072-3.025,3.175l-0.13,0.331
	l0.3,0.193c0.092,0.061,2.29,1.454,4.312,0.8c1.238-0.401,2.079-1.464,2.555-2.25c0.011,0.021,0.02,0.047,0.031,0.069
	c0.081,0.171,0.16,0.334,0.241,0.502c0.604,1.25,1.235,2.42,1.892,3.507c-0.848-0.353-2.119-0.697-3.334-0.305
	c-2.023,0.653-2.986,3.07-3.024,3.175l-0.13,0.332l0.3,0.191c0.093,0.062,2.29,1.454,4.312,0.8c1.512-0.487,2.431-1.965,2.815-2.72
	c0.616,0.923,1.248,1.785,1.896,2.588c-0.661-0.135-1.402-0.164-2.122,0.069C8.019,55.18,7.055,57.597,7.017,57.7l-0.13,0.334
	l0.301,0.192c0.093,0.061,2.29,1.454,4.312,0.8c1.297-0.419,2.158-1.564,2.619-2.359c0.509,0.524,1.023,1.016,1.542,1.479
	c-0.448-0.022-0.912,0.019-1.367,0.166c-2.023,0.653-2.986,3.072-3.024,3.175l-0.13,0.332l0.3,0.192
	c0.093,0.061,2.29,1.453,4.312,0.8c0.177-0.06,0.347-0.13,0.509-0.211L16.258,61.588L16.258,61.588z M4.343,47.739
	c-1.224,0.396-2.619-0.198-3.24-0.521c0.316-0.625,1.099-1.923,2.321-2.319c1.23-0.399,2.622,0.195,3.24,0.518
	C6.353,46.043,5.568,47.34,4.343,47.739z M7.955,45.177c-0.049-0.093-0.104-0.199-0.159-0.323C7.469,44.15,7.072,42.99,7.4,41.941
	c0.381-1.229,1.669-2.025,2.292-2.349c0.328,0.618,0.938,2.006,0.556,3.232c-0.336,1.078-1.36,1.822-2.028,2.207
	C8.12,45.089,8.033,45.137,7.955,45.177z M7.186,53.765c-1.224,0.396-2.619-0.196-3.239-0.521c0.315-0.625,1.098-1.923,2.32-2.318
	c1.23-0.398,2.622,0.194,3.24,0.518C9.193,52.069,8.409,53.368,7.186,53.765z M10.872,47.351c0.383-1.235,1.669-2.031,2.29-2.352
	c0.33,0.619,0.938,2.005,0.558,3.236c-0.381,1.228-1.669,2.025-2.292,2.348C11.098,49.967,10.488,48.58,10.872,47.351z
	 M13.489,56.007c-0.351,0.658-1.109,1.823-2.258,2.195c-1.225,0.396-2.619-0.197-3.24-0.52c0.315-0.625,1.098-1.922,2.32-2.318
	c1.054-0.341,2.231,0.051,2.937,0.371c0.114,0.052,0.217,0.104,0.304,0.148C13.534,55.922,13.511,55.964,13.489,56.007z"/>
<path fill="#FFFFFF" d="M115.719,26.033c0.021-3.2,0.689-9.647,3.729-11.196c0.701-0.355,1.967-0.781,2.599,0.36
	c0.715,1.297,0.247,3.973-2.135,5.384c-0.585,0.348-0.763,0.057-0.83-0.056c-0.307-0.511-0.244-1.911,1.279-2.828l-0.725-1.203
	c-2.021,1.214-2.545,3.438-1.763,4.75c0.479,0.8,1.515,1.275,2.749,0.542c2.955-1.752,3.769-5.235,2.649-7.269
	c-0.397-0.723-1.103-1.329-2.086-1.454c-0.665-0.085-1.463,0.052-2.382,0.52c-4.051,2.066-4.468,9.841-4.492,12.447h1.405
	L115.719,26.033L115.719,26.033z"/>
<polygon fill="#FFFFFF" points="15.284,25.291 15.284,73.26 24.781,73.26 24.781,70.829 17.712,70.829 17.712,27.721 
	183.783,27.721 183.783,70.807 176.802,70.807 176.802,73.239 186.212,73.239 186.212,25.291 "/>
<path fill="#FFFFFF" d="M29.356,65.756c0-0.369,0.3-0.67,0.67-0.67h6.157c1.001,0,1.896,0.14,2.685,0.417
	c0.789,0.279,1.456,0.675,2.005,1.184s0.97,1.118,1.266,1.826c0.293,0.708,0.441,1.491,0.441,2.35v0.05
	c0,0.972-0.175,1.822-0.524,2.552c-0.352,0.731-0.833,1.346-1.444,1.839c-0.612,0.492-1.329,0.863-2.149,1.11
	c-0.818,0.246-1.696,0.369-2.635,0.369h-2.792v4.34c0,0.37-0.3,0.671-0.67,0.671h-2.339c-0.37,0-0.67-0.301-0.67-0.671V65.756
	L29.356,65.756z M35.942,73.512c0.921,0,1.638-0.242,2.148-0.728c0.508-0.486,0.762-1.087,0.762-1.804v-0.047
	c0-0.827-0.267-1.456-0.8-1.888c-0.534-0.43-1.262-0.643-2.185-0.643H33.03v5.106h2.912V73.512z"/>
<path fill="#FFFFFF" d="M45.966,65.086h2.337c0.37,0,0.67,0.301,0.67,0.67v12.049c0,0.368,0.301,0.67,0.67,0.67h6.988
	c0.37,0,0.67,0.3,0.67,0.67v1.978c0,0.37-0.3,0.671-0.67,0.671H45.966c-0.37,0-0.67-0.301-0.67-0.671V65.758
	C45.296,65.387,45.597,65.086,45.966,65.086z"/>
<path fill="#FFFFFF" d="M60.738,65.086h11.236c0.37,0,0.67,0.301,0.67,0.67v1.93c0,0.37-0.3,0.67-0.67,0.67h-7.608
	c-0.37,0-0.67,0.301-0.67,0.67v2.051c0,0.369,0.3,0.67,0.67,0.67h6.536c0.37,0,0.67,0.3,0.67,0.669v1.931c0,0.37-0.3,0.67-0.67,0.67
	h-6.536c-0.37,0-0.67,0.301-0.67,0.67v2.169c0,0.37,0.3,0.67,0.67,0.67h7.729c0.37,0,0.67,0.301,0.67,0.67v1.929
	c0,0.37-0.3,0.671-0.67,0.671H60.738c-0.369,0-0.67-0.301-0.67-0.671V65.759C60.068,65.387,60.369,65.086,60.738,65.086z"/>
<path fill="#FFFFFF" d="M82.232,64.968h2.503c0.269,0,0.511,0.16,0.615,0.407l6.986,16.417h-3.39c-0.273,0-0.519-0.166-0.621-0.417
	l-1.188-2.913c-0.103-0.253-0.347-0.417-0.621-0.417h-6.164c-0.272,0-0.518,0.166-0.621,0.417l-1.188,2.913
	c-0.103,0.253-0.348,0.417-0.621,0.417h-3.298l6.988-16.417C81.722,65.126,81.964,64.968,82.232,64.968z M85.275,73.875
	l-1.222-2.979c-0.226-0.557-1.013-0.557-1.238,0l-1.222,2.979c-0.182,0.442,0.144,0.925,0.621,0.925h2.442
	C85.132,74.802,85.457,74.319,85.275,73.875z"/>
<path fill="#FFFFFF" d="M100.879,82.032c-1.271,0-2.521-0.22-3.746-0.656c-1.02-0.364-1.961-0.89-2.826-1.579
	c-0.292-0.23-0.322-0.671-0.083-0.957l1.331-1.596c0.229-0.272,0.627-0.307,0.915-0.097c0.604,0.44,1.216,0.805,1.841,1.089
	c0.803,0.365,1.684,0.549,2.638,0.549c0.762,0,1.354-0.139,1.776-0.416c0.421-0.28,0.635-0.666,0.635-1.158v-0.047
	c0-0.239-0.046-0.447-0.133-0.635c-0.09-0.182-0.256-0.354-0.505-0.513c-0.246-0.159-0.589-0.318-1.027-0.479
	c-0.439-0.16-1.012-0.327-1.712-0.502c-0.846-0.206-1.611-0.438-2.297-0.689c-0.685-0.252-1.268-0.568-1.747-0.943
	c-0.479-0.374-0.848-0.837-1.111-1.396c-0.262-0.558-0.396-1.25-0.396-2.076v-0.05c0-0.762,0.142-1.451,0.427-2.063
	c0.286-0.611,0.684-1.142,1.196-1.586c0.516-0.446,1.126-0.788,1.841-1.026c0.716-0.239,1.502-0.357,2.357-0.357
	c1.227,0,2.354,0.182,3.377,0.549c1.028,0.365,1.967,0.89,2.827,1.575l-1.909,2.77c-0.748-0.511-1.48-0.912-2.195-1.205
	c-0.718-0.294-1.432-0.442-2.148-0.442s-1.254,0.139-1.613,0.418c-0.355,0.277-0.536,0.624-0.536,1.038v0.047
	c0,0.271,0.052,0.507,0.155,0.703c0.104,0.199,0.292,0.379,0.564,0.537c0.272,0.159,0.643,0.311,1.111,0.453
	c0.471,0.142,1.063,0.31,1.78,0.499c0.846,0.226,1.601,0.476,2.264,0.753c0.661,0.28,1.222,0.611,1.675,1.002
	c0.454,0.391,0.8,0.848,1.029,1.373c0.231,0.527,0.349,1.154,0.349,1.888v0.047c0,0.829-0.15,1.563-0.45,2.207
	c-0.301,0.644-0.721,1.188-1.257,1.622c-0.538,0.438-1.18,0.772-1.926,1.002C102.613,81.915,101.786,82.032,100.879,82.032z"/>
<path fill="#FFFFFF" d="M117.157,82.055c-2.243,0-4.009-0.621-5.297-1.862c-1.291-1.239-1.935-3.094-1.935-5.559v-8.878
	c0-0.369,0.3-0.67,0.67-0.67h2.337c0.369,0,0.67,0.301,0.67,0.67v8.78c0,1.369,0.318,2.398,0.954,3.09
	c0.64,0.693,1.521,1.038,2.65,1.038c1.13,0,2.013-0.332,2.648-1.002c0.637-0.667,0.954-1.669,0.954-3.007v-8.899
	c0-0.369,0.301-0.67,0.671-0.67h2.335c0.368,0,0.67,0.301,0.67,0.67v8.757c0,1.271-0.171,2.38-0.515,3.317
	c-0.341,0.938-0.831,1.724-1.468,2.354c-0.636,0.628-1.407,1.099-2.313,1.406C119.28,81.901,118.271,82.055,117.157,82.055z"/>
<path fill="#FFFFFF" d="M128.229,65.756c0-0.369,0.301-0.67,0.67-0.67h6.969c2.115,0,3.736,0.564,4.869,1.696
	c0.954,0.954,1.43,2.228,1.43,3.817v0.05c0,1.351-0.332,2.453-0.991,3.305c-0.502,0.647-1.12,1.163-1.854,1.546
	c-0.37,0.192-0.517,0.644-0.28,0.988l3.627,5.306h-3.938c-0.225,0-0.434-0.111-0.557-0.298l-3.379-5.049h-0.05h-2.838v4.677
	c0,0.369-0.302,0.67-0.671,0.67h-2.338c-0.368,0-0.669-0.301-0.669-0.67L128.229,65.756L128.229,65.756z M135.631,73.202
	c0.907,0,1.603-0.215,2.088-0.644c0.486-0.431,0.728-1.001,0.728-1.719v-0.05c0-0.795-0.254-1.392-0.764-1.79
	c-0.511-0.396-1.219-0.596-2.124-0.596h-2.979c-0.37,0-0.67,0.3-0.67,0.67v3.457c0,0.37,0.3,0.67,0.67,0.67L135.631,73.202
	L135.631,73.202z"/>
<path fill="#FFFFFF" d="M146.157,65.086h11.235c0.37,0,0.671,0.301,0.671,0.67v1.93c0,0.37-0.301,0.67-0.671,0.67h-7.608
	c-0.369,0-0.67,0.301-0.67,0.67v2.051c0,0.369,0.301,0.67,0.67,0.67h6.536c0.37,0,0.67,0.3,0.67,0.669v1.931
	c0,0.37-0.3,0.67-0.67,0.67h-6.536c-0.369,0-0.67,0.301-0.67,0.67v2.169c0,0.37,0.301,0.67,0.67,0.67h7.729
	c0.369,0,0.67,0.301,0.67,0.67v1.929c0,0.37-0.301,0.671-0.67,0.671h-11.356c-0.37,0-0.67-0.301-0.67-0.671V65.759
	C145.487,65.387,145.787,65.086,146.157,65.086z"/>
<path fill="#FFFFFF" d="M167.442,82.032c-1.272,0-2.521-0.22-3.746-0.656c-1.021-0.364-1.96-0.89-2.825-1.579
	c-0.291-0.23-0.322-0.671-0.083-0.957l1.331-1.596c0.229-0.272,0.627-0.307,0.914-0.097c0.603,0.44,1.217,0.805,1.842,1.089
	c0.802,0.365,1.683,0.549,2.637,0.549c0.764,0,1.356-0.139,1.777-0.416c0.421-0.28,0.634-0.666,0.634-1.158v-0.047
	c0-0.239-0.045-0.447-0.132-0.635c-0.09-0.182-0.256-0.354-0.504-0.513c-0.247-0.159-0.59-0.318-1.028-0.479
	c-0.439-0.159-1.011-0.327-1.712-0.502c-0.845-0.206-1.611-0.438-2.297-0.689c-0.687-0.252-1.27-0.568-1.748-0.943
	c-0.479-0.374-0.847-0.837-1.111-1.396c-0.262-0.558-0.394-1.25-0.394-2.076v-0.05c0-0.762,0.141-1.451,0.425-2.063
	c0.287-0.611,0.684-1.142,1.196-1.586c0.516-0.446,1.128-0.788,1.842-1.026c0.715-0.239,1.502-0.357,2.356-0.357
	c1.227,0,2.354,0.182,3.378,0.549c1.027,0.365,1.967,0.89,2.826,1.575l-1.908,2.77c-0.748-0.511-1.48-0.912-2.195-1.205
	c-0.717-0.294-1.432-0.442-2.148-0.442c-0.718,0-1.255,0.139-1.612,0.418c-0.356,0.277-0.536,0.624-0.536,1.038v0.047
	c0,0.271,0.052,0.507,0.154,0.703c0.104,0.199,0.291,0.379,0.564,0.537c0.273,0.159,0.643,0.311,1.111,0.453
	c0.471,0.142,1.063,0.31,1.781,0.499c0.845,0.226,1.6,0.476,2.263,0.753c0.661,0.28,1.222,0.611,1.674,1.002
	c0.455,0.391,0.8,0.848,1.03,1.373c0.23,0.527,0.348,1.154,0.348,1.888v0.047c0,0.829-0.148,1.563-0.45,2.207
	c-0.3,0.644-0.72,1.188-1.257,1.622c-0.538,0.438-1.179,0.772-1.925,1.002C169.177,81.915,168.351,82.032,167.442,82.032z"/>
<path fill="#FFFFFF" d="M22.344,35.88h3.71c0.367,0,0.663,0.299,0.663,0.663v7.735c0,0.367,0.298,0.663,0.663,0.663h7.965
	c0.368,0,0.663-0.298,0.663-0.663v-7.735c0-0.366,0.298-0.663,0.664-0.663h3.71c0.367,0,0.663,0.299,0.663,0.663v21.573
	c0,0.367-0.298,0.663-0.663,0.663h-3.71c-0.368,0-0.664-0.298-0.664-0.663v-7.867c0-0.367-0.298-0.663-0.663-0.663h-7.963
	c-0.368,0-0.664,0.3-0.664,0.663v7.867c0,0.367-0.298,0.663-0.663,0.663h-3.71c-0.367,0-0.663-0.298-0.663-0.663V36.543
	C21.68,36.179,21.979,35.88,22.344,35.88z"/>
<path fill="#FFFFFF" d="M47.208,35.88h15.913c0.367,0,0.663,0.299,0.663,0.663v3.155c0,0.368-0.298,0.663-0.663,0.663H52.18
	c-0.367,0-0.663,0.298-0.663,0.664v3.318c0,0.366,0.299,0.663,0.663,0.663h9.47c0.366,0,0.662,0.298,0.662,0.663v3.155
	c0,0.368-0.298,0.663-0.662,0.663h-9.47c-0.367,0-0.663,0.298-0.663,0.664v3.48c0,0.367,0.299,0.663,0.663,0.663h11.105
	c0.367,0,0.663,0.299,0.663,0.663v3.155c0,0.367-0.298,0.663-0.663,0.663H47.206c-0.368,0-0.664-0.299-0.664-0.663V36.541
	C46.544,36.179,46.84,35.88,47.208,35.88z"/>
<path fill="#FFFFFF" d="M76.754,35.717h3.77c0.267,0,0.506,0.158,0.609,0.402l9.249,21.736c0.187,0.437-0.135,0.923-0.609,0.923
	h-3.82c-0.27,0-0.514-0.164-0.614-0.412l-1.756-4.309c-0.102-0.249-0.345-0.412-0.614-0.412h-8.792
	c-0.269,0-0.513,0.163-0.614,0.412l-1.757,4.309c-0.101,0.248-0.345,0.412-0.614,0.412h-3.686c-0.475,0-0.798-0.486-0.61-0.923
	l9.25-21.736C76.248,35.875,76.488,35.717,76.754,35.717z M81.24,48.281l-2.054-5.013c-0.224-0.549-1.004-0.549-1.228,0
	l-2.055,5.013c-0.18,0.438,0.141,0.914,0.613,0.914h4.107C81.097,49.195,81.417,48.717,81.24,48.281z"/>
<path fill="#FFFFFF" d="M94.97,35.88h3.71c0.368,0,0.664,0.299,0.664,0.663v17.027c0,0.367,0.298,0.663,0.663,0.663h10.091
	c0.367,0,0.663,0.298,0.663,0.663v3.222c0,0.368-0.298,0.664-0.663,0.664H94.97c-0.367,0-0.663-0.299-0.663-0.664V36.546
	C94.307,36.179,94.603,35.88,94.97,35.88z"/>
<path fill="#FFFFFF" d="M119.228,40.525h-5.642c-0.368,0-0.664-0.298-0.664-0.663v-3.318c0-0.366,0.298-0.663,0.664-0.663h17.648
	c0.367,0,0.663,0.299,0.663,0.663v3.318c0,0.368-0.299,0.663-0.663,0.663h-5.643c-0.367,0-0.663,0.298-0.663,0.664v16.928
	c0,0.367-0.298,0.663-0.663,0.663h-3.711c-0.366,0-0.663-0.298-0.663-0.663V41.189C119.891,40.823,119.593,40.525,119.228,40.525z"
	/>
<path fill="#FFFFFF" d="M136.419,35.88h3.711c0.367,0,0.663,0.299,0.663,0.663v7.735c0,0.367,0.298,0.663,0.663,0.663h7.966
	c0.367,0,0.663-0.298,0.663-0.663v-7.735c0-0.366,0.298-0.663,0.663-0.663h3.711c0.367,0,0.663,0.299,0.663,0.663v21.573
	c0,0.367-0.299,0.663-0.663,0.663h-3.711c-0.367,0-0.663-0.298-0.663-0.663v-7.867c0-0.367-0.299-0.663-0.663-0.663h-7.966
	c-0.367,0-0.663,0.3-0.663,0.663v7.867c0,0.367-0.298,0.663-0.663,0.663h-3.711c-0.367,0-0.663-0.298-0.663-0.663V36.543
	C135.754,36.179,136.052,35.88,136.419,35.88z"/>
<path fill="#FFFFFF" d="M166.961,49.59L158.91,36.9c-0.28-0.441,0.038-1.021,0.561-1.021h4.305c0.232,0,0.45,0.123,0.57,0.325
	l4.706,7.918c0.255,0.431,0.878,0.434,1.139,0.005l4.795-7.928c0.12-0.199,0.337-0.32,0.566-0.32h4.142
	c0.522,0,0.84,0.578,0.558,1.021l-8.044,12.588c-0.067,0.107-0.105,0.23-0.105,0.355v8.271c0,0.367-0.298,0.663-0.663,0.663h-3.71
	c-0.367,0-0.664-0.298-0.664-0.663v-8.172C167.063,49.82,167.028,49.697,166.961,49.59z"/>
</svg>
