<?xml version="1.0" encoding="utf-8"?>
<!-- Generator: Adobe Illustrator 16.0.0, SVG Export Plug-In . SVG Version: 6.00 Build 0)  -->
<!DOCTYPE svg PUBLIC "-//W3C//DTD SVG 1.1//EN" "http://www.w3.org/Graphics/SVG/1.1/DTD/svg11.dtd">
<svg version="1.1" id="Layer_1" xmlns="http://www.w3.org/2000/svg" xmlns:xlink="http://www.w3.org/1999/xlink" x="0px" y="0px"
	 width="24px" height="24px" viewBox="0 0 24 24" enable-background="new 0 0 24 24" xml:space="preserve">
<path fill="#892B48" d="M20.719,11.112L24,3.201h-5.597l-5.219,7.856c-0.969,1.472-1.453,2.907-1.453,4.305
	c0,1.689,0.529,3.016,1.587,3.984c1.06,0.969,2.358,1.452,3.901,1.452c1.614,0,2.942-0.512,3.983-1.534
	c1.04-1.022,1.562-2.341,1.562-3.955C22.765,13.516,22.081,12.116,20.719,11.112 M8.987,11.112l3.283-7.911H6.673l-5.22,7.856
	C0.484,12.529,0,13.965,0,15.362c0,1.689,0.528,3.016,1.587,3.984s2.359,1.452,3.902,1.452c1.615,0,2.941-0.512,3.982-1.534
	c1.041-1.022,1.562-2.341,1.562-3.955C11.032,13.516,10.35,12.116,8.987,11.112"/>
</svg>
