<?xml version="1.0" encoding="utf-8"?>
<!-- Generator: Adobe Illustrator 16.0.0, SVG Export Plug-In . SVG Version: 6.00 Build 0)  -->
<!DOCTYPE svg PUBLIC "-//W3C//DTD SVG 1.1//EN" "http://www.w3.org/Graphics/SVG/1.1/DTD/svg11.dtd">
<svg version="1.1" id="Layer_1" xmlns="http://www.w3.org/2000/svg" xmlns:xlink="http://www.w3.org/1999/xlink" x="0px" y="0px"
	 width="304.629px" height="354.402px" viewBox="0 0 304.629 354.402" enable-background="new 0 0 304.629 354.402"
	 xml:space="preserve">
<g opacity="0.15">
	<path fill="#FFFFFF" d="M123.874,76.05c1-0.569,2.73-1.639,3.913-2.434c1.98-1.32,2.095-1.366,1.845-0.524
		c-0.163,0.524-0.163,1.023-0.024,1.182c0.457,0.546,0.842,6.283,0.568,8.398c-0.159,1.185-0.409,3.756-0.544,5.646
		c-0.226,3.005-1.687,10.218-2.115,10.559c-0.072,0.07-0.298,0.796-0.5,1.593c-0.206,0.82-0.46,1.57-0.596,1.686
		c-0.134,0.112-0.384,0.887-0.591,1.752c-0.202,0.841-0.821,2.23-1.365,3.025c-0.544,0.796-1.207,2.026-1.457,2.709
		c-2.024,5.484-11.036,15.361-22.327,24.511c-4.481,3.617-4.866,3.892-5.596,3.571c-1.072-0.433-1.865-2.093-3.413-7.076
		c-1.278-4.118-1.341-4.643-1-8.854c0.317-3.938,0.587-5.052,2.365-9.354c3.596-8.67,3.984-9.307,11.359-18.523
		C108.212,89.18,120.326,78.052,123.874,76.05 M158.512,127.939c2.457-6.42,7.6-12.222,16.612-18.775
		c3.504-2.55,5.461-3.596,12.445-6.713c2.413-1.07,4.62-2.163,4.942-2.413c0.317-0.25,0.797-0.455,1.047-0.434
		c0.274,0.024,1.592-0.408,3.004-0.956c2.64-1.046,12.629-3.3,18.752-4.232c3.231-0.5,11.244-1.069,13.677-0.979
		c0.889,0.024,0.889,0.092-0.068,1.002c-0.57,0.547-1.912,1.479-3.023,2.115c-1.119,0.638-2.461,1.526-3.031,1.981
		c-0.564,0.478-1.207,0.772-1.43,0.706c-0.23-0.091-0.684,0.089-1.07,0.387c-0.367,0.296-1.89,1.115-3.39,1.82
		c-1.505,0.706-4.739,2.616-7.216,4.256c-2.484,1.639-5.325,3.391-6.326,3.913c-2.119,1.093-1.802,0.935-3.754,1.775
		c-1.548,0.661-4.85,2.48-6.307,3.438c-0.433,0.295-1.023,0.591-1.346,0.704c-0.951,0.319-4.619,2.118-6.119,3.027
		c-0.793,0.478-2.777,1.639-4.412,2.572c-1.621,0.934-3.804,2.32-4.828,3.048c-1.022,0.729-2.118,1.345-2.411,1.345
		c-0.294,0-1.072,0.295-1.659,0.682c-0.62,0.365-1.754,0.956-2.527,1.298c-0.775,0.341-2.049,1.137-2.847,1.798
		c-0.774,0.637-2.341,1.593-3.413,2.093c-1.07,0.5-2.619,1.503-3.389,2.231c-1.389,1.297-3.008,2.047-3.369,1.593
		C156.782,134.856,157.714,130.008,158.512,127.939 M213.812,108.618c1.139-0.548,3.393-1.663,5.055-2.48
		c1.659-0.819,4.981-2.778,7.395-4.37c2.412-1.593,5.259-3.391,6.35-4.006c1.067-0.613,2.48-1.569,3.139-2.094
		c1.119-0.911,2.254-1.502,2.461-1.252c0.043,0.069-0.158,0.911-0.48,1.867c-0.75,2.344-1.591,4.073-2.706,5.598
		c-0.504,0.683-1.731,2.459-2.754,3.959c-1.024,1.504-2.821,3.756-4.005,5.008c-2.436,2.572-13.518,12.016-14.2,12.085
		c-0.663,0.067-3.349,1.456-5.214,2.663c-1.366,0.887-3.866,2.048-5.37,2.48c-0.64,0.181-1.687,0.612-2.321,0.933
		c-0.636,0.318-1.433,0.659-1.755,0.729c-1.706,0.408-3.437,1.023-4.481,1.569c-1.114,0.591-2.893,1.094-7.781,2.208
		c-1.254,0.296-2.504,0.684-2.73,0.888c-0.254,0.204-0.662,0.273-0.98,0.158c-0.297-0.112-1.273-0.046-2.186,0.138
		c-2.367,0.478-10.832,1.114-13.928,1.068l-1.456-0.021l2.097-1.457c1.158-0.797,2.522-1.708,3.095-2.049
		c0.544-0.343,2.817-1.775,5.071-3.209c4.072-2.617,7.104-4.324,11.264-6.372c2.734-1.344,10.041-5.119,10.906-5.644
		c0.341-0.207,0.885-0.479,1.183-0.592c2.206-0.797,3.254-1.321,3.39-1.708c0.09-0.271,0.389-0.455,0.729-0.455
		c0.317,0,2.298-1.047,4.389-2.343C210.057,110.666,212.7,109.164,213.812,108.618 M169.347,162.962
		c1.793,1.526,5.389,6.419,6.167,8.376c1.067,2.662,1.548,5.485,1.25,7.258c-0.706,4.211-1.89,8.264-3.254,11.062
		c-0.25,0.5-0.568,1.229-0.731,1.614c-0.316,0.729-0.98,0.957-1.365,0.479s-3.527-1.797-3.777-1.593
		c-0.135,0.114-0.361,0.023-0.545-0.204c-0.182-0.229-1.504-1.046-2.912-1.798c-2.049-1.115-3.053-1.911-4.896-3.959
		c-1.271-1.39-2.434-2.597-2.593-2.642c-0.297-0.112-2.004-3.275-2.772-5.234c-0.256-0.613-0.641-2.024-0.867-3.14
		c-0.229-1.093-0.523-2.163-0.662-2.299c-0.341-0.409-1.024-3.551-1.25-5.666c-0.23-2.229,0.75-10.674,1.365-11.605
		c0.636-0.981,1.024-0.911,4.461,0.953C161.81,157.161,165.409,159.617,169.347,162.962 M222.708,173.158
		c1.778,0.296,13.771,8.854,19.301,13.746c1.027,0.91,2.552,2.275,3.393,3.004c0.817,0.728,3.46,3.437,5.826,5.963
		c7.35,7.874,8.08,8.647,9.35,9.717c0.684,0.592,1.365,1.048,1.547,1.07c0.597,0.045,1.367,1.274,1.256,1.934
		c-0.25,1.32,1.341,3.255,2.139,2.596c0.456-0.364,1.163,0.342,0.841,0.843c-0.157,0.249,0.116,0.613,0.979,1.228
		c1.049,0.752,1.184,0.979,0.978,1.708c-0.183,0.683-0.088,0.909,0.524,1.159c0.547,0.228,0.773,0.502,0.773,0.934
		c0,0.343,0.158,0.639,0.342,0.66c0.183,0.023,0.34,0.319,0.34,0.706c0,0.432,0.299,0.841,0.799,1.137
		c0.432,0.25,0.951,0.774,1.135,1.14c0.184,0.362,1.302,2.229,2.508,4.163c1.202,1.935,2.366,4.233,2.592,5.143
		c0.227,0.911,0.615,1.868,0.797,2.118c0.207,0.25,0.568,1.343,0.795,2.434c0.254,1.095,0.639,2.231,0.889,2.551
		c0.25,0.317,0.389,0.862,0.316,1.251c-0.066,0.364-0.043,0.818,0.072,0.955c0.135,0.159,0.271,0.91,0.318,1.706
		c0.066,0.82,0.182,1.776,0.25,2.231c0.384,2.048-1.005,3.004-3.98,2.732c-1.914-0.16-7.148-2.096-7.764-2.846
		c-0.159-0.205-1.5-0.933-3.004-1.614c-1.48-0.684-2.822-1.39-2.956-1.572c-0.342-0.409-3.461-2.116-5.283-2.89
		c-0.75-0.319-2.067-1.023-2.979-1.615c-0.889-0.569-2.822-1.571-4.231-2.23c-1.413-0.661-2.735-1.367-2.913-1.572
		c-0.277-0.341-2.004-1.273-5.215-2.798c-0.932-0.456-2.297-1.593-3.73-3.165c-1.23-1.341-3.346-3.595-4.69-4.981
		c-2.957-3.074-6.009-6.987-7.054-9.014c-0.432-0.841-1.161-2.252-1.639-3.209c-0.476-0.932-1.229-2.229-1.682-2.913
		c-0.866-1.297-3.052-7.19-2.984-8.01c0.023-0.296-0.136-0.752-0.365-1.023c-0.361-0.457-1.547-4.211-1.727-5.463
		c-0.548-4.142,0.159-12.198,1.299-14.791C220.868,174.069,221.8,172.999,222.708,173.158 M245.331,169.266
		c1.729,0.159,5.643,0.706,8.674,1.207c3.049,0.5,7.351,1.16,9.58,1.433c4.985,0.639,7.097,1.114,9.582,2.229
		c2.912,1.298,6.713,3.711,8.508,5.395c0.889,0.843,1.73,1.616,1.846,1.709c0.135,0.111,0.159,0.226,0.043,0.316
		c-0.087,0.069-1,0.204-2.023,0.274c-1.023,0.066-3.914,0.363-6.461,0.637c-4.918,0.545-5.988,0.591-8.676,0.365
		c-0.976-0.07-1.841-0.045-1.976,0.068c-0.159,0.136-0.343,0.111-0.481-0.047c-0.52-0.66-10.488-1.137-12.926-0.637l-1.477,0.296
		l-3.461-3.187c-3.483-3.209-7.646-6.781-8.58-7.328c-0.273-0.159-0.912-0.751-1.364-1.274c-0.476-0.523-1.024-1.046-1.229-1.137
		C233.292,168.833,238.393,168.652,245.331,169.266 M286.501,187.451c2.389-0.229,2.523-0.183,3.527,1.023
		c0.568,0.684,1.846,2.755,2.822,4.574c2.322,4.302,2.98,8.353,2.48,15.202l-0.273,3.802l-1.159-0.252
		c-1.139-0.226-3.596-1.319-7.604-3.322c-7.532-3.754-8.282-4.072-11.172-4.46c-1.662-0.229-3.596-0.569-4.302-0.773
		c-1.548-0.434-3.618-2.391-11.835-11.062c-1.206-1.273-2.912-3.004-3.845-3.891c-1.254-1.207-1.597-1.686-1.343-1.889
		c0.184-0.159,1.66,0,3.231,0.341c1.595,0.341,5.095,0.728,7.806,0.889c2.711,0.159,6.029,0.341,7.418,0.409
		C274.667,188.202,281.493,187.906,286.501,187.451 M292.235,218.583c0.706,0.229,1.432,0.57,1.572,0.729
		c0.134,0.184,0,2.549-0.342,5.303c-0.687,5.758-2.778,13.905-4.053,15.68c-1.273,1.776-1.936,1.615-2.115-0.524
		c-0.162-1.773-0.614-4.458-1.527-8.919c-0.611-2.982-3.023-8.443-4.163-9.376c-0.409-0.342-0.798-0.935-0.864-1.275
		c-0.068-0.343-1.434-2.776-3.029-5.394c-1.592-2.594-2.912-4.87-2.889-5.007c0.023-0.159,0.206-0.228,0.477-0.205
		c0.777,0.092,7.992,3.914,11.949,6.305C289.255,217.172,291.485,218.354,292.235,218.583 M13.271,236.88
		c0.639-7.828,5.528-21.028,10.989-29.745c1.572-2.502,6.168-8.602,8.422-11.174c4.802-5.506,15.204-15.497,20.347-19.571
		c7.894-6.213,15.498-11.219,21.391-14.087c2.846-1.367,5.624-2.8,6.235-3.187c0.595-0.363,1.322-0.683,1.572-0.704
		c0.273,0,1.158-0.32,2.023-0.73c1.822-0.842,11.042-3.846,13.839-4.505c5.417-1.297,20.709-3.05,27.65-3.141
		c5.941-0.091,8.489-0.159,10.58-0.32c1.119-0.066,3.826-0.045,5.965,0.07c3.139,0.159,4.076,0.363,4.62,1.023
		c0.504,0.613,0.547,1.092,0.206,1.936c-0.48,1.115-0.615,2.593-0.774,7.645c-0.206,6.851,0.183,9.604,2.159,15.613
		c1.461,4.437,3.326,8.215,5.144,10.445c1.825,2.229,6.306,5.918,9.54,7.852c3.433,2.048,9.716,4.915,10.124,4.596
		c0.183-0.158,0.909-1.478,1.614-2.935c0.707-1.48,1.981-4.028,2.847-5.713c2.774-5.394,5.235-13.471,4.868-16.067
		c-1.157-8.419-5.916-15.726-12.604-19.367c-2.484-1.341-2.595-2.093-0.23-1.66c3.255,0.592,13.09,2.937,17.638,4.232
		c2.547,0.729,4.937,1.365,5.278,1.411c0.841,0.115,4.461,1.593,9.06,3.71c13.541,6.19,16.046,7.396,16.069,7.646
		c0.02,0.16-0.461,1.048-1.024,1.98c-1.825,2.845-3.373,11.902-3.118,18.229c0.408,10.195,7.984,26.397,16.93,36.252
		c5.076,5.576,9.445,9.013,17.295,13.609c5.691,3.322,6.668,3.823,12.677,6.577c3.413,1.548,6.737,3.095,7.444,3.438
		c0.703,0.341,2.66,1.206,4.367,1.91c1.705,0.706,4.213,1.753,5.578,2.321c1.342,0.57,2.957,1.14,3.572,1.274
		c1.434,0.319,4.346,2.163,5.12,3.209c0.317,0.456,0.729,0.729,0.889,0.615c0.158-0.138,0.544,0.091,0.865,0.478
		c0.817,1.002,1.159,0.524,0.587-0.819c-0.341-0.819-0.316-1.342,0.072-1.773c0.316-0.342,0.976-1.981,1.5-3.666
		c0.523-1.685,1.5-4.323,2.188-5.847c0.701-1.549,1.407-3.347,1.566-3.983c0.184-0.661,0.389-1.252,0.48-1.321
		c0.25-0.205,1.547-3.982,3.211-9.261c0.885-2.822,1.635-6.42,1.817-8.58c0.293-3.551,0.39-3.779,1.595-4.781
		c0.707-0.591,1.568-1.023,1.909-1c0.48,0.046,0.73-0.182,1.028-0.956c0.564-1.411,0.135-2.48-1.413-3.413
		c-0.707-0.433-1.437-0.91-1.571-1.069c-0.136-0.16-0.092-2.436,0.135-5.099c0.229-2.663,0.342-5.529,0.254-6.395
		c-0.096-0.865-0.183-2.413-0.254-3.413c-0.043-1.002-0.246-2.048-0.453-2.3c-0.183-0.25-0.297-0.909-0.229-1.411
		c0.206-1.341-1.524-5.963-3.024-8.056c-0.707-1-2.096-2.981-3.096-4.461c-1-1.479-2.095-2.799-2.46-2.98
		c-0.745-0.366-1.227-0.842-3.659-3.62c-0.961-1.091-2.393-2.411-3.234-3.002c-0.865-0.594-1.549-1.185-1.568-1.367
		c-0.138-0.933-7.604-4.551-10.65-5.166c-1.164-0.228-2.414-0.614-2.803-0.864c-0.933-0.613-5.85-1.183-7.826-0.888
		c-0.89,0.138-1.777,0.046-1.961-0.159c-0.182-0.228-0.746-0.297-1.317-0.136c-0.548,0.136-1.095,0.113-1.255-0.07
		c-0.135-0.181-2.273-0.566-4.82-0.862c-2.529-0.319-4.827-0.661-5.168-0.82c-0.342-0.137-1.092-0.137-1.727,0.022
		c-0.639,0.16-3.666,0.046-6.807-0.229c-6.781-0.591-8.781-0.5-11.012,0.502c-1.256,0.57-1.889,0.613-2.553,0.229
		c-0.5-0.297-1.342-0.752-1.957-1.071c-0.59-0.296-1.658-0.933-2.364-1.411c-0.706-0.476-2.144-1.273-3.19-1.798
		c-1.045-0.522-2.136-1.204-2.41-1.546c-0.273-0.341-1.186-0.774-2.047-0.98c-0.957-0.226-1.664-0.637-1.869-1.046
		c-0.295-0.66-2.25-1.684-7.053-3.731c-1.162-0.5-3.322-1.436-4.846-2.095c-1.528-0.66-3.143-1.252-3.667-1.318
		c-0.476-0.07-1.274-0.388-1.683-0.684c-0.414-0.297-1.754-0.683-2.938-0.864c-1.182-0.184-2.341-0.524-2.547-0.774
		c-0.207-0.25-1.366-0.591-2.549-0.774c-1.182-0.183-2.301-0.456-2.437-0.637c-0.274-0.341-4.711-1.729-5.394-1.684
		c-0.273,0.022-0.432-0.114-0.408-0.296c0.023-0.184,0.932-0.411,2.047-0.5c1.116-0.093,3.163-0.388,4.596-0.661
		c1.438-0.296,3.754-0.729,5.215-0.979c3.779-0.637,9.691-2.163,11.971-3.05c1.091-0.433,2.273-0.865,2.706-1.023
		c1.457-0.5,2.231-0.799,3.255-1.253c0.57-0.25,1.912-0.865,2.96-1.344c4.12-1.865,7.918-4.481,14.676-10.058
		c8.398-6.918,13.384-12.948,16.069-19.457c1.365-3.302,1.865-5.917,1.751-9.012c-0.068-1.707,0.114-2.663,0.571-3.028
		c1.205-0.979,1.889-2.777,1.523-4.005c-0.318-1.091-0.523-1.252-2.183-1.752c-1.869-0.569-6.263-0.979-11.677-1.138
		c-2.912-0.091-3.412-0.091-7.373-0.068c-1.139,0-2.461,0.182-2.914,0.41c-0.455,0.205-0.955,0.227-1.137,0.021
		c-0.322-0.387-1.367-0.319-4.688,0.296c-0.866,0.158-2.23,0.409-3.096,0.546s-1.89,0.273-2.278,0.273
		c-0.409,0-1.548,0.159-2.548,0.387c-1.024,0.205-2.278,0.363-2.799,0.363c-0.522,0-1.614,0.252-2.412,0.57
		c-0.799,0.319-1.639,0.591-1.913,0.591s-1.067,0.387-1.798,0.889c-0.75,0.5-1.754,0.934-2.297,0.979
		c-0.524,0.046-1.73,0.455-2.641,0.91c-0.932,0.432-2.095,0.843-2.619,0.863c-0.5,0.046-1.205,0.296-1.548,0.594
		c-0.341,0.272-1.157,0.638-1.794,0.774c-1.365,0.317-3.734,1.25-4.619,1.819c-0.341,0.229-1.845,1.137-3.324,2.048
		c-4.621,2.822-5.414,3.37-8.648,5.938c-4.096,3.278-8.442,7.308-9.99,9.31c-2.23,2.867-3.051,4.027-3.619,5.098
		c-0.316,0.591-0.773,1.435-1.048,1.936c-1.229,2.229-2.297,4.642-2.522,5.757c-0.141,0.66-0.572,2.299-0.914,3.596
		c-0.364,1.32-0.707,3.709-0.75,5.281c-0.043,1.568-0.226,2.979-0.365,3.093c-0.135,0.115-1.638,0.046-3.322-0.137
		c-1.682-0.181-3.23-0.227-3.412-0.067c-0.207,0.158-0.433,0.182-0.548,0.024c-0.409-0.502-8.826-1.161-11.628-0.911
		c-0.842,0.066-2.254,0.066-3.163-0.046c-3.12-0.319-6.009-0.274-8.763,0.159c-1.524,0.25-3.345,0.341-4.096,0.25
		c-0.75-0.113-1.706-0.092-2.139,0.023c-1.115,0.296-2.254,0.454-3.937,0.545c-0.774,0.046-1.571,0.229-1.777,0.387
		c-0.203,0.159-1.068,0.32-1.953,0.343c-0.889,0.023-2.326,0.364-3.254,0.75l-1.644,0.706l1.866-1.229
		c1.028-0.683,2.778-1.822,3.897-2.55c4.5-2.958,13.128-11.378,16.291-15.954c1.981-2.844,3.822-6.235,5.37-9.944
		c1.572-3.731,3.532-9.808,3.825-11.88c0.092-0.636,0.409-1.956,0.683-2.845c0.683-2.252,1.707-12.244,1.413-13.722
		c-0.139-0.638-0.206-1.98-0.139-2.938c0.115-2.093-0.385-4.686-1.457-7.511c-0.547-1.456-0.658-2.66-0.432-4.412
		c0.322-2.346,0.298-2.437-0.774-3.096c-1.297-0.774-3.778-0.341-5.35,0.956c-0.567,0.477-1.567,1.092-2.25,1.388
		c-2.21,0.978-11.517,7.989-11.767,8.83c-0.091,0.296-0.389,0.523-0.706,0.523c-0.707,0.022-8.056,6.6-9.58,8.603
		c-0.568,0.75-1.937,2.343-3.049,3.55c-1.115,1.206-2.143,2.48-2.301,2.822c-0.159,0.341-0.771,1.184-1.385,1.821
		c-1.413,1.502-3.735,4.732-3.822,5.348c-0.048,0.272-0.278,0.637-0.524,0.841c-0.254,0.207-0.639,0.843-0.913,1.457
		c-0.27,0.615-0.706,1.297-1,1.526c-0.297,0.226-0.5,0.637-0.476,0.886c0.019,0.25-0.341,1.32-0.822,2.368
		c-0.48,1.046-1.162,2.525-1.456,3.254c-0.318,0.728-0.865,1.911-1.23,2.572c-0.77,1.502-2.231,12.903-1.866,14.609
		c0.135,0.639,0.318,2.116,0.413,3.255c0.087,1.138,0.361,2.754,0.587,3.571c0.659,2.231,3.691,9.379,4.235,10.037
		c0.591,0.707,0.298,1.002-1.25,1.344c-0.616,0.137-1.163,0.387-1.183,0.569c-0.024,0.181-0.321,0.317-0.662,0.296
		c-0.342-0.024-1.366,0.341-2.322,0.82c-0.953,0.476-2.231,1-2.937,1.182c-0.683,0.183-1.659,0.683-2.207,1.137
		c-0.547,0.457-1.182,0.798-1.432,0.774c-0.25,0-1.687,0.591-3.164,1.344c-1.48,0.749-3.23,1.615-3.869,1.935
		c-0.682,0.317-1.274,0.842-1.456,1.228c-0.183,0.479-0.5,0.637-0.977,0.524c-0.436-0.092-0.888,0.137-1.23,0.592
		c-0.298,0.386-0.865,0.728-1.254,0.728c-0.794,0-6.191,3.392-12.763,8.012c-2.048,1.455-12.906,10.694-13.041,11.128
		c-0.072,0.206-1.254,1.389-2.643,2.616c-3.231,2.892-3.798,3.459-3.981,3.938c-0.091,0.228-0.75,0.843-1.504,1.389
		c-0.75,0.545-1.389,1.184-1.452,1.436c-0.072,0.249-0.298,0.612-0.524,0.816c-0.231,0.207-0.866,0.981-1.437,1.752
		c-0.568,0.774-1.413,1.801-1.913,2.322c-0.5,0.502-1.385,1.436-1.977,2.048c-0.595,0.615-1.206,1.435-1.365,1.776
		c-0.138,0.341-0.524,0.773-0.821,0.911c-0.298,0.136-0.885,0.91-1.274,1.706c-0.409,0.796-1.024,1.729-1.365,2.068
		c-0.342,0.345-0.754,0.891-0.913,1.207c-0.159,0.32-0.682,1.161-1.135,1.867c-0.476,0.705-1.159,1.82-1.572,2.457
		c-3.23,5.372-4.048,6.919-4.119,7.943c-0.044,0.661-0.227,1.343-0.385,1.48c-0.274,0.227-0.663,1.069-2.115,4.823
		c-0.798,2.049-2.004,7.192-1.802,7.738c0.095,0.295,0.048,0.636-0.135,0.772c-0.913,0.752-1.659,9.446-1.23,13.998
		c0.389,3.892,1.365,8.648,2.119,10.56"/>
	<path fill="#FFFFFF" d="M55.6,338.881c-32.226-35.617-49.247-90.668-43.695-143.282c5.096-48.247,27.65-87.005,63.495-109.148
		l-5.715-9.24C30.907,101.152,6.556,142.8,1.095,194.459c-6.283,59.444,14.838,121.982,53.822,159.327
		c0.227,0.205,0.457,0.411,0.66,0.615v-15.521H55.6z"/>
	<path fill="#FFFFFF" d="M106.236,56.364c-8.104,16.865-27.035,23.124-34.865,25.034c2.068-6.759,5.14-14.428,8.672-22.234
		l29.539-13.154C108.876,49.583,107.808,53.088,106.236,56.364 M65.843,44.531l10.148,12.881
		c-3.028,6.758-5.711,13.403-7.715,19.524C66.454,69.426,64.248,56.796,65.843,44.531 M69.8,30.604
		c2.115-4.415,5.004-8.08,8.215-11.152l10.172,13.154c-3.413,6.487-6.918,13.45-10.172,20.437L66.91,38.932
		C67.593,36.064,68.502,33.265,69.8,30.604 M110.197,24.071l-14.795,4.46c4.893-9.013,9.239-16.499,11.767-20.778
		C108.193,11.554,109.49,17.358,110.197,24.071 M90.373,28.464l-9.147-11.835c7.643-6.054,16.406-9.171,21.804-10.649
		C100.136,10.896,95.493,18.952,90.373,28.464 M110.4,40.342l-27.262,12.13c2.913-6.121,6.009-12.197,9.033-17.886l18.435-5.554
		C110.808,32.696,110.764,36.521,110.4,40.342 M109.697,1.654c-0.365-1.092-1.345-1.774-2.302-1.637
		c-1.206,0.181-29.971,4.619-41.235,28.015c-11.243,23.371-0.274,55.892,0.203,57.281c0.365,1.092,1.345,1.774,2.298,1.64
		c0.159-0.024,0.841-0.115,1.912-0.343c6.803-1.388,29.607-7.464,39.326-27.674C121.143,35.564,110.15,3.02,109.697,1.654"/>
</g>
</svg>
