<?xml version="1.0" encoding="utf-8"?>
<!-- Generator: Adobe Illustrator 16.0.0, SVG Export Plug-In . SVG Version: 6.00 Build 0)  -->
<!DOCTYPE svg PUBLIC "-//W3C//DTD SVG 1.1//EN" "http://www.w3.org/Graphics/SVG/1.1/DTD/svg11.dtd">
<svg version="1.1" id="Layer_1" xmlns="http://www.w3.org/2000/svg" xmlns:xlink="http://www.w3.org/1999/xlink" x="0px" y="0px"
	 width="2127px" height="2109px" viewBox="2183.689 0 2127 2109" enable-background="new 2183.689 0 2127 2109"
	 xml:space="preserve">
<g>
	<path fill="#F9F9F9" d="M3568.315,539.472c10.213,17.105,34.661,93.736,39.377,123.095c8.962,57.026,9.061,60.666,3.304,106.2
		c-2.886,22.58-4.439,27.964-12.643,45.458c-8.771,18.705-10.312,20.776-25.717,35.167c-18.665,17.4-26.063,22.53-31.661,21.764
		c-3.877-0.41-4.854-2.511-15.099-28.737c-25.749-66.229-40.054-130.024-35.347-158.218c0.593-3.507,0.757-10.341,0.383-15.037
		c-0.383-4.698,0.358-12.101,1.544-16.16c1.217-4.175,2.034-8.069,1.735-8.872c-0.301-0.817,0.442-4.617,1.559-8.603
		c1.076-3.875,1.878-7.501,1.738-7.974c-0.986-2.486,10.301-36.652,16.633-49.961c4.008-8.353,9.184-19.876,11.386-25.29
		c3.962-9.648,19.511-33.066,22.776-34.281c0.976-0.339,2.186-2.456,2.764-5.076c0.976-4.185,1.359-3.706,6.563,6.7
		C3560.706,525.893,3565.453,534.626,3568.315,539.472 M3295.402,675.777c-1.629,10.719-9.435,33.563-11.487,34.45
		c-2.631,1.05-7.686-6.057-10.436-14.934c-1.504-4.961-5.644-12.977-8.977-17.694c-3.346-4.727-7.676-12.583-9.414-17.16
		c-1.789-4.741-5.266-11.212-7.727-14.54c-2.455-3.328-5.836-8.588-7.59-11.641c-1.55-3.064-4.146-6.207-5.391-6.92
		c-1.24-0.711-4.398-5.981-6.975-11.556c-2.58-5.574-8.486-16.756-13.11-24.652c-4.671-7.929-10.28-17.673-12.491-21.623
		c-4.164-7.497-15.371-24.035-18.641-27.696c-1.09-1.265-2.884-3.95-4.005-6.251c-3.864-7.596-13.474-23.332-18.44-29.893
		c-6.25-8.309-5.284-6.863-11.631-16.642c-2.979-4.647-10.799-18.979-17.373-31.959c-6.536-12.965-15.638-28.925-20.315-35.571
		c-4.656-6.634-9.134-13.803-9.98-15.95c-0.917-2.202-2.402-4.064-3.597-4.239c-1.117-0.259-3.123-3.068-4.36-6.466
		c-1.319-3.317-4.865-10.346-8.069-15.765c-3.173-5.399-6.609-12.607-7.705-16.313c-1.853-6.187-1.693-6.47,2.143-4.418
		c10.55,5.514,43.188,27.361,55.694,37.323c23.734,18.81,60.687,52.607,69.354,63.451c4.671,5.753,9.209,10.785,10.44,11.347
		c1.111,0.514,2.65,2.545,3.387,4.378c0.767,1.843,7.482,11.836,15.133,22.232c22.098,30.176,27.87,39.361,36.562,58.688
		C3292.777,605.453,3300.538,642.558,3295.402,675.777 M3107.462,459.618c3.392,5.012,10.979,17.803,16.736,28.144
		c5.734,10.575,11.61,19.82,12.95,20.587c1.451,0.831,2.272,2.335,1.999,3.706c-0.363,1.967,2.818,6.734,10.252,15.472
		c0.985,1.205,2.635,3.675,3.585,5.379c2.401,4.329,24.265,38.076,32.616,50.415c12.691,18.784,21.429,33.384,32.369,54.375
		c6.097,11.551,12.27,23.152,13.746,25.922c1.61,2.839,5.189,10.018,8.176,16.209l5.369,11.272l-6.236-3.447
		c-13.255-7.312-47.65-30.544-56.542-38.315c-3.425-2.993-7.417-5.639-8.95-5.883c-1.628-0.284-3.193-1.569-3.775-3.048
		c-0.465-1.42-4.836-6.097-9.441-10.396c-18.055-16.587-24.387-23.037-27.684-28.248c-3.108-4.851-8.967-11.661-15.222-17.534
		c-1.196-1.076-3.756-4.454-5.68-7.347c-1.917-2.899-5.321-7.272-7.596-9.589c-5.336-5.483-13.136-16.478-16.781-23.556
		c-4.997-9.653-13.032-22.061-15.683-23.955c-2.729-1.952-26.884-68.925-30.982-85.751c-1.993-8.183-4.155-22.106-4.862-30.977
		c-0.702-8.847-1.604-19.367-2.092-23.492c-1.036-9.176-0.408-18.56,2.092-30.326c0.947-4.841,2.139-8.906,2.49-9.096
		c1.485-0.562,4.868,4.704,7.408,11.289c1.523,3.82,5.205,11.307,8.249,16.498c3.142,5.26,10.864,19.795,17.244,32.413
		c6.379,12.607,15.742,28.986,20.798,36.487C3097.095,444.327,3103.956,454.526,3107.462,459.618 M3164.45,798.205
		c24.832-4.657,46.077-6.355,72.941-5.623c19.121,0.418,20.94,1.061,21.264,6.774c0.348,5.444-15.971,43.68-22.361,52.582
		c-6.081,8.438-16.606,20.118-19.048,21.03c-0.917,0.24-4.762,4.064-8.388,8.15c-3.667,4.188-8.722,9.245-11.296,11.227
		c-8.012,6.456-22.935,15.746-24.464,15.507c-0.787-0.194-8.652,2.101-17.415,4.926c-12.801,4.224-18.986,5.165-30.396,4.932
		c-7.805-0.224-15.396,0.039-16.726,0.567c-1.33,0.523-2.511,0.359-2.81-0.454c-0.562-1.469-17.104-3.492-19.901-2.395
		c-2.793,1.101-5.054-1.485-4.635-5.341c0.237-2.032,0.661-5.902,0.81-8.627c0.992-15.193,5.794-35.272,13.011-54.864
		c3.034-8.248,11.925-19.067,22.916-27.784C3126.001,812.391,3153.133,800.337,3164.45,798.205 M2913.149,712.07
		c4.244,1.529,5.609,8.334,4.493,20.134c-1.443,13.778-17.985,49.697-30.356,65.957c-3.805,4.881-17.941,17.947-20.581,19.008
		c-1.633,0.598-3.417,2.146-4.036,3.457c-1.702,3.641-25.272,23.367-32.099,26.774c-3.575,1.808-9.926,5.489-14.205,8.289
		c-4.344,2.903-10.869,7.127-14.739,9.648c-9.35,6.071-31.801,15.282-51.81,21.169c-9.077,2.625-23.521,7.059-31.999,9.773
		c-9.903,3.193-18.451,4.712-23.516,4.389c-17.33-1.311-26.927-1.544-28.928-0.773c-1.252,0.443-8.576,0.23-16.178-0.383
		c-7.588-0.622-18.226-1.056-23.382-0.792c-5.311,0.303-12.607,0.094-16.566-0.374c-9.614-1.136-26.999-1.455-29.441-0.543
		c-1.009,0.454-8.418,0.194-16.368-0.499c-8.038-0.753-15.489-0.911-16.667-0.428c-4.433,1.693-31.352-2.78-39.868-6.746
		c-13.291-6.062-16.867-13.494-10.271-21.253c1.395-1.769,4.203-5.544,6.477-8.867c2.132-3.263,4.531-6.126,5.489-6.475
		c0.817-0.304,2.021-2.177,2.619-3.88c0.637-1.823,2.552-3.801,4.383-4.548c1.834-0.747,6.222-4.643,9.958-8.672
		c3.606-4.08,7.797-7.846,9.281-8.409c1.373-0.613,5.349-3.74,8.517-7.053c3.162-3.317,13.683-10.256,23.481-15.551
		c9.803-5.286,19.082-10.501,20.742-11.597c1.663-1.1,5.139-2.072,7.581-2.081c2.839-0.05,5.099-1.056,6.146-2.895
		c0.943-1.639,2.327-2.516,3.158-2.171c0.833,0.353,2.223-0.519,3.05-1.974c1.045-1.832,2.68-2.45,5.554-2.092
		c3.203,0.424,4.155-0.309,5.036-3.646c0.896-3.597,2.013-4.234,8.293-4.881c5.156-0.514,7.198-1.399,7.138-2.839
		c-0.154-2.904,4.553-4.189,5.608-1.534c1.794,4.732,13.241,0.373,15.384-5.838c1.125-3.068,7.371-6.421,10.022-5.165
		c0.825,0.349,4.821,0.064,9.159-0.792c7.986-1.46,12.967-2.974,63.267-18.58c16.174-4.987,33.967-10.082,39.196-11.188
		c5.341-1.051,15.125-3.154,21.693-4.523C2833.208,716.265,2904.887,709.011,2913.149,712.07 M2826.536,640.68
		c30.954,14.221,52.165,27.362,43.477,26.634c-1.095-0.109-4.692,0.778-7.98,1.849c-3.188,1.125-7.332,2.087-8.88,2.101
		c-5.297,0.056-31.631,5.126-54.212,10.301l-22.415,5.141l-5.56-4.842c-9.135-8.034-52.617-30.187-56.423-28.646
		c-0.97,0.333-1.807-0.005-2.154-0.966c-0.301-0.807-3.917-3.014-8.224-5.082c-11.962-5.563-16.395-8.354-35.951-22.594
		c-10.15-7.338-21.709-15.611-25.892-18.375c-4.175-2.779-7.72-5.564-7.926-6.073c-0.274-0.663,0.111-1.091,0.952-1.24
		c0.717-0.11,6.167-1.355,11.979-2.779c11.712-2.794,33.698-3.821,49.21-2.271c13.259,1.294,23.37,4.397,46.09,13.777
		c10.127,4.254,29.993,11.881,44.148,17.15C2800.863,629.995,2818.807,637.158,2826.536,640.68 M2607.628,618.036
		c20.158,14.081,48.421,31.888,59.062,37.069c6.058,3.078,20.592,10.356,32.487,16.254c11.899,5.892,27.7,12.741,35.298,15.157
		c7.5,2.366,14.154,5.275,14.545,6.391c0.587,1.479-2.032,2.681-10.282,4.762c-6.108,1.504-17.554,4.713-25.763,7.194
		c-55.919,16.891-69.453,20.178-77.078,18.265c-3.489-0.846-12.523-4.089-20.135-7.147c-13.216-5.365-17.171-5.833-58.262-8.16
		c-21.877-1.22-34.957-2.535-40.337-4.343l-5.533-1.738l8.054-16.807c14.489-30.292,27.109-45.897,47.406-58.53
		c8.557-5.355,19.002-11.053,23.078-12.578C2597.352,611.141,2598.038,611.276,2607.628,618.036 M2507.77,736.313
		c3.741,0.848,16.079,1.241,27.675,0.688c22.601-0.553,62.505,0.716,66.031,2.211c1.201,0.563,1.809,1.295,1.524,2.026
		c-0.229,0.639-11.356,7.104-24.406,14.256c-13.122,7.243-24.826,14.262-25.942,15.552c-1.11,1.286-4.205,2.859-6.766,3.318
		c-7.104,1.2-30.584,18.535-40.417,29.717c-14.694,16.727-23.132,27.024-28.119,34.162c-5.951,8.647-9.149,7.726-10.255-2.904
		c-1.103-10.621,9.772-50.29,20.82-76.401c5.23-12.523,10.399-22.894,11.416-23.347
		C2500.307,735.262,2504.218,735.572,2507.77,736.313 M3638.329,1551.928c7.834-6.286,23.515-24.119,34.602-39.701
		c12.863-18.28,30.784-57.004,28.737-62.413c-0.448-1.026,0.181-2.591,1.295-3.606c2.182-1.833,9.535-26.59,11.119-37.229
		c2.933-19.467,3.327-23.979,2.721-25.604c-0.334-0.967,0.53-4.313,1.956-7.222c2.182-4.524,2.456-13.082,1.774-43.727
		c-0.215-3.695-0.399-10.092-0.719-14.236c-0.21-4.095-0.389-8.936-0.288-10.678c0.089-1.735-0.334-5.042-0.946-7.344
		c-0.628-2.271-0.972-7.721-0.783-12.095c0.274-4.313-0.333-9.024-1.273-10.331c-0.923-1.305-1.515-4.084-1.272-5.857
		c0.156-1.843-0.457-6.805-1.495-10.859c-1.019-4.034-2.515-10.142-3.421-13.489c-0.854-3.417-1.957-9.832-2.49-14.494
		c-0.553-4.663-1.369-9.485-1.854-10.93c-0.462-1.414-0.546-3.508-0.244-4.732c0.344-1.225-0.82-5.479-2.685-9.622
		c-1.872-4.146-3.178-8.35-3.013-9.546c0.378-2.47-0.648-6.257-7.357-26.37c-2.925-8.587-5.069-16.467-4.883-17.513
		c0.483-2.171-23.202-67.735-28.377-78.882c-16.691-35.555-31.386-63.046-34.754-64.973c-1.658-0.942-3.232-3.772-3.561-6.127
		c-0.35-2.766-1.714-4.837-3.792-5.5c-2.29-0.676-3.262-2.122-2.869-4.593c0.161-2.081-1.086-5.747-3.213-8.747
		c-1.938-2.903-7.269-10.823-11.735-17.593c-4.442-6.785-9.111-12.778-10.172-13.385c-1.121-0.503-2.989-3.498-4.202-6.76
		c-1.226-3.257-4.155-7.745-6.61-10.181c-2.566-2.486-6.723-7.807-9.61-12.14c-2.894-4.353-6.355-8.393-7.864-9.11
		c-1.501-0.744-2.432-2.043-2.099-2.87c0.36-0.822-1.363-3.208-3.64-5.284c-5.744-5.202-6.272-7.164-2.047-8.732
		c3.904-1.474,34.115-24.473,42.323-32.348c2.946-2.919,8.031-9.121,11.158-13.739c3.158-4.606,7.526-10.431,9.644-12.821
		c5.69-6.355,27.134-58.31,27.512-66.554c0.055-3.69,0.608-10.042,1.016-13.902c0.52-3.81,1.206-11.746,1.709-17.35
		c0.502-5.619,1.57-11.033,2.256-12.044c0.703-1.007,0.837-3.243,0.125-4.922c-0.692-1.684-0.891-5.638-0.543-8.906
		c0.329-3.272,0.234-6.903-0.343-8.399c-0.547-1.463-0.643-3.566-0.186-4.841c1.127-2.82-0.895-22.171-3.257-31.979
		c-1.061-4.194-1.609-9.255-1.465-11.092c0.158-1.833-1.115-9.733-2.924-17.564c-1.789-7.816-3.74-17.902-4.338-22.46
		c-1.604-12.204-16.863-57.957-19.811-59.765c-1.345-0.766-2.063-2.46-1.732-3.935c0.979-4.179-21.525-56.516-28.537-66.031
		c-2.188-2.914-4.938-7.95-6.193-11.352c-3.526-9.32-13.012-17.176-20.393-17.037c-6.146,0.199-6.471,0.529-10.793,11.268
		c-3.294,7.99-6.692,12.831-12.544,17.688c-11.402,9.39-19.81,19.192-24.401,28.354c-2.033,4.229-5.576,9.768-7.711,12.134
		c-4.833,5.563-24.719,50.473-27.277,61.691c-0.993,4.438-2.851,10.814-4.002,13.732c-3.786,9.509-10.201,40.064-12.572,59.726
		c-2.426,19.496-2.835,38.365-1.318,55.245c2.33,27.103,18.544,83.778,30.475,107.255c2.982,5.799,7.654,14.884,10.359,20.274
		l4.947,9.743l-5.266-6.983c-3.004-3.89-8.283-8.826-12.004-11.078c-3.696-2.242-6.98-5.026-7.452-6.196
		c-0.492-1.17-3.442-3.875-6.614-5.948c-6.925-4.468-11.373-7.905-15.393-11.865c-1.559-1.54-5.57-3.95-9.026-5.285
		c-3.407-1.434-10.919-6.236-16.781-10.999c-10.64-8.518-22.804-15.716-36.825-21.927c-4.131-1.733-10.128-5.156-13.541-7.478
		c-11.291-7.855-48.625-25.474-51.58-24.338c-0.877,0.395-1.772-0.253-2.266-1.429c-0.389-1.116-7.074-4.677-14.649-7.99
		c-7.596-3.308-14.147-6.661-14.442-7.477c-0.312-0.817,2.339-7.252,5.955-14.018c3.631-6.784,7.964-17.752,9.622-24.244
		c1.69-6.336,3.835-14.34,4.841-17.484c1.745-5.28,3.064-18.111,3.249-30.56c0.049-2.793,0.155-7.48,0.244-10.758
		c0.179-5.923-0.488-12.842-3.005-30.42c-1.713-12.259-10.4-39.909-19.835-63.764c-7.505-18.75-9.538-22.998-22.315-46.186
		c-4.074-7.462-8.258-14.963-9.149-16.757c-2.377-4.568-10.171-14.271-15.203-18.933c-2.366-2.123-4.952-5.654-5.733-7.637
		c-0.73-2.097-3.123-4.867-5.129-6.271c-2.182-1.365-6.122-5.927-9.028-10.021c-2.765-4.139-6.893-8.802-9.004-10.267
		c-2.198-1.509-5.411-5.788-7.384-9.723c-1.883-3.91-4.314-7.471-5.479-8.139c-1.166-0.668-4.064-3.856-6.689-7.149
		c-2.617-3.288-6.637-7.004-8.856-8.269c-2.212-1.265-7.153-4.976-11.004-8.333c-3.69-3.393-8.146-6.83-9.883-7.82
		c-1.649-0.946-5.664-4.01-9.006-6.69c-3.347-2.674-8.528-7.049-11.825-9.822c-12.604-10.665-16.876-13.489-19.178-12.627
		c-1.274,0.428-3.338-0.872-4.782-2.844c-1.365-2.072-6.539-6.052-11.378-8.812c-16.757-9.699-18.878-10.914-31.471-17.593
		c-23.372-12.454-43.018-21.374-52.333-23.487c-8.263-1.902-9.523-1.718-13.519,2.142c-4.527,4.329-5.987,13.619-3.248,20.702
		c1.056,2.656-0.487,7.158-4.915,14.241c-7.99,12.862-12.211,25.18-14.421,42.515c-4.384,34.146,2.156,71.839,21.04,121.586
		c15.163,40.063,24.946,60.382,37.917,78.299c3.288,4.568,7.492,10.436,9.304,12.882c3.248,4.408,5.81,7.557,10.78,13.215
		c1.455,1.718,5.43,6.426,9.01,10.903c7.527,9.3,28.929,30.117,43.433,41.987c5.599,4.607,14.381,12.06,19.766,16.801
		c5.425,4.638,13.394,10.854,17.912,13.958c4.519,3.079,7.821,6.247,7.476,7.083c-0.343,0.833-1.345,1.027-2.448,0.269
		c-2.786-1.852-24.993-6.713-26.984-5.933c-1.017,0.434-6.426-1.115-11.89-3.208c-5.465-2.087-11.219-3.452-12.701-2.894
		c-1.48,0.562-7.23-0.803-12.693-2.89c-5.464-2.097-12.089-3.71-14.57-3.457c-2.451,0.27-6.604-0.323-8.797-1.176
		c-2.392-0.991-10.679-2.395-18.769-3.297c-8.07-0.896-19.506-2.162-25.654-2.859c-25.358-2.954-36.142-3.347-38.996-1.26
		c-1.864,1.241-5.864,1.271-10.477-0.089c-4.154-1.216-9.075-1.59-11.068-0.808c-1.993,0.787-8.278,1.036-13.981,0.722
		c-5.715-0.313-13.754-0.413-17.909-0.104c-4.153,0.319-10.241,0.429-13.458,0.254c-3.387-0.134-8.064-0.244-10.908-0.2
		c-3.759,0.025-6.337-1.688-10.283-7.158c-7.042-9.663-15.311-14.898-45.543-28.842c-13.997-6.45-27.125-13.309-29.452-15.536
		c-2.306-2.216-5.49-4.034-7.274-4.283c-1.832-0.15-12.422-4.274-23.934-9.051c-11.531-4.917-21.543-8.474-22.56-8.03
		c-1.128,0.393-3.497-0.842-5.499-2.745c-2.032-2.067-4.598-3.143-5.918-2.62c-1.28,0.428-5.27-1.335-8.718-4.08
		c-7.669-6.047-29.926-15.556-35.374-15.212c-2.263,0.119-8.51-1.27-14-3.123c-14.435-4.782-54.901-7.526-57.75-3.9
		c-0.529,0.727-4.862,1.579-9.978,2.002c-5.007,0.464-14.286,2.6-21.017,4.902c-17.065,5.893-20.262,6.75-24.312,6.491
		c-1.995-0.115-9.845,2.839-17.675,6.689c-7.835,3.86-18.535,8.907-23.965,11.438c-11.445,5.245-30,20.671-32.383,26.864
		c-0.932,2.297-3.014,4.822-4.392,5.439c-1.491,0.568-4.888,4.513-7.502,8.663c-2.726,4.074-6.856,10.435-9.362,13.877
		c-2.469,3.461-8.945,15.9-14.43,27.765c-5.493,11.859-10.823,21.623-11.789,21.977c-0.958,0.35-5.215,0.608-9.265,0.728
		c-8.837,0.203-13.251,3.706-14.278,11.063c-0.616,4.015-0.109,5.583,2.047,6.556c1.501,0.727,4.111,4.651,5.68,8.875
		c2.685,7.178,2.545,8.383-4.826,24.168c-4.463,9.614-10.008,26.71-13.091,40.841c-5.738,26.45-9.394,45.632-8.827,47.107
		c0.22,0.514-0.342,3.521-1.165,6.775c-0.871,3.088-2.231,12.433-3.009,20.711c-0.777,8.134-3.033,21.708-4.896,30.137
		c-1.858,8.418-3.033,16.985-2.526,19.203c0.608,2.774-0.556,5.051-3.99,7.7c-5.688,4.318-5.394,7.173,0.504,4.902
		c2.303-0.863,4.493-0.898,4.832,0.074c0.397,0.872,2.81,0.707,5.271-0.458c5.817-2.566,22.653-3.333,29.519-1.21
		c2.939,0.926,11.179,2.421,18.261,3.252c7.173,0.896,20.359,2.541,29.31,3.681c8.96,1.151,19.368,2.217,23.173,2.476
		c3.839,0.259,21.708,1.759,39.947,3.463c32.201,2.879,37.56,3.123,69.777,2.813c44.482-0.478,71.366-4.468,106.444-15.831
		c61.881-20.143,133.347-70.562,159.806-112.869c16.43-26.24,31.825-68.456,30.973-84.958c-0.124-5.33-0.016-10.262,0.455-10.895
		c0.707-1.006,14.267-0.055,86.777,6.505c24.662,2.168,43.615,4.673,47.466,6.222c1.564,0.633,13.254,3.727,25.833,6.81
		c22.455,5.529,69.896,19.427,85.152,24.806c11.084,3.901,8.792,6.826-5.007,6.491c-37.23-0.758-75.15,18.724-100.479,51.664
		c-7.86,10.137-17.005,50.401-18.3,80.028c-0.415,9.251-1.187,23.163-1.775,31.164c-0.537,7.895-0.656,15.257-0.258,16.372
		c0.955,2.353,34.589,5.411,54.124,5.042c18.422-0.364,46.396-5.155,59.551-10.196c13.133-5.062,30.212-16.583,47.178-31.875
		c22.963-20.722,31.298-31.466,47.037-61.049c11.576-21.843,14.586-28.443,15.253-34.346c0.598-4.403,1.942-6.336,5.574-7.716
		c3.91-1.485,8.383-0.08,22.093,6.859c9.367,4.703,20.903,11.173,25.502,14.171c8.483,5.759,19.133,12.224,44.138,27.018
		c29.256,17.22,89.936,61.757,109.788,80.397c10.273,9.584,42.139,44.702,47.838,52.692c2.675,3.84,5.654,7.351,6.811,8.014
		c1.01,0.693,3.321,3.815,4.975,6.794c1.65,3.129,9.968,15.945,18.738,28.657c18.062,26.47,38.207,66.172,56.664,111.691
		c11.948,29.776,31.881,97.422,38.922,132.449c3.331,16.389,8.054,53.439,8.652,67.864c2.047,50.271-9.207,118.174-25.479,152.953"
		/>
	<path fill="#F9F9F9" d="M3220.737,1821.022c223.219-73.064,429.006-265.528,533.044-502.385
		c95.38-217.22,93.616-436.484-4.866-617.441l46.674-25.37c106.577,195.701,108.959,431.599,6.854,664.19
		c-117.496,267.63-358.855,481.941-614.952,545.948c-1.46,0.321-2.939,0.64-4.299,1.018l37.642-65.901L3220.737,1821.022z"/>
	<path fill="#F9F9F9" d="M3690.954,498.661c1.279-17.718,5.235-35.192,10.908-52.079l93.512,127.494
		c-3.93,41.712-9.484,81.727-17.1,115.439C3749.663,662.413,3684.459,589.927,3690.954,498.661 M3891.157,546.391
		c-22.966,55.944-62.971,104.222-88.924,131.692c6.343-30.853,11.062-65.578,14.597-101.616L3891.157,546.391 M3908.14,477.655
		c-0.947,14.445-3.871,28.543-7.93,42.37l-81.368,32.981c3.124-37.559,5.13-75.625,6.37-111.445l75.098-31.177
		C3906.495,431.209,3909.868,453.78,3908.14,477.655 M3752.456,351.945c19.287-26.789,38.868-48.288,52.438-61.942
		c0.354,24.298,0.648,66.624-0.434,116.759L3752.456,351.945 M3825.979,418.678c1.326-52.811,1.156-98.279,0.788-126.164
		c19.335,19.367,48.979,53.856,66.753,98.095L3825.979,418.678 M3712.128,420.536c7.725-17.11,16.816-33.454,26.561-48.522
		l64.806,68.292c-0.962,31.491-2.55,64.8-5.026,97.855L3712.128,420.536 M3808.948,257.974
		c-5.229,4.697-130.842,116.222-139.781,242.724c-7.76,109.382,74.333,190.491,99.852,212.882c3.991,3.561,6.67,5.603,7.289,6.097
		c3.717,2.884,9.537,2.361,13.732-1.39c5.394-4.742,130.846-116.221,139.793-242.719c8.915-126.662-102.455-215.268-107.143-218.964
		C3818.959,253.7,3813.153,254.223,3808.948,257.974"/>
</g>
</svg>
