<?xml version="1.0" encoding="utf-8"?>
<!-- Generator: Adobe Illustrator 16.0.0, SVG Export Plug-In . SVG Version: 6.00 Build 0)  -->
<!DOCTYPE svg PUBLIC "-//W3C//DTD SVG 1.1//EN" "http://www.w3.org/Graphics/SVG/1.1/DTD/svg11.dtd">
<svg version="1.1" id="Layer_1" xmlns="http://www.w3.org/2000/svg" xmlns:xlink="http://www.w3.org/1999/xlink" x="0px" y="0px"
	 width="304.629px" height="354.402px" viewBox="0 0 304.629 354.402" enable-background="new 0 0 304.629 354.402"
	 xml:space="preserve">
<g>
	<path fill="#F9F9F9" d="M229.516,73.022c2.002,3.354,6.795,18.377,7.72,24.133c1.757,11.18,1.776,11.894,0.647,20.82
		c-0.565,4.427-0.87,5.482-2.479,8.912c-1.72,3.667-2.021,4.073-5.042,6.895c-3.659,3.411-5.109,4.417-6.207,4.267
		c-0.76-0.08-0.951-0.492-2.96-5.634c-5.048-12.984-7.853-25.491-6.93-31.019c0.116-0.688,0.148-2.027,0.075-2.948
		c-0.075-0.921,0.07-2.372,0.303-3.168c0.238-0.818,0.398-1.582,0.34-1.739c-0.059-0.16,0.087-0.905,0.306-1.687
		c0.211-0.76,0.368-1.471,0.341-1.563c-0.193-0.487,2.02-7.186,3.261-9.795c0.786-1.638,1.801-3.896,2.232-4.958
		c0.776-1.892,3.825-6.482,4.465-6.721c0.191-0.066,0.429-0.481,0.542-0.995c0.191-0.82,0.267-0.727,1.287,1.313
		C228.023,70.36,228.954,72.072,229.516,73.022 M176.011,99.745c-0.319,2.102-1.85,6.58-2.252,6.754
		c-0.516,0.206-1.507-1.188-2.046-2.928c-0.295-0.973-1.106-2.544-1.76-3.469c-0.656-0.927-1.505-2.467-1.846-3.364
		c-0.351-0.93-1.032-2.198-1.515-2.851c-0.481-0.652-1.145-1.684-1.488-2.282c-0.304-0.601-0.812-1.217-1.057-1.356
		c-0.243-0.14-0.862-1.173-1.367-2.266c-0.506-1.093-1.664-3.285-2.57-4.833c-0.916-1.555-2.016-3.465-2.449-4.239
		c-0.816-1.47-3.014-4.712-3.654-5.43c-0.214-0.248-0.565-0.774-0.785-1.226c-0.758-1.489-2.642-4.574-3.615-5.86
		c-1.226-1.629-1.036-1.346-2.28-3.263c-0.584-0.911-2.117-3.721-3.406-6.266c-1.282-2.542-3.066-5.671-3.982-6.974
		c-0.914-1.301-1.792-2.706-1.957-3.127c-0.18-0.432-0.471-0.797-0.706-0.831c-0.218-0.051-0.612-0.602-0.854-1.268
		c-0.259-0.65-0.954-2.028-1.582-3.091c-0.622-1.059-1.296-2.472-1.511-3.198c-0.363-1.213-0.332-1.269,0.42-0.866
		c2.069,1.081,8.468,5.364,10.919,7.317c4.653,3.688,11.897,10.313,13.597,12.439c0.916,1.128,1.806,2.114,2.047,2.225
		c0.218,0.101,0.52,0.499,0.664,0.858c0.15,0.361,1.467,2.32,2.967,4.358c4.332,5.916,5.464,7.717,7.168,11.506
		C175.496,85.958,177.018,93.232,176.011,99.745 M139.165,57.367c0.666,0.982,2.152,3.49,3.281,5.518
		c1.125,2.073,2.276,3.886,2.539,4.036c0.284,0.163,0.445,0.458,0.391,0.727c-0.071,0.386,0.553,1.32,2.01,3.033
		c0.193,0.236,0.517,0.721,0.703,1.055c0.47,0.849,4.757,7.465,6.395,9.884c2.488,3.683,4.201,6.545,6.346,10.66
		c1.195,2.265,2.405,4.539,2.695,5.082c0.315,0.557,1.018,1.964,1.603,3.178l1.053,2.21l-1.223-0.676
		c-2.599-1.434-9.342-5.988-11.085-7.512c-0.672-0.587-1.454-1.105-1.755-1.153c-0.319-0.056-0.625-0.308-0.74-0.598
		c-0.091-0.278-0.948-1.195-1.851-2.038c-3.54-3.252-4.781-4.517-5.427-5.538c-0.61-0.951-1.758-2.286-2.984-3.438
		c-0.235-0.211-0.737-0.873-1.114-1.44c-0.375-0.568-1.042-1.426-1.489-1.88c-1.046-1.075-2.575-3.23-3.291-4.618
		c-0.979-1.893-2.554-4.325-3.074-4.696c-0.535-0.383-5.27-13.513-6.074-16.812c-0.39-1.604-0.814-4.334-0.952-6.073
		c-0.138-1.734-0.315-3.797-0.41-4.605c-0.204-1.799-0.081-3.639,0.409-5.945c0.186-0.949,0.419-1.746,0.488-1.783
		c0.291-0.11,0.955,0.922,1.453,2.213c0.299,0.749,1.021,2.217,1.617,3.234c0.616,1.031,2.13,3.881,3.381,6.354
		c1.251,2.472,3.086,5.683,4.077,7.153C137.132,54.369,138.478,56.369,139.165,57.367 M150.338,123.747
		c4.868-0.913,9.033-1.246,14.3-1.103c3.749,0.082,4.105,0.208,4.169,1.328c0.068,1.067-3.131,8.563-4.384,10.309
		c-1.192,1.654-3.256,3.944-3.734,4.123c-0.18,0.047-0.934,0.797-1.645,1.598c-0.719,0.821-1.71,1.812-2.215,2.201
		c-1.57,1.266-4.496,3.087-4.796,3.04c-0.155-0.038-1.696,0.412-3.414,0.966c-2.509,0.828-3.723,1.013-5.959,0.967
		c-1.53-0.044-3.019,0.008-3.279,0.111c-0.261,0.103-0.493,0.07-0.551-0.089c-0.11-0.288-3.353-0.685-3.901-0.47
		c-0.547,0.216-0.992-0.291-0.909-1.047c0.047-0.398,0.13-1.157,0.159-1.691c0.195-2.979,1.136-6.915,2.551-10.756
		c0.595-1.617,2.338-3.738,4.492-5.447C142.8,126.528,148.119,124.165,150.338,123.747 M101.071,106.86
		c0.832,0.3,1.099,1.634,0.88,3.947c-0.284,2.701-3.526,9.743-5.952,12.931c-0.745,0.957-3.517,3.519-4.035,3.727
		c-0.32,0.117-0.669,0.421-0.791,0.678c-0.333,0.714-4.955,4.581-6.293,5.249c-0.701,0.354-1.946,1.076-2.785,1.625
		c-0.853,0.569-2.131,1.397-2.89,1.892c-1.833,1.19-6.234,2.996-10.157,4.15c-1.779,0.515-4.612,1.384-6.273,1.916
		c-1.941,0.626-3.618,0.924-4.611,0.86c-3.397-0.257-5.278-0.303-5.671-0.151c-0.246,0.087-1.682,0.045-3.172-0.075
		c-1.487-0.122-3.573-0.207-4.583-0.155c-1.041,0.06-2.472,0.019-3.248-0.073c-1.885-0.223-5.292-0.285-5.771-0.106
		c-0.198,0.089-1.65,0.038-3.208-0.098c-1.576-0.147-3.038-0.179-3.268-0.084c-0.869,0.332-6.146-0.545-7.816-1.322
		c-2.606-1.188-3.307-2.646-2.014-4.167c0.273-0.347,0.824-1.087,1.269-1.738c0.418-0.64,0.888-1.201,1.076-1.27
		c0.161-0.06,0.396-0.427,0.514-0.761c0.125-0.357,0.499-0.745,0.858-0.892s1.22-0.91,1.953-1.7c0.707-0.8,1.528-1.538,1.819-1.648
		c0.27-0.12,1.049-0.733,1.671-1.383c0.62-0.65,2.682-2.011,4.603-3.049c1.923-1.036,3.742-2.059,4.067-2.273
		c0.327-0.216,1.008-0.406,1.486-0.408c0.557-0.01,1-0.207,1.206-0.567c0.184-0.321,0.456-0.493,0.619-0.426
		c0.163,0.069,0.436-0.102,0.598-0.387c0.205-0.359,0.524-0.48,1.088-0.41c0.628,0.083,0.814-0.061,0.987-0.715
		c0.175-0.705,0.395-0.83,1.626-0.957c1.011-0.101,1.412-0.274,1.399-0.557c-0.03-0.569,0.894-0.821,1.1-0.301
		c0.351,0.928,2.595,0.073,3.015-1.145c0.221-0.602,1.446-1.259,1.965-1.013c0.162,0.068,0.946,0.013,1.796-0.155
		c1.565-0.286,2.542-0.583,12.403-3.643c3.171-0.978,6.659-1.977,7.685-2.193c1.047-0.206,2.965-0.618,4.253-0.887
		C85.397,107.682,99.45,106.26,101.071,106.86 M84.089,92.864c6.068,2.788,10.227,5.364,8.523,5.222
		c-0.214-0.021-0.919,0.152-1.564,0.362c-0.625,0.221-1.438,0.409-1.741,0.412c-1.038,0.011-6.201,1.005-10.627,2.02l-4.396,1.008
		l-1.089-0.949c-1.792-1.575-10.316-5.918-11.062-5.616c-0.191,0.065-0.355-0.001-0.423-0.189c-0.058-0.158-0.767-0.591-1.612-0.996
		c-2.344-1.091-3.213-1.638-7.048-4.43c-1.99-1.438-4.255-3.061-5.075-3.603c-0.819-0.545-1.515-1.091-1.554-1.19
		c-0.053-0.13,0.021-0.214,0.187-0.243c0.14-0.021,1.208-0.266,2.349-0.545c2.295-0.548,6.606-0.749,9.647-0.445
		c2.599,0.254,4.583,0.862,9.036,2.701c1.985,0.834,5.88,2.329,8.656,3.362C79.057,90.769,82.574,92.173,84.089,92.864
		 M41.173,88.424c3.952,2.761,9.494,6.252,11.579,7.268c1.188,0.604,4.038,2.03,6.369,3.187c2.333,1.155,5.431,2.498,6.92,2.972
		c1.471,0.464,2.775,1.034,2.852,1.253c0.115,0.29-0.398,0.525-2.016,0.934c-1.198,0.295-3.441,0.924-5.05,1.41
		c-10.963,3.312-13.617,3.956-15.111,3.581c-0.685-0.166-2.456-0.802-3.948-1.401c-2.59-1.052-3.366-1.144-11.421-1.6
		c-4.289-0.239-6.854-0.497-7.909-0.852l-1.084-0.341l1.58-3.295c2.84-5.938,5.314-8.998,9.293-11.475
		c1.678-1.05,3.726-2.167,4.524-2.466C39.159,87.073,39.292,87.099,41.173,88.424 M21.596,111.613
		c0.733,0.166,3.151,0.243,5.425,0.135c4.431-0.108,12.254,0.141,12.945,0.434c0.236,0.11,0.355,0.254,0.299,0.397
		c-0.045,0.125-2.227,1.393-4.785,2.795c-2.573,1.42-4.867,2.796-5.086,3.049c-0.217,0.252-0.823,0.561-1.326,0.65
		c-1.393,0.235-5.996,3.634-7.923,5.826c-2.881,3.279-4.535,5.298-5.513,6.697c-1.167,1.695-1.794,1.515-2.01-0.569
		c-0.216-2.082,1.916-9.859,4.082-14.979c1.025-2.455,2.039-4.488,2.237-4.577C20.133,111.407,20.899,111.467,21.596,111.613
		 M243.241,271.513c1.536-1.231,4.61-4.728,6.784-7.782c2.521-3.585,6.035-11.176,5.634-12.237c-0.088-0.2,0.035-0.507,0.254-0.706
		c0.428-0.359,1.869-5.214,2.18-7.299c0.575-3.816,0.652-4.701,0.533-5.021c-0.065-0.189,0.104-0.845,0.384-1.415
		c0.428-0.888,0.481-2.564,0.348-8.572c-0.042-0.726-0.078-1.979-0.141-2.792c-0.041-0.803-0.076-1.752-0.057-2.093
		c0.018-0.341-0.065-0.989-0.186-1.439c-0.123-0.446-0.19-1.515-0.153-2.371c0.054-0.847-0.065-1.771-0.25-2.025
		c-0.181-0.256-0.297-0.801-0.249-1.148c0.03-0.361-0.09-1.334-0.293-2.129c-0.2-0.791-0.493-1.988-0.671-2.645
		c-0.168-0.671-0.384-1.928-0.488-2.843c-0.108-0.913-0.269-1.859-0.363-2.142c-0.091-0.277-0.107-0.688-0.048-0.929
		c0.067-0.239-0.161-1.074-0.526-1.886c-0.367-0.812-0.623-1.638-0.591-1.871c0.074-0.485-0.127-1.227-1.442-5.171
		c-0.573-1.683-0.994-3.229-0.957-3.434c0.095-0.426-4.549-13.279-5.563-15.465c-3.272-6.97-6.153-12.359-6.813-12.737
		c-0.325-0.185-0.634-0.739-0.698-1.201c-0.068-0.542-0.336-0.948-0.743-1.078c-0.449-0.133-0.64-0.416-0.562-0.9
		c0.031-0.408-0.213-1.127-0.63-1.715c-0.38-0.569-1.425-2.122-2.301-3.449c-0.871-1.33-1.786-2.505-1.994-2.624
		c-0.22-0.099-0.586-0.686-0.824-1.325c-0.24-0.639-0.814-1.519-1.296-1.996c-0.503-0.487-1.317-1.53-1.884-2.38
		c-0.567-0.854-1.246-1.646-1.542-1.786c-0.294-0.146-0.477-0.4-0.411-0.562c0.07-0.161-0.268-0.629-0.714-1.036
		c-1.126-1.02-1.229-1.404-0.401-1.712c0.766-0.289,6.688-4.798,8.298-6.342c0.577-0.572,1.574-1.788,2.188-2.693
		c0.619-0.903,1.476-2.045,1.891-2.514c1.115-1.246,5.319-11.432,5.394-13.048c0.011-0.724,0.119-1.969,0.199-2.726
		c0.102-0.747,0.236-2.303,0.335-3.401c0.099-1.102,0.308-2.163,0.442-2.361c0.138-0.197,0.164-0.636,0.024-0.965
		c-0.136-0.33-0.175-1.105-0.106-1.746c0.064-0.642,0.046-1.354-0.067-1.646c-0.107-0.287-0.126-0.699-0.036-0.949
		c0.221-0.553-0.176-4.347-0.639-6.27c-0.208-0.822-0.315-1.814-0.287-2.175c0.031-0.359-0.219-1.908-0.573-3.443
		c-0.351-1.532-0.733-3.51-0.851-4.403c-0.314-2.393-3.306-11.362-3.884-11.717c-0.264-0.15-0.404-0.482-0.34-0.771
		c0.192-0.819-4.22-11.08-5.595-12.945c-0.429-0.571-0.968-1.559-1.214-2.226c-0.691-1.827-2.551-3.367-3.998-3.34
		c-1.205,0.039-1.269,0.104-2.116,2.209c-0.646,1.566-1.312,2.516-2.459,3.468c-2.235,1.841-3.884,3.763-4.784,5.559
		c-0.398,0.829-1.093,1.915-1.512,2.379c-0.947,1.091-4.846,9.896-5.348,12.095c-0.194,0.87-0.559,2.12-0.784,2.692
		c-0.742,1.864-2,7.854-2.465,11.709c-0.476,3.822-0.556,7.521-0.259,10.831c0.457,5.313,3.636,16.425,5.975,21.027
		c0.585,1.137,1.501,2.918,2.031,3.975l0.97,1.91l-1.032-1.369c-0.589-0.763-1.624-1.73-2.354-2.172
		c-0.725-0.439-1.368-0.985-1.461-1.215c-0.097-0.229-0.675-0.76-1.297-1.166c-1.357-0.876-2.229-1.55-3.018-2.326
		c-0.306-0.302-1.092-0.774-1.77-1.036c-0.668-0.281-2.141-1.223-3.29-2.156c-2.086-1.67-4.471-3.081-7.22-4.299
		c-0.81-0.34-1.985-1.011-2.654-1.466c-2.214-1.54-9.533-4.994-10.112-4.771c-0.172,0.077-0.348-0.05-0.444-0.28
		c-0.076-0.219-1.387-0.917-2.872-1.566c-1.489-0.648-2.773-1.306-2.831-1.466c-0.062-0.16,0.458-1.422,1.167-2.748
		c0.712-1.33,1.562-3.48,1.887-4.753c0.331-1.242,0.752-2.812,0.949-3.428c0.342-1.035,0.601-3.551,0.637-5.991
		c0.01-0.548,0.03-1.467,0.048-2.109c0.035-1.161-0.096-2.518-0.589-5.964c-0.336-2.403-2.039-7.824-3.889-12.501
		c-1.472-3.676-1.87-4.509-4.375-9.055c-0.799-1.463-1.619-2.934-1.794-3.285c-0.466-0.896-1.994-2.798-2.98-3.712
		c-0.464-0.416-0.971-1.108-1.124-1.497c-0.144-0.411-0.612-0.954-1.006-1.229c-0.428-0.268-1.2-1.162-1.77-1.965
		c-0.542-0.812-1.352-1.726-1.766-2.013c-0.431-0.296-1.061-1.135-1.447-1.906c-0.369-0.767-0.846-1.465-1.074-1.596
		s-0.797-0.756-1.312-1.401c-0.513-0.645-1.301-1.373-1.736-1.621c-0.434-0.248-1.402-0.976-2.157-1.634
		c-0.724-0.665-1.597-1.339-1.938-1.533c-0.323-0.186-1.11-0.786-1.766-1.312c-0.655-0.524-1.671-1.382-2.317-1.926
		c-2.471-2.091-3.309-2.645-3.761-2.476c-0.249,0.084-0.654-0.171-0.937-0.558c-0.268-0.406-1.283-1.187-2.23-1.728
		c-3.286-1.901-3.702-2.14-6.17-3.449c-4.583-2.441-8.434-4.19-10.261-4.604c-1.62-0.373-1.867-0.337-2.65,0.42
		c-0.888,0.849-1.173,2.67-0.636,4.059c0.207,0.521-0.096,1.403-0.964,2.792c-1.566,2.521-2.394,4.937-2.827,8.335
		c-0.86,6.694,0.423,14.084,4.125,23.837c2.974,7.854,4.891,11.838,7.434,15.351c0.645,0.896,1.469,2.046,1.825,2.525
		c0.636,0.864,1.139,1.481,2.113,2.591c0.285,0.337,1.064,1.26,1.766,2.138c1.476,1.823,5.671,5.904,8.515,8.231
		c1.098,0.903,2.819,2.364,3.875,3.294c1.063,0.909,2.626,2.128,3.511,2.736c0.886,0.604,1.534,1.225,1.466,1.389
		c-0.067,0.163-0.264,0.201-0.48,0.053c-0.546-0.363-4.899-1.316-5.291-1.163c-0.199,0.085-1.26-0.219-2.331-0.629
		c-1.071-0.409-2.199-0.677-2.49-0.567c-0.291,0.11-1.417-0.157-2.488-0.566c-1.072-0.411-2.37-0.728-2.856-0.678
		c-0.48,0.053-1.296-0.063-1.726-0.23c-0.468-0.194-2.093-0.47-3.679-0.646c-1.582-0.176-3.825-0.424-5.029-0.561
		c-4.972-0.579-7.086-0.656-7.646-0.247c-0.365,0.243-1.149,0.249-2.053-0.018c-0.815-0.238-1.78-0.312-2.17-0.158
		c-0.391,0.154-1.624,0.203-2.742,0.142c-1.121-0.062-2.697-0.081-3.51-0.021c-0.815,0.062-2.008,0.084-2.639,0.05
		c-0.664-0.026-1.581-0.048-2.139-0.039c-0.736,0.005-1.242-0.331-2.016-1.403c-1.38-1.895-3.002-2.921-8.929-5.654
		c-2.744-1.265-5.318-2.609-5.774-3.046c-0.453-0.435-1.077-0.791-1.427-0.84c-0.359-0.029-2.435-0.838-4.692-1.774
		c-2.26-0.964-4.224-1.661-4.422-1.574c-0.221,0.077-0.687-0.165-1.078-0.538c-0.399-0.405-0.902-0.616-1.161-0.514
		c-0.25,0.084-1.033-0.262-1.708-0.8c-1.505-1.186-5.868-3.05-6.937-2.982c-0.442,0.023-1.667-0.249-2.744-0.612
		c-2.829-0.938-10.764-1.476-11.322-0.765c-0.103,0.143-0.954,0.31-1.956,0.393c-0.981,0.091-2.801,0.51-4.12,0.961
		c-3.346,1.155-3.973,1.323-4.767,1.272c-0.391-0.022-1.93,0.557-3.465,1.312c-1.536,0.757-3.634,1.746-4.698,2.242
		c-2.244,1.028-5.882,4.053-6.349,5.267c-0.182,0.45-0.59,0.945-0.861,1.066c-0.292,0.111-0.958,0.885-1.471,1.698
		c-0.535,0.799-1.344,2.046-1.835,2.721c-0.484,0.679-1.754,3.117-2.829,5.443c-1.077,2.325-2.123,4.239-2.312,4.309
		c-0.188,0.068-1.022,0.119-1.816,0.143c-1.732,0.04-2.598,0.727-2.799,2.169c-0.121,0.787-0.021,1.095,0.402,1.285
		c0.294,0.143,0.806,0.912,1.113,1.74c0.526,1.407,0.499,1.644-0.946,4.738c-0.875,1.885-1.962,5.236-2.567,8.007
		c-1.125,5.186-1.842,8.946-1.731,9.235c0.043,0.101-0.067,0.69-0.228,1.328c-0.171,0.605-0.438,2.438-0.59,4.061
		c-0.152,1.595-0.594,4.256-0.959,5.908c-0.364,1.65-0.595,3.33-0.495,3.765c0.118,0.544-0.11,0.99-0.783,1.51
		c-1.115,0.847-1.058,1.406,0.099,0.961c0.451-0.169,0.881-0.176,0.947,0.015c0.079,0.171,0.551,0.139,1.033-0.09
		c1.142-0.503,4.442-0.653,5.788-0.237c0.576,0.182,2.191,0.475,3.58,0.638c1.407,0.176,3.992,0.498,5.747,0.722
		c1.756,0.226,3.796,0.435,4.543,0.485c0.752,0.051,4.255,0.345,7.832,0.679c6.312,0.564,7.362,0.612,13.68,0.552
		c8.72-0.094,13.991-0.876,20.868-3.104c12.132-3.949,26.143-13.834,31.33-22.128c3.221-5.145,6.239-13.421,6.072-16.656
		c-0.025-1.045-0.003-2.012,0.089-2.136c0.139-0.197,2.797-0.011,17.013,1.275c4.835,0.425,8.551,0.916,9.306,1.22
		c0.306,0.124,2.599,0.73,5.065,1.335c4.402,1.084,13.703,3.809,16.694,4.863c2.173,0.765,1.724,1.338-0.981,1.272
		c-7.298-0.148-14.733,3.671-19.7,10.129c-1.541,1.987-3.333,9.881-3.588,15.689c-0.081,1.813-0.231,4.541-0.347,6.109
		c-0.105,1.548-0.128,2.991-0.051,3.21c0.188,0.461,6.782,1.061,10.612,0.988c3.612-0.071,9.096-1.011,11.675-1.999
		c2.574-0.992,5.923-3.251,9.249-6.249c4.502-4.062,6.136-6.169,9.222-11.969c2.27-4.282,2.859-5.576,2.99-6.733
		c0.117-0.863,0.381-1.242,1.093-1.513c0.767-0.291,1.644-0.016,4.331,1.345c1.837,0.922,4.099,2.19,5,2.778
		c1.663,1.129,3.751,2.396,8.653,5.297c5.735,3.376,17.632,12.107,21.523,15.762c2.015,1.879,8.262,8.764,9.379,10.33
		c0.524,0.753,1.108,1.441,1.335,1.571c0.198,0.136,0.651,0.748,0.976,1.332c0.323,0.613,1.954,3.126,3.674,5.618
		c3.541,5.189,7.49,12.973,11.108,21.897c2.343,5.837,6.251,19.1,7.631,25.967c0.653,3.212,1.579,10.476,1.696,13.305
		c0.401,9.854-1.805,23.167-4.995,29.985"/>
	<path fill="#F9F9F9" d="M161.373,324.27c43.762-14.325,84.106-52.057,104.503-98.493c18.699-42.585,18.354-85.572-0.954-121.049
		l9.15-4.974c20.895,38.367,21.361,84.615,1.344,130.215c-23.035,52.469-70.354,94.483-120.562,107.033
		c-0.286,0.062-0.576,0.125-0.843,0.198l7.38-12.919L161.373,324.27z"/>
	<path fill="#F9F9F9" d="M253.559,65.021c0.251-3.474,1.026-6.899,2.139-10.21l18.333,24.995
		c-0.771,8.178-1.859,16.022-3.353,22.632C265.068,97.125,252.285,82.914,253.559,65.021 M292.809,74.378
		c-4.503,10.968-12.346,20.433-17.434,25.818c1.243-6.049,2.169-12.856,2.861-19.922L292.809,74.378 M296.138,60.903
		c-0.186,2.832-0.759,5.596-1.555,8.307l-15.952,6.466c0.612-7.363,1.006-14.826,1.249-21.849l14.723-6.112
		C295.815,51.797,296.477,56.222,296.138,60.903 M265.616,36.257c3.781-5.252,7.62-9.467,10.28-12.144
		c0.069,4.764,0.127,13.062-0.085,22.891L265.616,36.257 M280.03,49.34c0.26-10.354,0.227-19.268,0.154-24.734
		c3.791,3.797,9.603,10.559,13.087,19.231L280.03,49.34 M257.71,49.705c1.515-3.354,3.297-6.559,5.207-9.513l12.705,13.389
		c-0.188,6.174-0.5,12.704-0.985,19.185L257.71,49.705 M276.691,17.834c-1.025,0.921-25.651,22.785-27.404,47.586
		c-1.521,21.444,14.573,37.346,19.576,41.735c0.782,0.698,1.308,1.099,1.429,1.195c0.729,0.565,1.87,0.463,2.692-0.272
		c1.058-0.93,25.652-22.785,27.406-47.585c1.748-24.832-20.086-42.203-21.005-42.928C278.654,16.997,277.516,17.099,276.691,17.834"
		/>
</g>
</svg>
